solid Default
  facet normal -1.000000e+00 -0.000000e+00 -0.000000e+00
    outer loop
      vertex -2.367470e+01 -1.161665e+01 0.000000e+00
      vertex -2.367470e+01 -1.161665e+01 4.684440e+00
      vertex -2.367470e+01 1.161665e+01 0.000000e+00
    endloop
  endfacet
  facet normal -1.000000e+00 0.000000e+00 0.000000e+00
    outer loop
      vertex -2.367470e+01 1.161665e+01 0.000000e+00
      vertex -2.367470e+01 -1.161665e+01 4.684440e+00
      vertex -2.367470e+01 1.161665e+01 4.684440e+00
    endloop
  endfacet
  facet normal 0.000000e+00 -1.000000e+00 0.000000e+00
    outer loop
      vertex -2.367470e+01 -1.161665e+01 4.684440e+00
      vertex -2.367470e+01 -1.161665e+01 0.000000e+00
      vertex 2.364080e+01 -1.161665e+01 0.000000e+00
    endloop
  endfacet
  facet normal 0.000000e+00 -1.000000e+00 0.000000e+00
    outer loop
      vertex 2.364080e+01 -1.161665e+01 4.684440e+00
      vertex -2.367470e+01 -1.161665e+01 4.684440e+00
      vertex 2.364080e+01 -1.161665e+01 0.000000e+00
    endloop
  endfacet
  facet normal -0.000000e+00 -0.000000e+00 -1.000000e+00
    outer loop
      vertex -7.560499e+00 3.357750e+00 0.000000e+00
      vertex -2.367470e+01 1.161665e+01 0.000000e+00
      vertex 2.364080e+01 -1.161665e+01 0.000000e+00
    endloop
  endfacet
  facet normal 0.000000e+00 0.000000e+00 -1.000000e+00
    outer loop
      vertex 2.364080e+01 -1.161665e+01 0.000000e+00
      vertex -2.367470e+01 1.161665e+01 0.000000e+00
      vertex 2.364080e+01 1.161665e+01 0.000000e+00
    endloop
  endfacet
  facet normal 0.000000e+00 0.000000e+00 -1.000000e+00
    outer loop
      vertex -2.367470e+01 -1.161665e+01 0.000000e+00
      vertex -2.367470e+01 1.161665e+01 0.000000e+00
      vertex -1.383968e+01 9.764500e-01 0.000000e+00
    endloop
  endfacet
  facet normal 0.000000e+00 0.000000e+00 -1.000000e+00
    outer loop
      vertex -2.367470e+01 -1.161665e+01 0.000000e+00
      vertex -1.383968e+01 9.764500e-01 0.000000e+00
      vertex -1.383968e+01 -9.763498e-01 0.000000e+00
    endloop
  endfacet
  facet normal 0.000000e+00 0.000000e+00 -1.000000e+00
    outer loop
      vertex -2.367470e+01 -1.161665e+01 0.000000e+00
      vertex -1.383968e+01 -9.763498e-01 0.000000e+00
      vertex -1.293220e+01 -2.705520e+00 0.000000e+00
    endloop
  endfacet
  facet normal 0.000000e+00 0.000000e+00 -1.000000e+00
    outer loop
      vertex -2.367470e+01 -1.161665e+01 0.000000e+00
      vertex -1.293220e+01 -2.705520e+00 0.000000e+00
      vertex -1.132500e+01 -3.814850e+00 0.000000e+00
    endloop
  endfacet
  facet normal 0.000000e+00 0.000000e+00 -1.000000e+00
    outer loop
      vertex -2.367470e+01 -1.161665e+01 0.000000e+00
      vertex -1.132500e+01 -3.814850e+00 0.000000e+00
      vertex 2.364080e+01 -1.161665e+01 0.000000e+00
    endloop
  endfacet
  facet normal 0.000000e+00 0.000000e+00 -1.000000e+00
    outer loop
      vertex -1.132500e+01 -3.814850e+00 0.000000e+00
      vertex -9.386499e+00 -4.050240e+00 0.000000e+00
      vertex 2.364080e+01 -1.161665e+01 0.000000e+00
    endloop
  endfacet
  facet normal 0.000000e+00 0.000000e+00 -1.000000e+00
    outer loop
      vertex -6.265600e+00 -1.896049e+00 0.000000e+00
      vertex 2.364080e+01 -1.161665e+01 0.000000e+00
      vertex -7.560499e+00 -3.357759e+00 0.000000e+00
    endloop
  endfacet
  facet normal 0.000000e+00 0.000000e+00 -1.000000e+00
    outer loop
      vertex -5.798201e+00 5.054474e-05 0.000000e+00
      vertex 2.364080e+01 -1.161665e+01 0.000000e+00
      vertex -6.265600e+00 -1.896049e+00 0.000000e+00
    endloop
  endfacet
  facet normal 0.000000e+00 0.000000e+00 -1.000000e+00
    outer loop
      vertex -1.132500e+01 3.814851e+00 0.000000e+00
      vertex -2.367470e+01 1.161665e+01 0.000000e+00
      vertex -9.386499e+00 4.050250e+00 0.000000e+00
    endloop
  endfacet
  facet normal 0.000000e+00 0.000000e+00 -1.000000e+00
    outer loop
      vertex -1.293220e+01 2.705550e+00 0.000000e+00
      vertex -2.367470e+01 1.161665e+01 0.000000e+00
      vertex -1.132500e+01 3.814851e+00 0.000000e+00
    endloop
  endfacet
  facet normal -0.000000e+00 -0.000000e+00 -1.000000e+00
    outer loop
      vertex -5.798201e+00 5.054474e-05 0.000000e+00
      vertex -6.265600e+00 1.896050e+00 0.000000e+00
      vertex 2.364080e+01 -1.161665e+01 0.000000e+00
    endloop
  endfacet
  facet normal -0.000000e+00 -0.000000e+00 -1.000000e+00
    outer loop
      vertex -9.386499e+00 4.050250e+00 0.000000e+00
      vertex -2.367470e+01 1.161665e+01 0.000000e+00
      vertex -7.560499e+00 3.357750e+00 0.000000e+00
    endloop
  endfacet
  facet normal -0.000000e+00 -0.000000e+00 -1.000000e+00
    outer loop
      vertex -6.265600e+00 1.896050e+00 0.000000e+00
      vertex -7.560499e+00 3.357750e+00 0.000000e+00
      vertex 2.364080e+01 -1.161665e+01 0.000000e+00
    endloop
  endfacet
  facet normal 0.000000e+00 0.000000e+00 -1.000000e+00
    outer loop
      vertex -1.383968e+01 9.764500e-01 0.000000e+00
      vertex -2.367470e+01 1.161665e+01 0.000000e+00
      vertex -1.293220e+01 2.705550e+00 0.000000e+00
    endloop
  endfacet
  facet normal 0.000000e+00 0.000000e+00 -1.000000e+00
    outer loop
      vertex -7.560499e+00 -3.357759e+00 0.000000e+00
      vertex 2.364080e+01 -1.161665e+01 0.000000e+00
      vertex -9.386499e+00 -4.050240e+00 0.000000e+00
    endloop
  endfacet
  facet normal 0.000000e+00 1.000000e+00 0.000000e+00
    outer loop
      vertex -2.367470e+01 1.161665e+01 0.000000e+00
      vertex -2.367470e+01 1.161665e+01 4.684440e+00
      vertex 2.364080e+01 1.161665e+01 0.000000e+00
    endloop
  endfacet
  facet normal 0.000000e+00 1.000000e+00 0.000000e+00
    outer loop
      vertex 2.364080e+01 1.161665e+01 0.000000e+00
      vertex -2.367470e+01 1.161665e+01 4.684440e+00
      vertex 2.364080e+01 1.161665e+01 4.684440e+00
    endloop
  endfacet
  facet normal 0.000000e+00 0.000000e+00 1.000000e+00
    outer loop
      vertex -1.843205e+01 -6.516650e+00 4.684440e+00
      vertex -2.367470e+01 -1.161665e+01 4.684440e+00
      vertex 2.364080e+01 -1.161665e+01 4.684440e+00
    endloop
  endfacet
  facet normal 0.000000e+00 0.000000e+00 1.000000e+00
    outer loop
      vertex -1.451799e+00 -6.516650e+00 4.684440e+00
      vertex -1.843205e+01 -6.516650e+00 4.684440e+00
      vertex 2.364080e+01 -1.161665e+01 4.684440e+00
    endloop
  endfacet
  facet normal 0.000000e+00 0.000000e+00 1.000000e+00
    outer loop
      vertex -2.367470e+01 1.161665e+01 4.684440e+00
      vertex -2.367470e+01 -1.161665e+01 4.684440e+00
      vertex -1.843205e+01 -6.516650e+00 4.684440e+00
    endloop
  endfacet
  facet normal 0.000000e+00 0.000000e+00 1.000000e+00
    outer loop
      vertex -2.367470e+01 1.161665e+01 4.684440e+00
      vertex -1.843205e+01 -6.516650e+00 4.684440e+00
      vertex -1.843205e+01 4.816650e+00 4.684440e+00
    endloop
  endfacet
  facet normal 0.000000e+00 0.000000e+00 1.000000e+00
    outer loop
      vertex 2.364080e+01 1.161665e+01 4.684440e+00
      vertex -2.367470e+01 1.161665e+01 4.684440e+00
      vertex -1.451799e+00 4.816650e+00 4.684440e+00
    endloop
  endfacet
  facet normal 0.000000e+00 0.000000e+00 1.000000e+00
    outer loop
      vertex 9.160902e+00 -6.516650e+00 4.684440e+00
      vertex -1.451799e+00 -6.516650e+00 4.684440e+00
      vertex 2.364080e+01 -1.161665e+01 4.684440e+00
    endloop
  endfacet
  facet normal 0.000000e+00 0.000000e+00 1.000000e+00
    outer loop
      vertex 9.160902e+00 -6.516650e+00 4.684440e+00
      vertex 9.160902e+00 4.816650e+00 4.684440e+00
      vertex -1.451799e+00 4.816650e+00 4.684440e+00
    endloop
  endfacet
  facet normal 0.000000e+00 0.000000e+00 1.000000e+00
    outer loop
      vertex 2.364080e+01 1.161665e+01 4.684440e+00
      vertex -1.451799e+00 4.816650e+00 4.684440e+00
      vertex 9.160902e+00 4.816650e+00 4.684440e+00
    endloop
  endfacet
  facet normal 0.000000e+00 0.000000e+00 1.000000e+00
    outer loop
      vertex 2.364080e+01 1.161665e+01 4.684440e+00
      vertex 2.170310e+01 4.816650e+00 4.684440e+00
      vertex 2.364080e+01 -1.161665e+01 4.684440e+00
    endloop
  endfacet
  facet normal 0.000000e+00 0.000000e+00 1.000000e+00
    outer loop
      vertex 2.364080e+01 1.161665e+01 4.684440e+00
      vertex 9.160902e+00 4.816650e+00 4.684440e+00
      vertex 2.170310e+01 4.816650e+00 4.684440e+00
    endloop
  endfacet
  facet normal 0.000000e+00 0.000000e+00 1.000000e+00
    outer loop
      vertex 2.170310e+01 4.816650e+00 4.684440e+00
      vertex 2.170310e+01 -6.516650e+00 4.684440e+00
      vertex 2.364080e+01 -1.161665e+01 4.684440e+00
    endloop
  endfacet
  facet normal 0.000000e+00 0.000000e+00 1.000000e+00
    outer loop
      vertex 2.170310e+01 -6.516650e+00 4.684440e+00
      vertex 9.160902e+00 -6.516650e+00 4.684440e+00
      vertex 2.364080e+01 -1.161665e+01 4.684440e+00
    endloop
  endfacet
  facet normal 0.000000e+00 0.000000e+00 1.000000e+00
    outer loop
      vertex -1.843205e+01 4.816650e+00 4.684440e+00
      vertex -1.451799e+00 4.816650e+00 4.684440e+00
      vertex -2.367470e+01 1.161665e+01 4.684440e+00
    endloop
  endfacet
  facet normal 0.000000e+00 0.000000e+00 1.000000e+00
    outer loop
      vertex -1.451799e+00 4.816650e+00 4.684440e+00
      vertex -1.451799e+00 -6.516650e+00 4.684440e+00
      vertex 9.160902e+00 -6.516650e+00 4.684440e+00
    endloop
  endfacet
  facet normal 1.000000e+00 0.000000e+00 0.000000e+00
    outer loop
      vertex 2.364080e+01 -1.161665e+01 4.684440e+00
      vertex 2.364080e+01 -1.161665e+01 0.000000e+00
      vertex 2.364080e+01 1.161665e+01 0.000000e+00
    endloop
  endfacet
  facet normal 1.000000e+00 0.000000e+00 0.000000e+00
    outer loop
      vertex 2.364080e+01 1.161665e+01 4.684440e+00
      vertex 2.364080e+01 -1.161665e+01 4.684440e+00
      vertex 2.364080e+01 1.161665e+01 0.000000e+00
    endloop
  endfacet
  facet normal 1.000000e+00 0.000000e+00 0.000000e+00
    outer loop
      vertex -1.383968e+01 9.764500e-01 0.000000e+00
      vertex -1.383968e+01 9.764500e-01 5.855560e-01
      vertex -1.383968e+01 -9.763498e-01 5.855560e-01
    endloop
  endfacet
  facet normal 1.000000e+00 0.000000e+00 0.000000e+00
    outer loop
      vertex -1.383968e+01 -9.763498e-01 0.000000e+00
      vertex -1.383968e+01 9.764500e-01 0.000000e+00
      vertex -1.383968e+01 -9.763498e-01 5.855560e-01
    endloop
  endfacet
  facet normal 8.854561e-01 -4.647231e-01 0.000000e+00
    outer loop
      vertex -1.293220e+01 2.705550e+00 0.000000e+00
      vertex -1.293220e+01 2.705550e+00 5.855560e-01
      vertex -1.383968e+01 9.764500e-01 5.855560e-01
    endloop
  endfacet
  facet normal 8.854561e-01 -4.647231e-01 0.000000e+00
    outer loop
      vertex -1.383968e+01 9.764500e-01 0.000000e+00
      vertex -1.293220e+01 2.705550e+00 0.000000e+00
      vertex -1.383968e+01 9.764500e-01 5.855560e-01
    endloop
  endfacet
  facet normal 5.680649e-01 -8.229838e-01 0.000000e+00
    outer loop
      vertex -1.132500e+01 3.814851e+00 0.000000e+00
      vertex -1.132500e+01 3.814851e+00 5.855560e-01
      vertex -1.293220e+01 2.705550e+00 5.855560e-01
    endloop
  endfacet
  facet normal 5.680649e-01 -8.229838e-01 0.000000e+00
    outer loop
      vertex -1.293220e+01 2.705550e+00 0.000000e+00
      vertex -1.132500e+01 3.814851e+00 0.000000e+00
      vertex -1.293220e+01 2.705550e+00 5.855560e-01
    endloop
  endfacet
  facet normal 1.205370e-01 -9.927089e-01 0.000000e+00
    outer loop
      vertex -9.386499e+00 4.050250e+00 0.000000e+00
      vertex -9.386499e+00 4.050250e+00 5.855560e-01
      vertex -1.132500e+01 3.814851e+00 5.855560e-01
    endloop
  endfacet
  facet normal 1.205370e-01 -9.927089e-01 0.000000e+00
    outer loop
      vertex -1.132500e+01 3.814851e+00 0.000000e+00
      vertex -9.386499e+00 4.050250e+00 0.000000e+00
      vertex -1.132500e+01 3.814851e+00 5.855560e-01
    endloop
  endfacet
  facet normal -3.546051e-01 -9.350162e-01 -0.000000e+00
    outer loop
      vertex -7.560499e+00 3.357750e+00 0.000000e+00
      vertex -7.560499e+00 3.357750e+00 5.855560e-01
      vertex -9.386499e+00 4.050250e+00 5.855560e-01
    endloop
  endfacet
  facet normal -3.546051e-01 -9.350162e-01 -0.000000e+00
    outer loop
      vertex -9.386499e+00 4.050250e+00 0.000000e+00
      vertex -7.560499e+00 3.357750e+00 0.000000e+00
      vertex -9.386499e+00 4.050250e+00 5.855560e-01
    endloop
  endfacet
  facet normal -7.485102e-01 -6.631233e-01 0.000000e+00
    outer loop
      vertex -6.265600e+00 1.896050e+00 5.855560e-01
      vertex -7.560499e+00 3.357750e+00 5.855560e-01
      vertex -6.265600e+00 1.896050e+00 0.000000e+00
    endloop
  endfacet
  facet normal -7.485102e-01 -6.631233e-01 0.000000e+00
    outer loop
      vertex -6.265600e+00 1.896050e+00 0.000000e+00
      vertex -7.560499e+00 3.357750e+00 5.855560e-01
      vertex -7.560499e+00 3.357750e+00 0.000000e+00
    endloop
  endfacet
  facet normal -9.709420e-01 -2.393150e-01 0.000000e+00
    outer loop
      vertex -5.798201e+00 5.054474e-05 5.855560e-01
      vertex -6.265600e+00 1.896050e+00 5.855560e-01
      vertex -5.798201e+00 5.054474e-05 0.000000e+00
    endloop
  endfacet
  facet normal -9.709420e-01 -2.393150e-01 0.000000e+00
    outer loop
      vertex -5.798201e+00 5.054474e-05 0.000000e+00
      vertex -6.265600e+00 1.896050e+00 5.855560e-01
      vertex -6.265600e+00 1.896050e+00 0.000000e+00
    endloop
  endfacet
  facet normal -9.709420e-01 2.393150e-01 0.000000e+00
    outer loop
      vertex -5.798201e+00 5.054474e-05 5.855560e-01
      vertex -5.798201e+00 5.054474e-05 0.000000e+00
      vertex -6.265600e+00 -1.896049e+00 5.855560e-01
    endloop
  endfacet
  facet normal -9.709420e-01 2.393150e-01 0.000000e+00
    outer loop
      vertex -6.265600e+00 -1.896049e+00 5.855560e-01
      vertex -5.798201e+00 5.054474e-05 0.000000e+00
      vertex -6.265600e+00 -1.896049e+00 0.000000e+00
    endloop
  endfacet
  facet normal -7.485102e-01 6.631233e-01 0.000000e+00
    outer loop
      vertex -6.265600e+00 -1.896049e+00 5.855560e-01
      vertex -6.265600e+00 -1.896049e+00 0.000000e+00
      vertex -7.560499e+00 -3.357759e+00 5.855560e-01
    endloop
  endfacet
  facet normal -7.485102e-01 6.631233e-01 0.000000e+00
    outer loop
      vertex -7.560499e+00 -3.357759e+00 5.855560e-01
      vertex -6.265600e+00 -1.896049e+00 0.000000e+00
      vertex -7.560499e+00 -3.357759e+00 0.000000e+00
    endloop
  endfacet
  facet normal -3.546051e-01 9.350162e-01 0.000000e+00
    outer loop
      vertex -7.560499e+00 -3.357759e+00 5.855560e-01
      vertex -7.560499e+00 -3.357759e+00 0.000000e+00
      vertex -9.386499e+00 -4.050240e+00 5.855560e-01
    endloop
  endfacet
  facet normal -3.546051e-01 9.350162e-01 0.000000e+00
    outer loop
      vertex -9.386499e+00 -4.050240e+00 5.855560e-01
      vertex -7.560499e+00 -3.357759e+00 0.000000e+00
      vertex -9.386499e+00 -4.050240e+00 0.000000e+00
    endloop
  endfacet
  facet normal 1.205370e-01 9.927089e-01 0.000000e+00
    outer loop
      vertex -9.386499e+00 -4.050240e+00 5.855560e-01
      vertex -9.386499e+00 -4.050240e+00 0.000000e+00
      vertex -1.132500e+01 -3.814850e+00 5.855560e-01
    endloop
  endfacet
  facet normal 1.205370e-01 9.927089e-01 0.000000e+00
    outer loop
      vertex -1.132500e+01 -3.814850e+00 5.855560e-01
      vertex -9.386499e+00 -4.050240e+00 0.000000e+00
      vertex -1.132500e+01 -3.814850e+00 0.000000e+00
    endloop
  endfacet
  facet normal 5.680649e-01 8.229838e-01 0.000000e+00
    outer loop
      vertex -1.132500e+01 -3.814850e+00 5.855560e-01
      vertex -1.132500e+01 -3.814850e+00 0.000000e+00
      vertex -1.293220e+01 -2.705520e+00 5.855560e-01
    endloop
  endfacet
  facet normal 5.680649e-01 8.229838e-01 0.000000e+00
    outer loop
      vertex -1.293220e+01 -2.705520e+00 5.855560e-01
      vertex -1.132500e+01 -3.814850e+00 0.000000e+00
      vertex -1.293220e+01 -2.705520e+00 0.000000e+00
    endloop
  endfacet
  facet normal 8.854561e-01 4.647231e-01 0.000000e+00
    outer loop
      vertex -1.383968e+01 -9.763498e-01 5.855560e-01
      vertex -1.293220e+01 -2.705520e+00 5.855560e-01
      vertex -1.293220e+01 -2.705520e+00 0.000000e+00
    endloop
  endfacet
  facet normal 8.854561e-01 4.647231e-01 0.000000e+00
    outer loop
      vertex -1.383968e+01 -9.763498e-01 0.000000e+00
      vertex -1.383968e+01 -9.763498e-01 5.855560e-01
      vertex -1.293220e+01 -2.705520e+00 0.000000e+00
    endloop
  endfacet
  facet normal 1.000000e+00 0.000000e+00 0.000000e+00
    outer loop
      vertex -1.843205e+01 4.816650e+00 5.855560e-01
      vertex -1.843205e+01 4.816650e+00 4.684440e+00
      vertex -1.843205e+01 -6.516650e+00 4.684440e+00
    endloop
  endfacet
  facet normal 1.000000e+00 0.000000e+00 0.000000e+00
    outer loop
      vertex -1.843205e+01 -6.516650e+00 5.855560e-01
      vertex -1.843205e+01 4.816650e+00 5.855560e-01
      vertex -1.843205e+01 -6.516650e+00 4.684440e+00
    endloop
  endfacet
  facet normal 0.000000e+00 1.000000e+00 0.000000e+00
    outer loop
      vertex -1.451799e+00 -6.516650e+00 4.684440e+00
      vertex -1.451799e+00 -6.516650e+00 5.855560e-01
      vertex -1.843205e+01 -6.516650e+00 4.684440e+00
    endloop
  endfacet
  facet normal 0.000000e+00 1.000000e+00 0.000000e+00
    outer loop
      vertex -1.843205e+01 -6.516650e+00 4.684440e+00
      vertex -1.451799e+00 -6.516650e+00 5.855560e-01
      vertex -1.843205e+01 -6.516650e+00 5.855560e-01
    endloop
  endfacet
  facet normal -1.000000e+00 0.000000e+00 0.000000e+00
    outer loop
      vertex -1.451799e+00 4.816650e+00 4.684440e+00
      vertex -1.451799e+00 4.816650e+00 5.855560e-01
      vertex -1.451799e+00 -6.516650e+00 4.684440e+00
    endloop
  endfacet
  facet normal -1.000000e+00 0.000000e+00 0.000000e+00
    outer loop
      vertex -1.451799e+00 -6.516650e+00 4.684440e+00
      vertex -1.451799e+00 4.816650e+00 5.855560e-01
      vertex -1.451799e+00 -6.516650e+00 5.855560e-01
    endloop
  endfacet
  facet normal 0.000000e+00 -1.000000e+00 0.000000e+00
    outer loop
      vertex -1.451799e+00 4.816650e+00 5.855560e-01
      vertex -1.451799e+00 4.816650e+00 4.684440e+00
      vertex -1.843205e+01 4.816650e+00 4.684440e+00
    endloop
  endfacet
  facet normal -0.000000e+00 -1.000000e+00 -0.000000e+00
    outer loop
      vertex -1.843205e+01 4.816650e+00 5.855560e-01
      vertex -1.451799e+00 4.816650e+00 5.855560e-01
      vertex -1.843205e+01 4.816650e+00 4.684440e+00
    endloop
  endfacet
  facet normal 1.000000e+00 0.000000e+00 0.000000e+00
    outer loop
      vertex 9.160902e+00 4.816650e+00 5.855560e-01
      vertex 9.160902e+00 4.816650e+00 4.684440e+00
      vertex 9.160902e+00 -6.516650e+00 4.684440e+00
    endloop
  endfacet
  facet normal 1.000000e+00 0.000000e+00 0.000000e+00
    outer loop
      vertex 9.160902e+00 -6.516650e+00 5.855560e-01
      vertex 9.160902e+00 4.816650e+00 5.855560e-01
      vertex 9.160902e+00 -6.516650e+00 4.684440e+00
    endloop
  endfacet
  facet normal 0.000000e+00 1.000000e+00 0.000000e+00
    outer loop
      vertex 2.170310e+01 -6.516650e+00 4.684440e+00
      vertex 2.170310e+01 -6.516650e+00 5.855560e-01
      vertex 9.160902e+00 -6.516650e+00 4.684440e+00
    endloop
  endfacet
  facet normal 0.000000e+00 1.000000e+00 0.000000e+00
    outer loop
      vertex 9.160902e+00 -6.516650e+00 4.684440e+00
      vertex 2.170310e+01 -6.516650e+00 5.855560e-01
      vertex 9.160902e+00 -6.516650e+00 5.855560e-01
    endloop
  endfacet
  facet normal -1.000000e+00 0.000000e+00 0.000000e+00
    outer loop
      vertex 2.170310e+01 4.816650e+00 4.684440e+00
      vertex 2.170310e+01 4.816650e+00 5.855560e-01
      vertex 2.170310e+01 -6.516650e+00 4.684440e+00
    endloop
  endfacet
  facet normal -1.000000e+00 0.000000e+00 0.000000e+00
    outer loop
      vertex 2.170310e+01 -6.516650e+00 4.684440e+00
      vertex 2.170310e+01 4.816650e+00 5.855560e-01
      vertex 2.170310e+01 -6.516650e+00 5.855560e-01
    endloop
  endfacet
  facet normal 0.000000e+00 -1.000000e+00 0.000000e+00
    outer loop
      vertex 2.170310e+01 4.816650e+00 5.855560e-01
      vertex 2.170310e+01 4.816650e+00 4.684440e+00
      vertex 9.160902e+00 4.816650e+00 4.684440e+00
    endloop
  endfacet
  facet normal -0.000000e+00 -1.000000e+00 -0.000000e+00
    outer loop
      vertex 9.160902e+00 4.816650e+00 5.855560e-01
      vertex 2.170310e+01 4.816650e+00 5.855560e-01
      vertex 9.160902e+00 4.816650e+00 4.684440e+00
    endloop
  endfacet
  facet normal 0.000000e+00 0.000000e+00 1.000000e+00
    outer loop
      vertex -9.386499e+00 4.050250e+00 5.855560e-01
      vertex -1.451799e+00 4.816650e+00 5.855560e-01
      vertex -1.843205e+01 4.816650e+00 5.855560e-01
    endloop
  endfacet
  facet normal 0.000000e+00 0.000000e+00 1.000000e+00
    outer loop
      vertex -1.843205e+01 -6.516650e+00 5.855560e-01
      vertex -1.383968e+01 9.764500e-01 5.855560e-01
      vertex -1.843205e+01 4.816650e+00 5.855560e-01
    endloop
  endfacet
  facet normal 0.000000e+00 0.000000e+00 1.000000e+00
    outer loop
      vertex -1.293220e+01 2.705550e+00 5.855560e-01
      vertex -1.132500e+01 3.814851e+00 5.855560e-01
      vertex -1.843205e+01 4.816650e+00 5.855560e-01
    endloop
  endfacet
  facet normal 0.000000e+00 0.000000e+00 1.000000e+00
    outer loop
      vertex -6.265600e+00 1.896050e+00 5.855560e-01
      vertex -5.798201e+00 5.054474e-05 5.855560e-01
      vertex -1.451799e+00 -6.516650e+00 5.855560e-01
    endloop
  endfacet
  facet normal 0.000000e+00 0.000000e+00 1.000000e+00
    outer loop
      vertex -1.132500e+01 3.814851e+00 5.855560e-01
      vertex -9.386499e+00 4.050250e+00 5.855560e-01
      vertex -1.843205e+01 4.816650e+00 5.855560e-01
    endloop
  endfacet
  facet normal 0.000000e+00 0.000000e+00 1.000000e+00
    outer loop
      vertex -6.265600e+00 -1.896049e+00 5.855560e-01
      vertex -7.560499e+00 -3.357759e+00 5.855560e-01
      vertex -1.451799e+00 -6.516650e+00 5.855560e-01
    endloop
  endfacet
  facet normal 0.000000e+00 0.000000e+00 1.000000e+00
    outer loop
      vertex -6.265600e+00 1.896050e+00 5.855560e-01
      vertex -1.451799e+00 4.816650e+00 5.855560e-01
      vertex -7.560499e+00 3.357750e+00 5.855560e-01
    endloop
  endfacet
  facet normal 0.000000e+00 0.000000e+00 1.000000e+00
    outer loop
      vertex -1.451799e+00 -6.516650e+00 5.855560e-01
      vertex -1.451799e+00 4.816650e+00 5.855560e-01
      vertex -6.265600e+00 1.896050e+00 5.855560e-01
    endloop
  endfacet
  facet normal 0.000000e+00 0.000000e+00 1.000000e+00
    outer loop
      vertex -1.451799e+00 -6.516650e+00 5.855560e-01
      vertex -5.798201e+00 5.054474e-05 5.855560e-01
      vertex -6.265600e+00 -1.896049e+00 5.855560e-01
    endloop
  endfacet
  facet normal 0.000000e+00 0.000000e+00 1.000000e+00
    outer loop
      vertex -9.386499e+00 -4.050240e+00 5.855560e-01
      vertex -1.451799e+00 -6.516650e+00 5.855560e-01
      vertex -7.560499e+00 -3.357759e+00 5.855560e-01
    endloop
  endfacet
  facet normal 0.000000e+00 0.000000e+00 1.000000e+00
    outer loop
      vertex -1.843205e+01 -6.516650e+00 5.855560e-01
      vertex -1.451799e+00 -6.516650e+00 5.855560e-01
      vertex -9.386499e+00 -4.050240e+00 5.855560e-01
    endloop
  endfacet
  facet normal 0.000000e+00 0.000000e+00 1.000000e+00
    outer loop
      vertex -1.843205e+01 -6.516650e+00 5.855560e-01
      vertex -1.132500e+01 -3.814850e+00 5.855560e-01
      vertex -1.293220e+01 -2.705520e+00 5.855560e-01
    endloop
  endfacet
  facet normal 0.000000e+00 0.000000e+00 1.000000e+00
    outer loop
      vertex -1.843205e+01 -6.516650e+00 5.855560e-01
      vertex -1.383968e+01 -9.763498e-01 5.855560e-01
      vertex -1.383968e+01 9.764500e-01 5.855560e-01
    endloop
  endfacet
  facet normal 0.000000e+00 0.000000e+00 1.000000e+00
    outer loop
      vertex -1.843205e+01 -6.516650e+00 5.855560e-01
      vertex -1.293220e+01 -2.705520e+00 5.855560e-01
      vertex -1.383968e+01 -9.763498e-01 5.855560e-01
    endloop
  endfacet
  facet normal 0.000000e+00 0.000000e+00 1.000000e+00
    outer loop
      vertex -9.386499e+00 -4.050240e+00 5.855560e-01
      vertex -1.132500e+01 -3.814850e+00 5.855560e-01
      vertex -1.843205e+01 -6.516650e+00 5.855560e-01
    endloop
  endfacet
  facet normal 0.000000e+00 0.000000e+00 1.000000e+00
    outer loop
      vertex -1.383968e+01 9.764500e-01 5.855560e-01
      vertex -1.293220e+01 2.705550e+00 5.855560e-01
      vertex -1.843205e+01 4.816650e+00 5.855560e-01
    endloop
  endfacet
  facet normal 0.000000e+00 0.000000e+00 1.000000e+00
    outer loop
      vertex -9.386499e+00 4.050250e+00 5.855560e-01
      vertex -7.560499e+00 3.357750e+00 5.855560e-01
      vertex -1.451799e+00 4.816650e+00 5.855560e-01
    endloop
  endfacet
  facet normal 0.000000e+00 0.000000e+00 1.000000e+00
    outer loop
      vertex 2.170310e+01 -6.516650e+00 5.855560e-01
      vertex 2.170310e+01 4.816650e+00 5.855560e-01
      vertex 9.160902e+00 4.816650e+00 5.855560e-01
    endloop
  endfacet
  facet normal 0.000000e+00 0.000000e+00 1.000000e+00
    outer loop
      vertex 9.160902e+00 -6.516650e+00 5.855560e-01
      vertex 2.170310e+01 -6.516650e+00 5.855560e-01
      vertex 9.160902e+00 4.816650e+00 5.855560e-01
    endloop
  endfacet
  facet normal -1.000000e+00 -0.000000e+00 -0.000000e+00
    outer loop
      vertex -2.008762e+01 -8.478190e+00 4.684440e+00
      vertex -2.008762e+01 -8.478190e+00 7.807410e+00
      vertex -2.008762e+01 6.821850e+00 4.684440e+00
    endloop
  endfacet
  facet normal -1.000000e+00 0.000000e+00 0.000000e+00
    outer loop
      vertex -2.008762e+01 6.821850e+00 4.684440e+00
      vertex -2.008762e+01 -8.478190e+00 7.807410e+00
      vertex -2.008762e+01 6.821850e+00 7.807410e+00
    endloop
  endfacet
  facet normal 0.000000e+00 -1.000000e+00 0.000000e+00
    outer loop
      vertex -2.008762e+01 -8.478190e+00 7.807410e+00
      vertex -2.008762e+01 -8.478190e+00 4.684440e+00
      vertex 6.070995e-01 -8.478190e+00 4.684440e+00
    endloop
  endfacet
  facet normal 0.000000e+00 -1.000000e+00 0.000000e+00
    outer loop
      vertex 6.070995e-01 -8.478190e+00 7.807410e+00
      vertex -2.008762e+01 -8.478190e+00 7.807410e+00
      vertex 6.070995e-01 -8.478190e+00 4.684440e+00
    endloop
  endfacet
  facet normal 0.000000e+00 0.000000e+00 -1.000000e+00
    outer loop
      vertex -1.451799e+00 -6.516650e+00 4.684440e+00
      vertex 6.070995e-01 -8.478190e+00 4.684440e+00
      vertex -1.843205e+01 -6.516650e+00 4.684440e+00
    endloop
  endfacet
  facet normal 0.000000e+00 0.000000e+00 -1.000000e+00
    outer loop
      vertex -1.451799e+00 4.816650e+00 4.684440e+00
      vertex -2.008762e+01 6.821850e+00 4.684440e+00
      vertex 6.070995e-01 6.821850e+00 4.684440e+00
    endloop
  endfacet
  facet normal 0.000000e+00 0.000000e+00 -1.000000e+00
    outer loop
      vertex -2.008762e+01 -8.478190e+00 4.684440e+00
      vertex -2.008762e+01 6.821850e+00 4.684440e+00
      vertex -1.843205e+01 4.816650e+00 4.684440e+00
    endloop
  endfacet
  facet normal 0.000000e+00 0.000000e+00 -1.000000e+00
    outer loop
      vertex -2.008762e+01 -8.478190e+00 4.684440e+00
      vertex -1.843205e+01 4.816650e+00 4.684440e+00
      vertex -1.843205e+01 -6.516650e+00 4.684440e+00
    endloop
  endfacet
  facet normal 0.000000e+00 0.000000e+00 -1.000000e+00
    outer loop
      vertex -2.008762e+01 -8.478190e+00 4.684440e+00
      vertex -1.843205e+01 -6.516650e+00 4.684440e+00
      vertex 6.070995e-01 -8.478190e+00 4.684440e+00
    endloop
  endfacet
  facet normal 0.000000e+00 0.000000e+00 -1.000000e+00
    outer loop
      vertex 6.070995e-01 -8.478190e+00 4.684440e+00
      vertex -1.451799e+00 -6.516650e+00 4.684440e+00
      vertex 6.070995e-01 6.821850e+00 4.684440e+00
    endloop
  endfacet
  facet normal 0.000000e+00 0.000000e+00 -1.000000e+00
    outer loop
      vertex -1.451799e+00 -6.516650e+00 4.684440e+00
      vertex -1.451799e+00 4.816650e+00 4.684440e+00
      vertex 6.070995e-01 6.821850e+00 4.684440e+00
    endloop
  endfacet
  facet normal -0.000000e+00 -0.000000e+00 -1.000000e+00
    outer loop
      vertex -1.843205e+01 4.816650e+00 4.684440e+00
      vertex -2.008762e+01 6.821850e+00 4.684440e+00
      vertex -1.451799e+00 4.816650e+00 4.684440e+00
    endloop
  endfacet
  facet normal 0.000000e+00 1.000000e+00 0.000000e+00
    outer loop
      vertex -2.008762e+01 6.821850e+00 4.684440e+00
      vertex -2.008762e+01 6.821850e+00 7.807410e+00
      vertex 6.070995e-01 6.821850e+00 4.684440e+00
    endloop
  endfacet
  facet normal 0.000000e+00 1.000000e+00 0.000000e+00
    outer loop
      vertex 6.070995e-01 6.821850e+00 4.684440e+00
      vertex -2.008762e+01 6.821850e+00 7.807410e+00
      vertex 6.070995e-01 6.821850e+00 7.807410e+00
    endloop
  endfacet
  facet normal 0.000000e+00 0.000000e+00 1.000000e+00
    outer loop
      vertex -1.843205e+01 -6.516650e+00 7.807410e+00
      vertex -2.008762e+01 -8.478190e+00 7.807410e+00
      vertex 6.070995e-01 -8.478190e+00 7.807410e+00
    endloop
  endfacet
  facet normal 0.000000e+00 0.000000e+00 1.000000e+00
    outer loop
      vertex -2.008762e+01 6.821850e+00 7.807410e+00
      vertex -2.008762e+01 -8.478190e+00 7.807410e+00
      vertex -1.843205e+01 -6.516650e+00 7.807410e+00
    endloop
  endfacet
  facet normal 0.000000e+00 0.000000e+00 1.000000e+00
    outer loop
      vertex -1.843205e+01 4.816650e+00 7.807410e+00
      vertex -1.451799e+00 4.816650e+00 7.807410e+00
      vertex -2.008762e+01 6.821850e+00 7.807410e+00
    endloop
  endfacet
  facet normal 0.000000e+00 0.000000e+00 1.000000e+00
    outer loop
      vertex -2.008762e+01 6.821850e+00 7.807410e+00
      vertex -1.843205e+01 -6.516650e+00 7.807410e+00
      vertex -1.843205e+01 4.816650e+00 7.807410e+00
    endloop
  endfacet
  facet normal 0.000000e+00 0.000000e+00 1.000000e+00
    outer loop
      vertex 6.070995e-01 6.821850e+00 7.807410e+00
      vertex -1.451799e+00 4.816650e+00 7.807410e+00
      vertex 6.070995e-01 -8.478190e+00 7.807410e+00
    endloop
  endfacet
  facet normal 0.000000e+00 0.000000e+00 1.000000e+00
    outer loop
      vertex 6.070995e-01 6.821850e+00 7.807410e+00
      vertex -2.008762e+01 6.821850e+00 7.807410e+00
      vertex -1.451799e+00 4.816650e+00 7.807410e+00
    endloop
  endfacet
  facet normal 0.000000e+00 0.000000e+00 1.000000e+00
    outer loop
      vertex -1.451799e+00 4.816650e+00 7.807410e+00
      vertex -1.451799e+00 -6.516650e+00 7.807410e+00
      vertex 6.070995e-01 -8.478190e+00 7.807410e+00
    endloop
  endfacet
  facet normal 0.000000e+00 0.000000e+00 1.000000e+00
    outer loop
      vertex -1.451799e+00 -6.516650e+00 7.807410e+00
      vertex -1.843205e+01 -6.516650e+00 7.807410e+00
      vertex 6.070995e-01 -8.478190e+00 7.807410e+00
    endloop
  endfacet
  facet normal 1.000000e+00 0.000000e+00 0.000000e+00
    outer loop
      vertex 6.070995e-01 -8.478190e+00 7.807410e+00
      vertex 6.070995e-01 -8.478190e+00 4.684440e+00
      vertex 6.070995e-01 6.821850e+00 4.684440e+00
    endloop
  endfacet
  facet normal 1.000000e+00 0.000000e+00 0.000000e+00
    outer loop
      vertex 6.070995e-01 6.821850e+00 7.807410e+00
      vertex 6.070995e-01 -8.478190e+00 7.807410e+00
      vertex 6.070995e-01 6.821850e+00 4.684440e+00
    endloop
  endfacet
  facet normal 1.000000e+00 0.000000e+00 0.000000e+00
    outer loop
      vertex -1.843205e+01 4.816650e+00 4.684440e+00
      vertex -1.843205e+01 4.816650e+00 7.807410e+00
      vertex -1.843205e+01 -6.516650e+00 7.807410e+00
    endloop
  endfacet
  facet normal 1.000000e+00 0.000000e+00 0.000000e+00
    outer loop
      vertex -1.843205e+01 -6.516650e+00 4.684440e+00
      vertex -1.843205e+01 4.816650e+00 4.684440e+00
      vertex -1.843205e+01 -6.516650e+00 7.807410e+00
    endloop
  endfacet
  facet normal 0.000000e+00 -1.000000e+00 0.000000e+00
    outer loop
      vertex -1.451799e+00 4.816650e+00 4.684440e+00
      vertex -1.451799e+00 4.816650e+00 7.807410e+00
      vertex -1.843205e+01 4.816650e+00 7.807410e+00
    endloop
  endfacet
  facet normal -0.000000e+00 -1.000000e+00 -0.000000e+00
    outer loop
      vertex -1.843205e+01 4.816650e+00 4.684440e+00
      vertex -1.451799e+00 4.816650e+00 4.684440e+00
      vertex -1.843205e+01 4.816650e+00 7.807410e+00
    endloop
  endfacet
  facet normal -1.000000e+00 0.000000e+00 0.000000e+00
    outer loop
      vertex -1.451799e+00 4.816650e+00 7.807410e+00
      vertex -1.451799e+00 4.816650e+00 4.684440e+00
      vertex -1.451799e+00 -6.516650e+00 7.807410e+00
    endloop
  endfacet
  facet normal -1.000000e+00 0.000000e+00 0.000000e+00
    outer loop
      vertex -1.451799e+00 -6.516650e+00 7.807410e+00
      vertex -1.451799e+00 4.816650e+00 4.684440e+00
      vertex -1.451799e+00 -6.516650e+00 4.684440e+00
    endloop
  endfacet
  facet normal 0.000000e+00 1.000000e+00 0.000000e+00
    outer loop
      vertex -1.451799e+00 -6.516650e+00 7.807410e+00
      vertex -1.451799e+00 -6.516650e+00 4.684440e+00
      vertex -1.843205e+01 -6.516650e+00 7.807410e+00
    endloop
  endfacet
  facet normal 0.000000e+00 1.000000e+00 0.000000e+00
    outer loop
      vertex -1.843205e+01 -6.516650e+00 7.807410e+00
      vertex -1.451799e+00 -6.516650e+00 4.684440e+00
      vertex -1.843205e+01 -6.516650e+00 4.684440e+00
    endloop
  endfacet
  facet normal -1.000000e+00 -0.000000e+00 -0.000000e+00
    outer loop
      vertex 6.953400e+00 -8.478190e+00 4.684440e+00
      vertex 6.953400e+00 -8.478190e+00 7.807410e+00
      vertex 6.953400e+00 6.821850e+00 4.684440e+00
    endloop
  endfacet
  facet normal -1.000000e+00 0.000000e+00 0.000000e+00
    outer loop
      vertex 6.953400e+00 6.821850e+00 4.684440e+00
      vertex 6.953400e+00 -8.478190e+00 7.807410e+00
      vertex 6.953400e+00 6.821850e+00 7.807410e+00
    endloop
  endfacet
  facet normal 0.000000e+00 -1.000000e+00 0.000000e+00
    outer loop
      vertex 6.953400e+00 -8.478190e+00 7.807410e+00
      vertex 6.953400e+00 -8.478190e+00 4.684440e+00
      vertex 2.367470e+01 -8.478190e+00 4.684440e+00
    endloop
  endfacet
  facet normal 0.000000e+00 -1.000000e+00 0.000000e+00
    outer loop
      vertex 2.367470e+01 -8.478190e+00 7.807410e+00
      vertex 6.953400e+00 -8.478190e+00 7.807410e+00
      vertex 2.367470e+01 -8.478190e+00 4.684440e+00
    endloop
  endfacet
  facet normal 0.000000e+00 0.000000e+00 -1.000000e+00
    outer loop
      vertex 2.170310e+01 -6.516650e+00 4.684440e+00
      vertex 2.367470e+01 -8.478190e+00 4.684440e+00
      vertex 9.160902e+00 -6.516650e+00 4.684440e+00
    endloop
  endfacet
  facet normal 0.000000e+00 0.000000e+00 -1.000000e+00
    outer loop
      vertex 9.160902e+00 4.816650e+00 4.684440e+00
      vertex 6.953400e+00 6.821850e+00 4.684440e+00
      vertex 2.367470e+01 6.821850e+00 4.684440e+00
    endloop
  endfacet
  facet normal 0.000000e+00 0.000000e+00 -1.000000e+00
    outer loop
      vertex 2.170310e+01 4.816650e+00 4.684440e+00
      vertex 9.160902e+00 4.816650e+00 4.684440e+00
      vertex 2.367470e+01 6.821850e+00 4.684440e+00
    endloop
  endfacet
  facet normal 0.000000e+00 0.000000e+00 -1.000000e+00
    outer loop
      vertex 6.953400e+00 -8.478190e+00 4.684440e+00
      vertex 6.953400e+00 6.821850e+00 4.684440e+00
      vertex 9.160902e+00 -6.516650e+00 4.684440e+00
    endloop
  endfacet
  facet normal 0.000000e+00 0.000000e+00 -1.000000e+00
    outer loop
      vertex 6.953400e+00 -8.478190e+00 4.684440e+00
      vertex 9.160902e+00 -6.516650e+00 4.684440e+00
      vertex 2.367470e+01 -8.478190e+00 4.684440e+00
    endloop
  endfacet
  facet normal 0.000000e+00 0.000000e+00 -1.000000e+00
    outer loop
      vertex 2.367470e+01 -8.478190e+00 4.684440e+00
      vertex 2.170310e+01 -6.516650e+00 4.684440e+00
      vertex 2.367470e+01 6.821850e+00 4.684440e+00
    endloop
  endfacet
  facet normal 0.000000e+00 0.000000e+00 -1.000000e+00
    outer loop
      vertex 2.170310e+01 -6.516650e+00 4.684440e+00
      vertex 2.170310e+01 4.816650e+00 4.684440e+00
      vertex 2.367470e+01 6.821850e+00 4.684440e+00
    endloop
  endfacet
  facet normal 0.000000e+00 0.000000e+00 -1.000000e+00
    outer loop
      vertex 9.160902e+00 -6.516650e+00 4.684440e+00
      vertex 6.953400e+00 6.821850e+00 4.684440e+00
      vertex 9.160902e+00 4.816650e+00 4.684440e+00
    endloop
  endfacet
  facet normal 0.000000e+00 1.000000e+00 0.000000e+00
    outer loop
      vertex 6.953400e+00 6.821850e+00 4.684440e+00
      vertex 6.953400e+00 6.821850e+00 7.807410e+00
      vertex 2.367470e+01 6.821850e+00 4.684440e+00
    endloop
  endfacet
  facet normal 0.000000e+00 1.000000e+00 0.000000e+00
    outer loop
      vertex 2.367470e+01 6.821850e+00 4.684440e+00
      vertex 6.953400e+00 6.821850e+00 7.807410e+00
      vertex 2.367470e+01 6.821850e+00 7.807410e+00
    endloop
  endfacet
  facet normal 0.000000e+00 0.000000e+00 1.000000e+00
    outer loop
      vertex 9.160902e+00 -6.516650e+00 7.807410e+00
      vertex 6.953400e+00 -8.478190e+00 7.807410e+00
      vertex 2.367470e+01 -8.478190e+00 7.807410e+00
    endloop
  endfacet
  facet normal 0.000000e+00 0.000000e+00 1.000000e+00
    outer loop
      vertex 6.953400e+00 6.821850e+00 7.807410e+00
      vertex 6.953400e+00 -8.478190e+00 7.807410e+00
      vertex 9.160902e+00 -6.516650e+00 7.807410e+00
    endloop
  endfacet
  facet normal 0.000000e+00 0.000000e+00 1.000000e+00
    outer loop
      vertex 2.367470e+01 6.821850e+00 7.807410e+00
      vertex 6.953400e+00 6.821850e+00 7.807410e+00
      vertex 9.160902e+00 4.816650e+00 7.807410e+00
    endloop
  endfacet
  facet normal 0.000000e+00 0.000000e+00 1.000000e+00
    outer loop
      vertex 2.367470e+01 6.821850e+00 7.807410e+00
      vertex 2.170310e+01 4.816650e+00 7.807410e+00
      vertex 2.367470e+01 -8.478190e+00 7.807410e+00
    endloop
  endfacet
  facet normal 0.000000e+00 0.000000e+00 1.000000e+00
    outer loop
      vertex 2.367470e+01 6.821850e+00 7.807410e+00
      vertex 9.160902e+00 4.816650e+00 7.807410e+00
      vertex 2.170310e+01 4.816650e+00 7.807410e+00
    endloop
  endfacet
  facet normal 0.000000e+00 0.000000e+00 1.000000e+00
    outer loop
      vertex 2.170310e+01 4.816650e+00 7.807410e+00
      vertex 2.170310e+01 -6.516650e+00 7.807410e+00
      vertex 2.367470e+01 -8.478190e+00 7.807410e+00
    endloop
  endfacet
  facet normal 0.000000e+00 0.000000e+00 1.000000e+00
    outer loop
      vertex 9.160902e+00 -6.516650e+00 7.807410e+00
      vertex 9.160902e+00 4.816650e+00 7.807410e+00
      vertex 6.953400e+00 6.821850e+00 7.807410e+00
    endloop
  endfacet
  facet normal 0.000000e+00 0.000000e+00 1.000000e+00
    outer loop
      vertex 2.170310e+01 -6.516650e+00 7.807410e+00
      vertex 9.160902e+00 -6.516650e+00 7.807410e+00
      vertex 2.367470e+01 -8.478190e+00 7.807410e+00
    endloop
  endfacet
  facet normal 1.000000e+00 0.000000e+00 0.000000e+00
    outer loop
      vertex 2.367470e+01 -8.478190e+00 7.807410e+00
      vertex 2.367470e+01 -8.478190e+00 4.684440e+00
      vertex 2.367470e+01 6.821850e+00 4.684440e+00
    endloop
  endfacet
  facet normal 1.000000e+00 0.000000e+00 0.000000e+00
    outer loop
      vertex 2.367470e+01 6.821850e+00 7.807410e+00
      vertex 2.367470e+01 -8.478190e+00 7.807410e+00
      vertex 2.367470e+01 6.821850e+00 4.684440e+00
    endloop
  endfacet
  facet normal 1.000000e+00 0.000000e+00 0.000000e+00
    outer loop
      vertex 9.160902e+00 4.816650e+00 4.684440e+00
      vertex 9.160902e+00 4.816650e+00 7.807410e+00
      vertex 9.160902e+00 -6.516650e+00 7.807410e+00
    endloop
  endfacet
  facet normal 1.000000e+00 0.000000e+00 0.000000e+00
    outer loop
      vertex 9.160902e+00 -6.516650e+00 4.684440e+00
      vertex 9.160902e+00 4.816650e+00 4.684440e+00
      vertex 9.160902e+00 -6.516650e+00 7.807410e+00
    endloop
  endfacet
  facet normal 0.000000e+00 -1.000000e+00 0.000000e+00
    outer loop
      vertex 2.170310e+01 4.816650e+00 4.684440e+00
      vertex 2.170310e+01 4.816650e+00 7.807410e+00
      vertex 9.160902e+00 4.816650e+00 7.807410e+00
    endloop
  endfacet
  facet normal -0.000000e+00 -1.000000e+00 -0.000000e+00
    outer loop
      vertex 9.160902e+00 4.816650e+00 4.684440e+00
      vertex 2.170310e+01 4.816650e+00 4.684440e+00
      vertex 9.160902e+00 4.816650e+00 7.807410e+00
    endloop
  endfacet
  facet normal -1.000000e+00 0.000000e+00 0.000000e+00
    outer loop
      vertex 2.170310e+01 4.816650e+00 7.807410e+00
      vertex 2.170310e+01 4.816650e+00 4.684440e+00
      vertex 2.170310e+01 -6.516650e+00 7.807410e+00
    endloop
  endfacet
  facet normal -1.000000e+00 0.000000e+00 0.000000e+00
    outer loop
      vertex 2.170310e+01 -6.516650e+00 7.807410e+00
      vertex 2.170310e+01 4.816650e+00 4.684440e+00
      vertex 2.170310e+01 -6.516650e+00 4.684440e+00
    endloop
  endfacet
  facet normal 0.000000e+00 1.000000e+00 0.000000e+00
    outer loop
      vertex 2.170310e+01 -6.516650e+00 7.807410e+00
      vertex 2.170310e+01 -6.516650e+00 4.684440e+00
      vertex 9.160902e+00 -6.516650e+00 7.807410e+00
    endloop
  endfacet
  facet normal 0.000000e+00 1.000000e+00 0.000000e+00
    outer loop
      vertex 9.160902e+00 -6.516650e+00 7.807410e+00
      vertex 2.170310e+01 -6.516650e+00 4.684440e+00
      vertex 9.160902e+00 -6.516650e+00 4.684440e+00
    endloop
  endfacet
endsolid Default
