solid Default
  facet normal -1.000000e+00 -0.000000e+00 -0.000000e+00
    outer loop
      vertex -3.113460e+01 -1.161665e+01 0.000000e+00
      vertex -3.113460e+01 -1.161665e+01 4.684440e+00
      vertex -3.113460e+01 1.161665e+01 0.000000e+00
    endloop
  endfacet
  facet normal -1.000000e+00 0.000000e+00 0.000000e+00
    outer loop
      vertex -3.113460e+01 1.161665e+01 0.000000e+00
      vertex -3.113460e+01 -1.161665e+01 4.684440e+00
      vertex -3.113460e+01 1.161665e+01 4.684440e+00
    endloop
  endfacet
  facet normal 0.000000e+00 -1.000000e+00 0.000000e+00
    outer loop
      vertex -3.113460e+01 -1.161665e+01 4.684440e+00
      vertex -3.113460e+01 -1.161665e+01 0.000000e+00
      vertex 3.113460e+01 -1.161665e+01 0.000000e+00
    endloop
  endfacet
  facet normal 0.000000e+00 -1.000000e+00 0.000000e+00
    outer loop
      vertex 3.113460e+01 -1.161665e+01 4.684440e+00
      vertex -3.113460e+01 -1.161665e+01 4.684440e+00
      vertex 3.113460e+01 -1.161665e+01 0.000000e+00
    endloop
  endfacet
  facet normal -0.000000e+00 -0.000000e+00 -1.000000e+00
    outer loop
      vertex -1.502040e+01 3.357750e+00 0.000000e+00
      vertex -3.113460e+01 1.161665e+01 0.000000e+00
      vertex 3.113460e+01 -1.161665e+01 0.000000e+00
    endloop
  endfacet
  facet normal 0.000000e+00 0.000000e+00 -1.000000e+00
    outer loop
      vertex 3.113460e+01 -1.161665e+01 0.000000e+00
      vertex -3.113460e+01 1.161665e+01 0.000000e+00
      vertex 3.113460e+01 1.161665e+01 0.000000e+00
    endloop
  endfacet
  facet normal 0.000000e+00 0.000000e+00 -1.000000e+00
    outer loop
      vertex -3.113460e+01 -1.161665e+01 0.000000e+00
      vertex -3.113460e+01 1.161665e+01 0.000000e+00
      vertex -2.129958e+01 9.764500e-01 0.000000e+00
    endloop
  endfacet
  facet normal 0.000000e+00 0.000000e+00 -1.000000e+00
    outer loop
      vertex -3.113460e+01 -1.161665e+01 0.000000e+00
      vertex -2.129958e+01 9.764500e-01 0.000000e+00
      vertex -2.129958e+01 -9.763498e-01 0.000000e+00
    endloop
  endfacet
  facet normal 0.000000e+00 0.000000e+00 -1.000000e+00
    outer loop
      vertex -3.113460e+01 -1.161665e+01 0.000000e+00
      vertex -2.129958e+01 -9.763498e-01 0.000000e+00
      vertex -2.039210e+01 -2.705520e+00 0.000000e+00
    endloop
  endfacet
  facet normal 0.000000e+00 0.000000e+00 -1.000000e+00
    outer loop
      vertex -3.113460e+01 -1.161665e+01 0.000000e+00
      vertex -2.039210e+01 -2.705520e+00 0.000000e+00
      vertex -1.878490e+01 -3.814850e+00 0.000000e+00
    endloop
  endfacet
  facet normal 0.000000e+00 0.000000e+00 -1.000000e+00
    outer loop
      vertex -3.113460e+01 -1.161665e+01 0.000000e+00
      vertex -1.878490e+01 -3.814850e+00 0.000000e+00
      vertex 3.113460e+01 -1.161665e+01 0.000000e+00
    endloop
  endfacet
  facet normal 0.000000e+00 0.000000e+00 -1.000000e+00
    outer loop
      vertex -1.878490e+01 -3.814850e+00 0.000000e+00
      vertex -1.684640e+01 -4.050240e+00 0.000000e+00
      vertex 3.113460e+01 -1.161665e+01 0.000000e+00
    endloop
  endfacet
  facet normal 0.000000e+00 0.000000e+00 -1.000000e+00
    outer loop
      vertex -1.372550e+01 -1.896049e+00 0.000000e+00
      vertex 3.113460e+01 -1.161665e+01 0.000000e+00
      vertex -1.502040e+01 -3.357759e+00 0.000000e+00
    endloop
  endfacet
  facet normal 0.000000e+00 0.000000e+00 -1.000000e+00
    outer loop
      vertex -1.325810e+01 5.054474e-05 0.000000e+00
      vertex 3.113460e+01 -1.161665e+01 0.000000e+00
      vertex -1.372550e+01 -1.896049e+00 0.000000e+00
    endloop
  endfacet
  facet normal 0.000000e+00 0.000000e+00 -1.000000e+00
    outer loop
      vertex -1.878490e+01 3.814851e+00 0.000000e+00
      vertex -3.113460e+01 1.161665e+01 0.000000e+00
      vertex -1.684640e+01 4.050250e+00 0.000000e+00
    endloop
  endfacet
  facet normal 0.000000e+00 0.000000e+00 -1.000000e+00
    outer loop
      vertex -2.039210e+01 2.705550e+00 0.000000e+00
      vertex -3.113460e+01 1.161665e+01 0.000000e+00
      vertex -1.878490e+01 3.814851e+00 0.000000e+00
    endloop
  endfacet
  facet normal -0.000000e+00 -0.000000e+00 -1.000000e+00
    outer loop
      vertex -1.325810e+01 5.054474e-05 0.000000e+00
      vertex -1.372550e+01 1.896050e+00 0.000000e+00
      vertex 3.113460e+01 -1.161665e+01 0.000000e+00
    endloop
  endfacet
  facet normal -0.000000e+00 -0.000000e+00 -1.000000e+00
    outer loop
      vertex -1.684640e+01 4.050250e+00 0.000000e+00
      vertex -3.113460e+01 1.161665e+01 0.000000e+00
      vertex -1.502040e+01 3.357750e+00 0.000000e+00
    endloop
  endfacet
  facet normal -0.000000e+00 -0.000000e+00 -1.000000e+00
    outer loop
      vertex -1.372550e+01 1.896050e+00 0.000000e+00
      vertex -1.502040e+01 3.357750e+00 0.000000e+00
      vertex 3.113460e+01 -1.161665e+01 0.000000e+00
    endloop
  endfacet
  facet normal 0.000000e+00 0.000000e+00 -1.000000e+00
    outer loop
      vertex -2.129958e+01 9.764500e-01 0.000000e+00
      vertex -3.113460e+01 1.161665e+01 0.000000e+00
      vertex -2.039210e+01 2.705550e+00 0.000000e+00
    endloop
  endfacet
  facet normal 0.000000e+00 0.000000e+00 -1.000000e+00
    outer loop
      vertex -1.502040e+01 -3.357759e+00 0.000000e+00
      vertex 3.113460e+01 -1.161665e+01 0.000000e+00
      vertex -1.684640e+01 -4.050240e+00 0.000000e+00
    endloop
  endfacet
  facet normal 0.000000e+00 1.000000e+00 0.000000e+00
    outer loop
      vertex -3.113460e+01 1.161665e+01 0.000000e+00
      vertex -3.113460e+01 1.161665e+01 4.684440e+00
      vertex 3.113460e+01 1.161665e+01 0.000000e+00
    endloop
  endfacet
  facet normal 0.000000e+00 1.000000e+00 0.000000e+00
    outer loop
      vertex 3.113460e+01 1.161665e+01 0.000000e+00
      vertex -3.113460e+01 1.161665e+01 4.684440e+00
      vertex 3.113460e+01 1.161665e+01 4.684440e+00
    endloop
  endfacet
  facet normal 0.000000e+00 0.000000e+00 1.000000e+00
    outer loop
      vertex -2.589195e+01 -5.099979e+00 4.684440e+00
      vertex -3.113460e+01 -1.161665e+01 4.684440e+00
      vertex 3.113460e+01 -1.161665e+01 4.684440e+00
    endloop
  endfacet
  facet normal 0.000000e+00 0.000000e+00 1.000000e+00
    outer loop
      vertex 1.374820e+01 -5.099979e+00 4.684440e+00
      vertex 5.642801e+00 -5.099979e+00 4.684440e+00
      vertex 3.113460e+01 -1.161665e+01 4.684440e+00
    endloop
  endfacet
  facet normal 0.000000e+00 0.000000e+00 1.000000e+00
    outer loop
      vertex -8.911699e+00 -5.099979e+00 4.684440e+00
      vertex -2.589195e+01 -5.099979e+00 4.684440e+00
      vertex 3.113460e+01 -1.161665e+01 4.684440e+00
    endloop
  endfacet
  facet normal 0.000000e+00 0.000000e+00 1.000000e+00
    outer loop
      vertex -3.113460e+01 1.161665e+01 4.684440e+00
      vertex -3.113460e+01 -1.161665e+01 4.684440e+00
      vertex -2.589195e+01 -5.099979e+00 4.684440e+00
    endloop
  endfacet
  facet normal 0.000000e+00 0.000000e+00 1.000000e+00
    outer loop
      vertex 5.642801e+00 6.233351e+00 4.684440e+00
      vertex 5.642801e+00 -5.099979e+00 4.684440e+00
      vertex 1.374820e+01 -5.099979e+00 4.684440e+00
    endloop
  endfacet
  facet normal 0.000000e+00 0.000000e+00 1.000000e+00
    outer loop
      vertex -3.113460e+01 1.161665e+01 4.684440e+00
      vertex -2.589195e+01 -5.099979e+00 4.684440e+00
      vertex -2.589195e+01 6.233351e+00 4.684440e+00
    endloop
  endfacet
  facet normal 0.000000e+00 0.000000e+00 1.000000e+00
    outer loop
      vertex 3.113460e+01 1.161665e+01 4.684440e+00
      vertex -3.113460e+01 1.161665e+01 4.684440e+00
      vertex -8.911699e+00 6.233351e+00 4.684440e+00
    endloop
  endfacet
  facet normal 0.000000e+00 0.000000e+00 1.000000e+00
    outer loop
      vertex 1.701002e+00 -5.099979e+00 4.684440e+00
      vertex -8.911699e+00 -5.099979e+00 4.684440e+00
      vertex 3.113460e+01 -1.161665e+01 4.684440e+00
    endloop
  endfacet
  facet normal 0.000000e+00 0.000000e+00 1.000000e+00
    outer loop
      vertex 5.642801e+00 -5.099979e+00 4.684440e+00
      vertex 1.701002e+00 -5.099979e+00 4.684440e+00
      vertex 3.113460e+01 -1.161665e+01 4.684440e+00
    endloop
  endfacet
  facet normal 0.000000e+00 0.000000e+00 1.000000e+00
    outer loop
      vertex 2.294580e+01 -5.099979e+00 4.684440e+00
      vertex 1.374820e+01 -5.099979e+00 4.684440e+00
      vertex 3.113460e+01 -1.161665e+01 4.684440e+00
    endloop
  endfacet
  facet normal 0.000000e+00 0.000000e+00 1.000000e+00
    outer loop
      vertex 3.113460e+01 1.161665e+01 4.684440e+00
      vertex -8.911699e+00 6.233351e+00 4.684440e+00
      vertex 1.701002e+00 6.233351e+00 4.684440e+00
    endloop
  endfacet
  facet normal 0.000000e+00 0.000000e+00 1.000000e+00
    outer loop
      vertex 1.374820e+01 -5.099979e+00 4.684440e+00
      vertex 1.374820e+01 6.233351e+00 4.684440e+00
      vertex 5.642801e+00 6.233351e+00 4.684440e+00
    endloop
  endfacet
  facet normal 0.000000e+00 0.000000e+00 1.000000e+00
    outer loop
      vertex 3.113460e+01 1.161665e+01 4.684440e+00
      vertex 1.701002e+00 6.233351e+00 4.684440e+00
      vertex 5.642801e+00 6.233351e+00 4.684440e+00
    endloop
  endfacet
  facet normal 0.000000e+00 0.000000e+00 1.000000e+00
    outer loop
      vertex 2.294580e+01 6.233351e+00 4.684440e+00
      vertex 2.294580e+01 -5.099979e+00 4.684440e+00
      vertex 3.113460e+01 -1.161665e+01 4.684440e+00
    endloop
  endfacet
  facet normal 0.000000e+00 0.000000e+00 1.000000e+00
    outer loop
      vertex 3.113460e+01 1.161665e+01 4.684440e+00
      vertex 5.642801e+00 6.233351e+00 4.684440e+00
      vertex 1.374820e+01 6.233351e+00 4.684440e+00
    endloop
  endfacet
  facet normal 0.000000e+00 0.000000e+00 1.000000e+00
    outer loop
      vertex 3.113460e+01 1.161665e+01 4.684440e+00
      vertex 2.294580e+01 6.233351e+00 4.684440e+00
      vertex 3.113460e+01 -1.161665e+01 4.684440e+00
    endloop
  endfacet
  facet normal 0.000000e+00 0.000000e+00 1.000000e+00
    outer loop
      vertex 3.113460e+01 1.161665e+01 4.684440e+00
      vertex 1.374820e+01 6.233351e+00 4.684440e+00
      vertex 2.294580e+01 6.233351e+00 4.684440e+00
    endloop
  endfacet
  facet normal 0.000000e+00 0.000000e+00 1.000000e+00
    outer loop
      vertex 1.701002e+00 -5.099979e+00 4.684440e+00
      vertex 1.701002e+00 6.233351e+00 4.684440e+00
      vertex -8.911699e+00 6.233351e+00 4.684440e+00
    endloop
  endfacet
  facet normal 0.000000e+00 0.000000e+00 1.000000e+00
    outer loop
      vertex -2.589195e+01 6.233351e+00 4.684440e+00
      vertex -8.911699e+00 6.233351e+00 4.684440e+00
      vertex -3.113460e+01 1.161665e+01 4.684440e+00
    endloop
  endfacet
  facet normal 0.000000e+00 0.000000e+00 1.000000e+00
    outer loop
      vertex -8.911699e+00 6.233351e+00 4.684440e+00
      vertex -8.911699e+00 -5.099979e+00 4.684440e+00
      vertex 1.701002e+00 -5.099979e+00 4.684440e+00
    endloop
  endfacet
  facet normal 1.000000e+00 0.000000e+00 0.000000e+00
    outer loop
      vertex 3.113460e+01 -1.161665e+01 4.684440e+00
      vertex 3.113460e+01 -1.161665e+01 0.000000e+00
      vertex 3.113460e+01 1.161665e+01 0.000000e+00
    endloop
  endfacet
  facet normal 1.000000e+00 0.000000e+00 0.000000e+00
    outer loop
      vertex 3.113460e+01 1.161665e+01 4.684440e+00
      vertex 3.113460e+01 -1.161665e+01 4.684440e+00
      vertex 3.113460e+01 1.161665e+01 0.000000e+00
    endloop
  endfacet
  facet normal 1.000000e+00 0.000000e+00 0.000000e+00
    outer loop
      vertex -2.129958e+01 9.764500e-01 0.000000e+00
      vertex -2.129958e+01 9.764500e-01 5.855560e-01
      vertex -2.129958e+01 -9.763498e-01 5.855560e-01
    endloop
  endfacet
  facet normal 1.000000e+00 0.000000e+00 0.000000e+00
    outer loop
      vertex -2.129958e+01 -9.763498e-01 0.000000e+00
      vertex -2.129958e+01 9.764500e-01 0.000000e+00
      vertex -2.129958e+01 -9.763498e-01 5.855560e-01
    endloop
  endfacet
  facet normal 8.854561e-01 -4.647231e-01 0.000000e+00
    outer loop
      vertex -2.039210e+01 2.705550e+00 0.000000e+00
      vertex -2.039210e+01 2.705550e+00 5.855560e-01
      vertex -2.129958e+01 9.764500e-01 5.855560e-01
    endloop
  endfacet
  facet normal 8.854561e-01 -4.647231e-01 0.000000e+00
    outer loop
      vertex -2.129958e+01 9.764500e-01 0.000000e+00
      vertex -2.039210e+01 2.705550e+00 0.000000e+00
      vertex -2.129958e+01 9.764500e-01 5.855560e-01
    endloop
  endfacet
  facet normal 5.680649e-01 -8.229838e-01 0.000000e+00
    outer loop
      vertex -1.878490e+01 3.814851e+00 0.000000e+00
      vertex -1.878490e+01 3.814851e+00 5.855560e-01
      vertex -2.039210e+01 2.705550e+00 5.855560e-01
    endloop
  endfacet
  facet normal 5.680649e-01 -8.229838e-01 0.000000e+00
    outer loop
      vertex -2.039210e+01 2.705550e+00 0.000000e+00
      vertex -1.878490e+01 3.814851e+00 0.000000e+00
      vertex -2.039210e+01 2.705550e+00 5.855560e-01
    endloop
  endfacet
  facet normal 1.205370e-01 -9.927089e-01 0.000000e+00
    outer loop
      vertex -1.684640e+01 4.050250e+00 0.000000e+00
      vertex -1.684640e+01 4.050250e+00 5.855560e-01
      vertex -1.878490e+01 3.814851e+00 5.855560e-01
    endloop
  endfacet
  facet normal 1.205370e-01 -9.927089e-01 0.000000e+00
    outer loop
      vertex -1.878490e+01 3.814851e+00 0.000000e+00
      vertex -1.684640e+01 4.050250e+00 0.000000e+00
      vertex -1.878490e+01 3.814851e+00 5.855560e-01
    endloop
  endfacet
  facet normal -3.546051e-01 -9.350162e-01 -0.000000e+00
    outer loop
      vertex -1.502040e+01 3.357750e+00 0.000000e+00
      vertex -1.502040e+01 3.357750e+00 5.855560e-01
      vertex -1.684640e+01 4.050250e+00 5.855560e-01
    endloop
  endfacet
  facet normal -3.546051e-01 -9.350162e-01 -0.000000e+00
    outer loop
      vertex -1.684640e+01 4.050250e+00 0.000000e+00
      vertex -1.502040e+01 3.357750e+00 0.000000e+00
      vertex -1.684640e+01 4.050250e+00 5.855560e-01
    endloop
  endfacet
  facet normal -7.485102e-01 -6.631233e-01 0.000000e+00
    outer loop
      vertex -1.372550e+01 1.896050e+00 5.855560e-01
      vertex -1.502040e+01 3.357750e+00 5.855560e-01
      vertex -1.372550e+01 1.896050e+00 0.000000e+00
    endloop
  endfacet
  facet normal -7.485102e-01 -6.631233e-01 0.000000e+00
    outer loop
      vertex -1.372550e+01 1.896050e+00 0.000000e+00
      vertex -1.502040e+01 3.357750e+00 5.855560e-01
      vertex -1.502040e+01 3.357750e+00 0.000000e+00
    endloop
  endfacet
  facet normal -9.709420e-01 -2.393150e-01 0.000000e+00
    outer loop
      vertex -1.325810e+01 5.054474e-05 5.855560e-01
      vertex -1.372550e+01 1.896050e+00 5.855560e-01
      vertex -1.325810e+01 5.054474e-05 0.000000e+00
    endloop
  endfacet
  facet normal -9.709420e-01 -2.393150e-01 0.000000e+00
    outer loop
      vertex -1.325810e+01 5.054474e-05 0.000000e+00
      vertex -1.372550e+01 1.896050e+00 5.855560e-01
      vertex -1.372550e+01 1.896050e+00 0.000000e+00
    endloop
  endfacet
  facet normal -9.709420e-01 2.393150e-01 0.000000e+00
    outer loop
      vertex -1.325810e+01 5.054474e-05 5.855560e-01
      vertex -1.325810e+01 5.054474e-05 0.000000e+00
      vertex -1.372550e+01 -1.896049e+00 5.855560e-01
    endloop
  endfacet
  facet normal -9.709420e-01 2.393150e-01 0.000000e+00
    outer loop
      vertex -1.372550e+01 -1.896049e+00 5.855560e-01
      vertex -1.325810e+01 5.054474e-05 0.000000e+00
      vertex -1.372550e+01 -1.896049e+00 0.000000e+00
    endloop
  endfacet
  facet normal -7.485102e-01 6.631233e-01 0.000000e+00
    outer loop
      vertex -1.372550e+01 -1.896049e+00 5.855560e-01
      vertex -1.372550e+01 -1.896049e+00 0.000000e+00
      vertex -1.502040e+01 -3.357759e+00 5.855560e-01
    endloop
  endfacet
  facet normal -7.485102e-01 6.631233e-01 0.000000e+00
    outer loop
      vertex -1.502040e+01 -3.357759e+00 5.855560e-01
      vertex -1.372550e+01 -1.896049e+00 0.000000e+00
      vertex -1.502040e+01 -3.357759e+00 0.000000e+00
    endloop
  endfacet
  facet normal -3.546051e-01 9.350162e-01 0.000000e+00
    outer loop
      vertex -1.502040e+01 -3.357759e+00 5.855560e-01
      vertex -1.502040e+01 -3.357759e+00 0.000000e+00
      vertex -1.684640e+01 -4.050240e+00 5.855560e-01
    endloop
  endfacet
  facet normal -3.546051e-01 9.350162e-01 0.000000e+00
    outer loop
      vertex -1.684640e+01 -4.050240e+00 5.855560e-01
      vertex -1.502040e+01 -3.357759e+00 0.000000e+00
      vertex -1.684640e+01 -4.050240e+00 0.000000e+00
    endloop
  endfacet
  facet normal 1.205370e-01 9.927089e-01 0.000000e+00
    outer loop
      vertex -1.684640e+01 -4.050240e+00 5.855560e-01
      vertex -1.684640e+01 -4.050240e+00 0.000000e+00
      vertex -1.878490e+01 -3.814850e+00 5.855560e-01
    endloop
  endfacet
  facet normal 1.205370e-01 9.927089e-01 0.000000e+00
    outer loop
      vertex -1.878490e+01 -3.814850e+00 5.855560e-01
      vertex -1.684640e+01 -4.050240e+00 0.000000e+00
      vertex -1.878490e+01 -3.814850e+00 0.000000e+00
    endloop
  endfacet
  facet normal 5.680649e-01 8.229838e-01 0.000000e+00
    outer loop
      vertex -1.878490e+01 -3.814850e+00 5.855560e-01
      vertex -1.878490e+01 -3.814850e+00 0.000000e+00
      vertex -2.039210e+01 -2.705520e+00 5.855560e-01
    endloop
  endfacet
  facet normal 5.680649e-01 8.229838e-01 0.000000e+00
    outer loop
      vertex -2.039210e+01 -2.705520e+00 5.855560e-01
      vertex -1.878490e+01 -3.814850e+00 0.000000e+00
      vertex -2.039210e+01 -2.705520e+00 0.000000e+00
    endloop
  endfacet
  facet normal 8.854561e-01 4.647231e-01 0.000000e+00
    outer loop
      vertex -2.129958e+01 -9.763498e-01 5.855560e-01
      vertex -2.039210e+01 -2.705520e+00 5.855560e-01
      vertex -2.039210e+01 -2.705520e+00 0.000000e+00
    endloop
  endfacet
  facet normal 8.854561e-01 4.647231e-01 0.000000e+00
    outer loop
      vertex -2.129958e+01 -9.763498e-01 0.000000e+00
      vertex -2.129958e+01 -9.763498e-01 5.855560e-01
      vertex -2.039210e+01 -2.705520e+00 0.000000e+00
    endloop
  endfacet
  facet normal 1.000000e+00 0.000000e+00 0.000000e+00
    outer loop
      vertex -2.589195e+01 6.233351e+00 5.855560e-01
      vertex -2.589195e+01 6.233351e+00 4.684440e+00
      vertex -2.589195e+01 -5.099979e+00 4.684440e+00
    endloop
  endfacet
  facet normal 1.000000e+00 0.000000e+00 0.000000e+00
    outer loop
      vertex -2.589195e+01 -5.099979e+00 5.855560e-01
      vertex -2.589195e+01 6.233351e+00 5.855560e-01
      vertex -2.589195e+01 -5.099979e+00 4.684440e+00
    endloop
  endfacet
  facet normal 0.000000e+00 1.000000e+00 0.000000e+00
    outer loop
      vertex -8.911699e+00 -5.099979e+00 4.684440e+00
      vertex -8.911699e+00 -5.099979e+00 5.855560e-01
      vertex -2.589195e+01 -5.099979e+00 4.684440e+00
    endloop
  endfacet
  facet normal 0.000000e+00 1.000000e+00 0.000000e+00
    outer loop
      vertex -2.589195e+01 -5.099979e+00 4.684440e+00
      vertex -8.911699e+00 -5.099979e+00 5.855560e-01
      vertex -2.589195e+01 -5.099979e+00 5.855560e-01
    endloop
  endfacet
  facet normal -1.000000e+00 0.000000e+00 0.000000e+00
    outer loop
      vertex -8.911699e+00 6.233351e+00 4.684440e+00
      vertex -8.911699e+00 6.233351e+00 5.855560e-01
      vertex -8.911699e+00 -5.099979e+00 4.684440e+00
    endloop
  endfacet
  facet normal -1.000000e+00 0.000000e+00 0.000000e+00
    outer loop
      vertex -8.911699e+00 -5.099979e+00 4.684440e+00
      vertex -8.911699e+00 6.233351e+00 5.855560e-01
      vertex -8.911699e+00 -5.099979e+00 5.855560e-01
    endloop
  endfacet
  facet normal 0.000000e+00 -1.000000e+00 0.000000e+00
    outer loop
      vertex -8.911699e+00 6.233351e+00 5.855560e-01
      vertex -8.911699e+00 6.233351e+00 4.684440e+00
      vertex -2.589195e+01 6.233351e+00 4.684440e+00
    endloop
  endfacet
  facet normal -0.000000e+00 -1.000000e+00 -0.000000e+00
    outer loop
      vertex -2.589195e+01 6.233351e+00 5.855560e-01
      vertex -8.911699e+00 6.233351e+00 5.855560e-01
      vertex -2.589195e+01 6.233351e+00 4.684440e+00
    endloop
  endfacet
  facet normal 1.000000e+00 0.000000e+00 0.000000e+00
    outer loop
      vertex 1.701002e+00 6.233351e+00 5.855560e-01
      vertex 1.701002e+00 6.233351e+00 4.684440e+00
      vertex 1.701002e+00 -5.099979e+00 4.684440e+00
    endloop
  endfacet
  facet normal 1.000000e+00 0.000000e+00 0.000000e+00
    outer loop
      vertex 1.701002e+00 -5.099979e+00 5.855560e-01
      vertex 1.701002e+00 6.233351e+00 5.855560e-01
      vertex 1.701002e+00 -5.099979e+00 4.684440e+00
    endloop
  endfacet
  facet normal 0.000000e+00 1.000000e+00 0.000000e+00
    outer loop
      vertex 5.642801e+00 -5.099979e+00 4.684440e+00
      vertex 5.642801e+00 -5.099979e+00 5.855560e-01
      vertex 1.701002e+00 -5.099979e+00 4.684440e+00
    endloop
  endfacet
  facet normal 0.000000e+00 1.000000e+00 0.000000e+00
    outer loop
      vertex 1.701002e+00 -5.099979e+00 4.684440e+00
      vertex 5.642801e+00 -5.099979e+00 5.855560e-01
      vertex 1.701002e+00 -5.099979e+00 5.855560e-01
    endloop
  endfacet
  facet normal -1.000000e+00 0.000000e+00 0.000000e+00
    outer loop
      vertex 5.642801e+00 6.233351e+00 4.684440e+00
      vertex 5.642801e+00 6.233351e+00 5.855560e-01
      vertex 5.642801e+00 -5.099979e+00 4.684440e+00
    endloop
  endfacet
  facet normal -1.000000e+00 0.000000e+00 0.000000e+00
    outer loop
      vertex 5.642801e+00 -5.099979e+00 4.684440e+00
      vertex 5.642801e+00 6.233351e+00 5.855560e-01
      vertex 5.642801e+00 -5.099979e+00 5.855560e-01
    endloop
  endfacet
  facet normal 0.000000e+00 -1.000000e+00 0.000000e+00
    outer loop
      vertex 5.642801e+00 6.233351e+00 5.855560e-01
      vertex 5.642801e+00 6.233351e+00 4.684440e+00
      vertex 1.701002e+00 6.233351e+00 4.684440e+00
    endloop
  endfacet
  facet normal -0.000000e+00 -1.000000e+00 -0.000000e+00
    outer loop
      vertex 1.701002e+00 6.233351e+00 5.855560e-01
      vertex 5.642801e+00 6.233351e+00 5.855560e-01
      vertex 1.701002e+00 6.233351e+00 4.684440e+00
    endloop
  endfacet
  facet normal 1.000000e+00 0.000000e+00 0.000000e+00
    outer loop
      vertex 1.374820e+01 6.233351e+00 5.855560e-01
      vertex 1.374820e+01 6.233351e+00 4.684440e+00
      vertex 1.374820e+01 -5.099979e+00 4.684440e+00
    endloop
  endfacet
  facet normal 1.000000e+00 0.000000e+00 0.000000e+00
    outer loop
      vertex 1.374820e+01 -5.099979e+00 5.855560e-01
      vertex 1.374820e+01 6.233351e+00 5.855560e-01
      vertex 1.374820e+01 -5.099979e+00 4.684440e+00
    endloop
  endfacet
  facet normal 0.000000e+00 1.000000e+00 0.000000e+00
    outer loop
      vertex 2.294580e+01 -5.099979e+00 4.684440e+00
      vertex 2.294580e+01 -5.099979e+00 5.855560e-01
      vertex 1.374820e+01 -5.099979e+00 4.684440e+00
    endloop
  endfacet
  facet normal 0.000000e+00 1.000000e+00 0.000000e+00
    outer loop
      vertex 1.374820e+01 -5.099979e+00 4.684440e+00
      vertex 2.294580e+01 -5.099979e+00 5.855560e-01
      vertex 1.374820e+01 -5.099979e+00 5.855560e-01
    endloop
  endfacet
  facet normal -1.000000e+00 0.000000e+00 0.000000e+00
    outer loop
      vertex 2.294580e+01 6.233351e+00 4.684440e+00
      vertex 2.294580e+01 6.233351e+00 5.855560e-01
      vertex 2.294580e+01 -5.099979e+00 4.684440e+00
    endloop
  endfacet
  facet normal -1.000000e+00 0.000000e+00 0.000000e+00
    outer loop
      vertex 2.294580e+01 -5.099979e+00 4.684440e+00
      vertex 2.294580e+01 6.233351e+00 5.855560e-01
      vertex 2.294580e+01 -5.099979e+00 5.855560e-01
    endloop
  endfacet
  facet normal 0.000000e+00 -1.000000e+00 0.000000e+00
    outer loop
      vertex 2.294580e+01 6.233351e+00 5.855560e-01
      vertex 2.294580e+01 6.233351e+00 4.684440e+00
      vertex 1.374820e+01 6.233351e+00 4.684440e+00
    endloop
  endfacet
  facet normal -0.000000e+00 -1.000000e+00 -0.000000e+00
    outer loop
      vertex 1.374820e+01 6.233351e+00 5.855560e-01
      vertex 2.294580e+01 6.233351e+00 5.855560e-01
      vertex 1.374820e+01 6.233351e+00 4.684440e+00
    endloop
  endfacet
  facet normal 0.000000e+00 0.000000e+00 1.000000e+00
    outer loop
      vertex -1.878490e+01 3.814851e+00 5.855560e-01
      vertex -8.911699e+00 6.233351e+00 5.855560e-01
      vertex -2.589195e+01 6.233351e+00 5.855560e-01
    endloop
  endfacet
  facet normal 0.000000e+00 0.000000e+00 1.000000e+00
    outer loop
      vertex -1.684640e+01 4.050250e+00 5.855560e-01
      vertex -1.502040e+01 3.357750e+00 5.855560e-01
      vertex -8.911699e+00 6.233351e+00 5.855560e-01
    endloop
  endfacet
  facet normal 0.000000e+00 0.000000e+00 1.000000e+00
    outer loop
      vertex -2.589195e+01 -5.099979e+00 5.855560e-01
      vertex -2.129958e+01 9.764500e-01 5.855560e-01
      vertex -2.589195e+01 6.233351e+00 5.855560e-01
    endloop
  endfacet
  facet normal 0.000000e+00 0.000000e+00 1.000000e+00
    outer loop
      vertex -2.039210e+01 2.705550e+00 5.855560e-01
      vertex -1.878490e+01 3.814851e+00 5.855560e-01
      vertex -2.589195e+01 6.233351e+00 5.855560e-01
    endloop
  endfacet
  facet normal 0.000000e+00 0.000000e+00 1.000000e+00
    outer loop
      vertex -1.684640e+01 4.050250e+00 5.855560e-01
      vertex -8.911699e+00 6.233351e+00 5.855560e-01
      vertex -1.878490e+01 3.814851e+00 5.855560e-01
    endloop
  endfacet
  facet normal 0.000000e+00 0.000000e+00 1.000000e+00
    outer loop
      vertex -1.372550e+01 1.896050e+00 5.855560e-01
      vertex -1.325810e+01 5.054474e-05 5.855560e-01
      vertex -8.911699e+00 -5.099979e+00 5.855560e-01
    endloop
  endfacet
  facet normal 0.000000e+00 0.000000e+00 1.000000e+00
    outer loop
      vertex -1.372550e+01 1.896050e+00 5.855560e-01
      vertex -8.911699e+00 6.233351e+00 5.855560e-01
      vertex -1.502040e+01 3.357750e+00 5.855560e-01
    endloop
  endfacet
  facet normal 0.000000e+00 0.000000e+00 1.000000e+00
    outer loop
      vertex -1.325810e+01 5.054474e-05 5.855560e-01
      vertex -1.372550e+01 -1.896049e+00 5.855560e-01
      vertex -8.911699e+00 -5.099979e+00 5.855560e-01
    endloop
  endfacet
  facet normal 0.000000e+00 0.000000e+00 1.000000e+00
    outer loop
      vertex -8.911699e+00 -5.099979e+00 5.855560e-01
      vertex -8.911699e+00 6.233351e+00 5.855560e-01
      vertex -1.372550e+01 1.896050e+00 5.855560e-01
    endloop
  endfacet
  facet normal 0.000000e+00 0.000000e+00 1.000000e+00
    outer loop
      vertex -1.372550e+01 -1.896049e+00 5.855560e-01
      vertex -1.502040e+01 -3.357759e+00 5.855560e-01
      vertex -8.911699e+00 -5.099979e+00 5.855560e-01
    endloop
  endfacet
  facet normal 0.000000e+00 0.000000e+00 1.000000e+00
    outer loop
      vertex -1.684640e+01 -4.050240e+00 5.855560e-01
      vertex -1.878490e+01 -3.814850e+00 5.855560e-01
      vertex -2.589195e+01 -5.099979e+00 5.855560e-01
    endloop
  endfacet
  facet normal 0.000000e+00 0.000000e+00 1.000000e+00
    outer loop
      vertex -1.684640e+01 -4.050240e+00 5.855560e-01
      vertex -8.911699e+00 -5.099979e+00 5.855560e-01
      vertex -1.502040e+01 -3.357759e+00 5.855560e-01
    endloop
  endfacet
  facet normal 0.000000e+00 0.000000e+00 1.000000e+00
    outer loop
      vertex -2.589195e+01 -5.099979e+00 5.855560e-01
      vertex -8.911699e+00 -5.099979e+00 5.855560e-01
      vertex -1.684640e+01 -4.050240e+00 5.855560e-01
    endloop
  endfacet
  facet normal 0.000000e+00 0.000000e+00 1.000000e+00
    outer loop
      vertex -2.589195e+01 -5.099979e+00 5.855560e-01
      vertex -1.878490e+01 -3.814850e+00 5.855560e-01
      vertex -2.039210e+01 -2.705520e+00 5.855560e-01
    endloop
  endfacet
  facet normal 0.000000e+00 0.000000e+00 1.000000e+00
    outer loop
      vertex -2.589195e+01 -5.099979e+00 5.855560e-01
      vertex -2.129958e+01 -9.763498e-01 5.855560e-01
      vertex -2.129958e+01 9.764500e-01 5.855560e-01
    endloop
  endfacet
  facet normal 0.000000e+00 0.000000e+00 1.000000e+00
    outer loop
      vertex -2.589195e+01 -5.099979e+00 5.855560e-01
      vertex -2.039210e+01 -2.705520e+00 5.855560e-01
      vertex -2.129958e+01 -9.763498e-01 5.855560e-01
    endloop
  endfacet
  facet normal 0.000000e+00 0.000000e+00 1.000000e+00
    outer loop
      vertex -2.129958e+01 9.764500e-01 5.855560e-01
      vertex -2.039210e+01 2.705550e+00 5.855560e-01
      vertex -2.589195e+01 6.233351e+00 5.855560e-01
    endloop
  endfacet
  facet normal 0.000000e+00 0.000000e+00 1.000000e+00
    outer loop
      vertex 5.642801e+00 -5.099979e+00 5.855560e-01
      vertex 5.642801e+00 6.233351e+00 5.855560e-01
      vertex 1.701002e+00 6.233351e+00 5.855560e-01
    endloop
  endfacet
  facet normal 0.000000e+00 0.000000e+00 1.000000e+00
    outer loop
      vertex 1.701002e+00 -5.099979e+00 5.855560e-01
      vertex 5.642801e+00 -5.099979e+00 5.855560e-01
      vertex 1.701002e+00 6.233351e+00 5.855560e-01
    endloop
  endfacet
  facet normal 0.000000e+00 0.000000e+00 1.000000e+00
    outer loop
      vertex 2.294580e+01 -5.099979e+00 5.855560e-01
      vertex 2.294580e+01 6.233351e+00 5.855560e-01
      vertex 1.374820e+01 6.233351e+00 5.855560e-01
    endloop
  endfacet
  facet normal 0.000000e+00 0.000000e+00 1.000000e+00
    outer loop
      vertex 1.374820e+01 -5.099979e+00 5.855560e-01
      vertex 2.294580e+01 -5.099979e+00 5.855560e-01
      vertex 1.374820e+01 6.233351e+00 5.855560e-01
    endloop
  endfacet
  facet normal -1.000000e+00 -0.000000e+00 -0.000000e+00
    outer loop
      vertex -2.754752e+01 -7.061520e+00 4.684440e+00
      vertex -2.754752e+01 -7.061520e+00 7.807410e+00
      vertex -2.754752e+01 8.238451e+00 4.684440e+00
    endloop
  endfacet
  facet normal -1.000000e+00 0.000000e+00 0.000000e+00
    outer loop
      vertex -2.754752e+01 8.238451e+00 4.684440e+00
      vertex -2.754752e+01 -7.061520e+00 7.807410e+00
      vertex -2.754752e+01 8.238451e+00 7.807410e+00
    endloop
  endfacet
  facet normal 0.000000e+00 -1.000000e+00 0.000000e+00
    outer loop
      vertex -2.754752e+01 -7.061520e+00 7.807410e+00
      vertex -2.754752e+01 -7.061520e+00 4.684440e+00
      vertex -6.852800e+00 -7.061520e+00 4.684440e+00
    endloop
  endfacet
  facet normal 0.000000e+00 -1.000000e+00 0.000000e+00
    outer loop
      vertex -6.852800e+00 -7.061520e+00 7.807410e+00
      vertex -2.754752e+01 -7.061520e+00 7.807410e+00
      vertex -6.852800e+00 -7.061520e+00 4.684440e+00
    endloop
  endfacet
  facet normal 0.000000e+00 0.000000e+00 -1.000000e+00
    outer loop
      vertex -8.911699e+00 -5.099979e+00 4.684440e+00
      vertex -6.852800e+00 -7.061520e+00 4.684440e+00
      vertex -2.589195e+01 -5.099979e+00 4.684440e+00
    endloop
  endfacet
  facet normal 0.000000e+00 0.000000e+00 -1.000000e+00
    outer loop
      vertex -8.911699e+00 6.233351e+00 4.684440e+00
      vertex -2.754752e+01 8.238451e+00 4.684440e+00
      vertex -6.852800e+00 8.238451e+00 4.684440e+00
    endloop
  endfacet
  facet normal 0.000000e+00 0.000000e+00 -1.000000e+00
    outer loop
      vertex -2.754752e+01 -7.061520e+00 4.684440e+00
      vertex -2.754752e+01 8.238451e+00 4.684440e+00
      vertex -2.589195e+01 6.233351e+00 4.684440e+00
    endloop
  endfacet
  facet normal 0.000000e+00 0.000000e+00 -1.000000e+00
    outer loop
      vertex -2.754752e+01 -7.061520e+00 4.684440e+00
      vertex -2.589195e+01 6.233351e+00 4.684440e+00
      vertex -2.589195e+01 -5.099979e+00 4.684440e+00
    endloop
  endfacet
  facet normal 0.000000e+00 0.000000e+00 -1.000000e+00
    outer loop
      vertex -2.754752e+01 -7.061520e+00 4.684440e+00
      vertex -2.589195e+01 -5.099979e+00 4.684440e+00
      vertex -6.852800e+00 -7.061520e+00 4.684440e+00
    endloop
  endfacet
  facet normal 0.000000e+00 0.000000e+00 -1.000000e+00
    outer loop
      vertex -6.852800e+00 -7.061520e+00 4.684440e+00
      vertex -8.911699e+00 -5.099979e+00 4.684440e+00
      vertex -6.852800e+00 8.238451e+00 4.684440e+00
    endloop
  endfacet
  facet normal 0.000000e+00 0.000000e+00 -1.000000e+00
    outer loop
      vertex -8.911699e+00 -5.099979e+00 4.684440e+00
      vertex -8.911699e+00 6.233351e+00 4.684440e+00
      vertex -6.852800e+00 8.238451e+00 4.684440e+00
    endloop
  endfacet
  facet normal -0.000000e+00 -0.000000e+00 -1.000000e+00
    outer loop
      vertex -2.589195e+01 6.233351e+00 4.684440e+00
      vertex -2.754752e+01 8.238451e+00 4.684440e+00
      vertex -8.911699e+00 6.233351e+00 4.684440e+00
    endloop
  endfacet
  facet normal 0.000000e+00 1.000000e+00 0.000000e+00
    outer loop
      vertex -2.754752e+01 8.238451e+00 4.684440e+00
      vertex -2.754752e+01 8.238451e+00 7.807410e+00
      vertex -6.852800e+00 8.238451e+00 4.684440e+00
    endloop
  endfacet
  facet normal 0.000000e+00 1.000000e+00 0.000000e+00
    outer loop
      vertex -6.852800e+00 8.238451e+00 4.684440e+00
      vertex -2.754752e+01 8.238451e+00 7.807410e+00
      vertex -6.852800e+00 8.238451e+00 7.807410e+00
    endloop
  endfacet
  facet normal 0.000000e+00 0.000000e+00 1.000000e+00
    outer loop
      vertex -2.589195e+01 -5.099979e+00 7.807410e+00
      vertex -2.754752e+01 -7.061520e+00 7.807410e+00
      vertex -6.852800e+00 -7.061520e+00 7.807410e+00
    endloop
  endfacet
  facet normal 0.000000e+00 0.000000e+00 1.000000e+00
    outer loop
      vertex -2.754752e+01 8.238451e+00 7.807410e+00
      vertex -2.754752e+01 -7.061520e+00 7.807410e+00
      vertex -2.589195e+01 -5.099979e+00 7.807410e+00
    endloop
  endfacet
  facet normal 0.000000e+00 0.000000e+00 1.000000e+00
    outer loop
      vertex -2.589195e+01 6.233351e+00 7.807410e+00
      vertex -8.911699e+00 6.233351e+00 7.807410e+00
      vertex -2.754752e+01 8.238451e+00 7.807410e+00
    endloop
  endfacet
  facet normal 0.000000e+00 0.000000e+00 1.000000e+00
    outer loop
      vertex -2.754752e+01 8.238451e+00 7.807410e+00
      vertex -2.589195e+01 -5.099979e+00 7.807410e+00
      vertex -2.589195e+01 6.233351e+00 7.807410e+00
    endloop
  endfacet
  facet normal 0.000000e+00 0.000000e+00 1.000000e+00
    outer loop
      vertex -6.852800e+00 8.238451e+00 7.807410e+00
      vertex -8.911699e+00 6.233351e+00 7.807410e+00
      vertex -6.852800e+00 -7.061520e+00 7.807410e+00
    endloop
  endfacet
  facet normal 0.000000e+00 0.000000e+00 1.000000e+00
    outer loop
      vertex -6.852800e+00 8.238451e+00 7.807410e+00
      vertex -2.754752e+01 8.238451e+00 7.807410e+00
      vertex -8.911699e+00 6.233351e+00 7.807410e+00
    endloop
  endfacet
  facet normal 0.000000e+00 0.000000e+00 1.000000e+00
    outer loop
      vertex -8.911699e+00 6.233351e+00 7.807410e+00
      vertex -8.911699e+00 -5.099979e+00 7.807410e+00
      vertex -6.852800e+00 -7.061520e+00 7.807410e+00
    endloop
  endfacet
  facet normal 0.000000e+00 0.000000e+00 1.000000e+00
    outer loop
      vertex -8.911699e+00 -5.099979e+00 7.807410e+00
      vertex -2.589195e+01 -5.099979e+00 7.807410e+00
      vertex -6.852800e+00 -7.061520e+00 7.807410e+00
    endloop
  endfacet
  facet normal 1.000000e+00 0.000000e+00 0.000000e+00
    outer loop
      vertex -6.852800e+00 -7.061520e+00 7.807410e+00
      vertex -6.852800e+00 -7.061520e+00 4.684440e+00
      vertex -6.852800e+00 8.238451e+00 4.684440e+00
    endloop
  endfacet
  facet normal 1.000000e+00 0.000000e+00 0.000000e+00
    outer loop
      vertex -6.852800e+00 8.238451e+00 7.807410e+00
      vertex -6.852800e+00 -7.061520e+00 7.807410e+00
      vertex -6.852800e+00 8.238451e+00 4.684440e+00
    endloop
  endfacet
  facet normal 1.000000e+00 0.000000e+00 0.000000e+00
    outer loop
      vertex -2.589195e+01 6.233351e+00 4.684440e+00
      vertex -2.589195e+01 6.233351e+00 7.807410e+00
      vertex -2.589195e+01 -5.099979e+00 7.807410e+00
    endloop
  endfacet
  facet normal 1.000000e+00 0.000000e+00 0.000000e+00
    outer loop
      vertex -2.589195e+01 -5.099979e+00 4.684440e+00
      vertex -2.589195e+01 6.233351e+00 4.684440e+00
      vertex -2.589195e+01 -5.099979e+00 7.807410e+00
    endloop
  endfacet
  facet normal 0.000000e+00 -1.000000e+00 0.000000e+00
    outer loop
      vertex -8.911699e+00 6.233351e+00 4.684440e+00
      vertex -8.911699e+00 6.233351e+00 7.807410e+00
      vertex -2.589195e+01 6.233351e+00 7.807410e+00
    endloop
  endfacet
  facet normal -0.000000e+00 -1.000000e+00 -0.000000e+00
    outer loop
      vertex -2.589195e+01 6.233351e+00 4.684440e+00
      vertex -8.911699e+00 6.233351e+00 4.684440e+00
      vertex -2.589195e+01 6.233351e+00 7.807410e+00
    endloop
  endfacet
  facet normal -1.000000e+00 0.000000e+00 0.000000e+00
    outer loop
      vertex -8.911699e+00 6.233351e+00 7.807410e+00
      vertex -8.911699e+00 6.233351e+00 4.684440e+00
      vertex -8.911699e+00 -5.099979e+00 7.807410e+00
    endloop
  endfacet
  facet normal -1.000000e+00 0.000000e+00 0.000000e+00
    outer loop
      vertex -8.911699e+00 -5.099979e+00 7.807410e+00
      vertex -8.911699e+00 6.233351e+00 4.684440e+00
      vertex -8.911699e+00 -5.099979e+00 4.684440e+00
    endloop
  endfacet
  facet normal 0.000000e+00 1.000000e+00 0.000000e+00
    outer loop
      vertex -8.911699e+00 -5.099979e+00 7.807410e+00
      vertex -8.911699e+00 -5.099979e+00 4.684440e+00
      vertex -2.589195e+01 -5.099979e+00 7.807410e+00
    endloop
  endfacet
  facet normal 0.000000e+00 1.000000e+00 0.000000e+00
    outer loop
      vertex -2.589195e+01 -5.099979e+00 7.807410e+00
      vertex -8.911699e+00 -5.099979e+00 4.684440e+00
      vertex -2.589195e+01 -5.099979e+00 4.684440e+00
    endloop
  endfacet
  facet normal -1.000000e+00 -0.000000e+00 -0.000000e+00
    outer loop
      vertex -5.065002e-01 -7.061520e+00 4.684440e+00
      vertex -5.065002e-01 -7.061520e+00 7.807410e+00
      vertex -5.065002e-01 8.238451e+00 4.684440e+00
    endloop
  endfacet
  facet normal -1.000000e+00 0.000000e+00 0.000000e+00
    outer loop
      vertex -5.065002e-01 8.238451e+00 4.684440e+00
      vertex -5.065002e-01 -7.061520e+00 7.807410e+00
      vertex -5.065002e-01 8.238451e+00 7.807410e+00
    endloop
  endfacet
  facet normal 0.000000e+00 -1.000000e+00 0.000000e+00
    outer loop
      vertex -5.065002e-01 -7.061520e+00 7.807410e+00
      vertex -5.065002e-01 -7.061520e+00 4.684440e+00
      vertex 7.550699e+00 -7.061520e+00 4.684440e+00
    endloop
  endfacet
  facet normal 0.000000e+00 -1.000000e+00 0.000000e+00
    outer loop
      vertex 7.550699e+00 -7.061520e+00 7.807410e+00
      vertex -5.065002e-01 -7.061520e+00 7.807410e+00
      vertex 7.550699e+00 -7.061520e+00 4.684440e+00
    endloop
  endfacet
  facet normal 0.000000e+00 0.000000e+00 -1.000000e+00
    outer loop
      vertex 1.701002e+00 6.233351e+00 4.684440e+00
      vertex -5.065002e-01 8.238451e+00 4.684440e+00
      vertex 7.550699e+00 8.238451e+00 4.684440e+00
    endloop
  endfacet
  facet normal 0.000000e+00 0.000000e+00 -1.000000e+00
    outer loop
      vertex 5.642801e+00 6.233351e+00 4.684440e+00
      vertex 1.701002e+00 6.233351e+00 4.684440e+00
      vertex 7.550699e+00 8.238451e+00 4.684440e+00
    endloop
  endfacet
  facet normal 0.000000e+00 0.000000e+00 -1.000000e+00
    outer loop
      vertex -5.065002e-01 -7.061520e+00 4.684440e+00
      vertex -5.065002e-01 8.238451e+00 4.684440e+00
      vertex 1.701002e+00 -5.099979e+00 4.684440e+00
    endloop
  endfacet
  facet normal 0.000000e+00 0.000000e+00 -1.000000e+00
    outer loop
      vertex -5.065002e-01 -7.061520e+00 4.684440e+00
      vertex 1.701002e+00 -5.099979e+00 4.684440e+00
      vertex 7.550699e+00 -7.061520e+00 4.684440e+00
    endloop
  endfacet
  facet normal 0.000000e+00 0.000000e+00 -1.000000e+00
    outer loop
      vertex 5.642801e+00 6.233351e+00 4.684440e+00
      vertex 7.550699e+00 -7.061520e+00 4.684440e+00
      vertex 5.642801e+00 -5.099979e+00 4.684440e+00
    endloop
  endfacet
  facet normal 0.000000e+00 0.000000e+00 -1.000000e+00
    outer loop
      vertex 1.701002e+00 -5.099979e+00 4.684440e+00
      vertex 5.642801e+00 -5.099979e+00 4.684440e+00
      vertex 7.550699e+00 -7.061520e+00 4.684440e+00
    endloop
  endfacet
  facet normal 0.000000e+00 0.000000e+00 -1.000000e+00
    outer loop
      vertex 7.550699e+00 -7.061520e+00 4.684440e+00
      vertex 5.642801e+00 6.233351e+00 4.684440e+00
      vertex 7.550699e+00 8.238451e+00 4.684440e+00
    endloop
  endfacet
  facet normal 0.000000e+00 0.000000e+00 -1.000000e+00
    outer loop
      vertex 1.701002e+00 -5.099979e+00 4.684440e+00
      vertex -5.065002e-01 8.238451e+00 4.684440e+00
      vertex 1.701002e+00 6.233351e+00 4.684440e+00
    endloop
  endfacet
  facet normal 0.000000e+00 1.000000e+00 0.000000e+00
    outer loop
      vertex -5.065002e-01 8.238451e+00 4.684440e+00
      vertex -5.065002e-01 8.238451e+00 7.807410e+00
      vertex 7.550699e+00 8.238451e+00 4.684440e+00
    endloop
  endfacet
  facet normal 0.000000e+00 1.000000e+00 0.000000e+00
    outer loop
      vertex 7.550699e+00 8.238451e+00 4.684440e+00
      vertex -5.065002e-01 8.238451e+00 7.807410e+00
      vertex 7.550699e+00 8.238451e+00 7.807410e+00
    endloop
  endfacet
  facet normal 0.000000e+00 0.000000e+00 1.000000e+00
    outer loop
      vertex 1.701002e+00 -5.099979e+00 7.807410e+00
      vertex -5.065002e-01 -7.061520e+00 7.807410e+00
      vertex 7.550699e+00 -7.061520e+00 7.807410e+00
    endloop
  endfacet
  facet normal 0.000000e+00 0.000000e+00 1.000000e+00
    outer loop
      vertex 5.642801e+00 -5.099979e+00 7.807410e+00
      vertex 1.701002e+00 -5.099979e+00 7.807410e+00
      vertex 7.550699e+00 -7.061520e+00 7.807410e+00
    endloop
  endfacet
  facet normal 0.000000e+00 0.000000e+00 1.000000e+00
    outer loop
      vertex -5.065002e-01 8.238451e+00 7.807410e+00
      vertex -5.065002e-01 -7.061520e+00 7.807410e+00
      vertex 1.701002e+00 -5.099979e+00 7.807410e+00
    endloop
  endfacet
  facet normal 0.000000e+00 0.000000e+00 1.000000e+00
    outer loop
      vertex 7.550699e+00 8.238451e+00 7.807410e+00
      vertex -5.065002e-01 8.238451e+00 7.807410e+00
      vertex 1.701002e+00 6.233351e+00 7.807410e+00
    endloop
  endfacet
  facet normal 0.000000e+00 0.000000e+00 1.000000e+00
    outer loop
      vertex 7.550699e+00 8.238451e+00 7.807410e+00
      vertex 5.642801e+00 6.233351e+00 7.807410e+00
      vertex 7.550699e+00 -7.061520e+00 7.807410e+00
    endloop
  endfacet
  facet normal 0.000000e+00 0.000000e+00 1.000000e+00
    outer loop
      vertex 7.550699e+00 8.238451e+00 7.807410e+00
      vertex 1.701002e+00 6.233351e+00 7.807410e+00
      vertex 5.642801e+00 6.233351e+00 7.807410e+00
    endloop
  endfacet
  facet normal 0.000000e+00 0.000000e+00 1.000000e+00
    outer loop
      vertex 5.642801e+00 6.233351e+00 7.807410e+00
      vertex 5.642801e+00 -5.099979e+00 7.807410e+00
      vertex 7.550699e+00 -7.061520e+00 7.807410e+00
    endloop
  endfacet
  facet normal 0.000000e+00 0.000000e+00 1.000000e+00
    outer loop
      vertex 1.701002e+00 -5.099979e+00 7.807410e+00
      vertex 1.701002e+00 6.233351e+00 7.807410e+00
      vertex -5.065002e-01 8.238451e+00 7.807410e+00
    endloop
  endfacet
  facet normal 1.000000e+00 0.000000e+00 0.000000e+00
    outer loop
      vertex 7.550699e+00 -7.061520e+00 7.807410e+00
      vertex 7.550699e+00 -7.061520e+00 4.684440e+00
      vertex 7.550699e+00 8.238451e+00 4.684440e+00
    endloop
  endfacet
  facet normal 1.000000e+00 0.000000e+00 0.000000e+00
    outer loop
      vertex 7.550699e+00 8.238451e+00 7.807410e+00
      vertex 7.550699e+00 -7.061520e+00 7.807410e+00
      vertex 7.550699e+00 8.238451e+00 4.684440e+00
    endloop
  endfacet
  facet normal 1.000000e+00 0.000000e+00 0.000000e+00
    outer loop
      vertex 1.701002e+00 6.233351e+00 4.684440e+00
      vertex 1.701002e+00 6.233351e+00 7.807410e+00
      vertex 1.701002e+00 -5.099979e+00 7.807410e+00
    endloop
  endfacet
  facet normal 1.000000e+00 0.000000e+00 0.000000e+00
    outer loop
      vertex 1.701002e+00 -5.099979e+00 4.684440e+00
      vertex 1.701002e+00 6.233351e+00 4.684440e+00
      vertex 1.701002e+00 -5.099979e+00 7.807410e+00
    endloop
  endfacet
  facet normal 0.000000e+00 -1.000000e+00 0.000000e+00
    outer loop
      vertex 5.642801e+00 6.233351e+00 4.684440e+00
      vertex 5.642801e+00 6.233351e+00 7.807410e+00
      vertex 1.701002e+00 6.233351e+00 7.807410e+00
    endloop
  endfacet
  facet normal -0.000000e+00 -1.000000e+00 -0.000000e+00
    outer loop
      vertex 1.701002e+00 6.233351e+00 4.684440e+00
      vertex 5.642801e+00 6.233351e+00 4.684440e+00
      vertex 1.701002e+00 6.233351e+00 7.807410e+00
    endloop
  endfacet
  facet normal -1.000000e+00 0.000000e+00 0.000000e+00
    outer loop
      vertex 5.642801e+00 6.233351e+00 7.807410e+00
      vertex 5.642801e+00 6.233351e+00 4.684440e+00
      vertex 5.642801e+00 -5.099979e+00 7.807410e+00
    endloop
  endfacet
  facet normal -1.000000e+00 0.000000e+00 0.000000e+00
    outer loop
      vertex 5.642801e+00 -5.099979e+00 7.807410e+00
      vertex 5.642801e+00 6.233351e+00 4.684440e+00
      vertex 5.642801e+00 -5.099979e+00 4.684440e+00
    endloop
  endfacet
  facet normal 0.000000e+00 1.000000e+00 0.000000e+00
    outer loop
      vertex 5.642801e+00 -5.099979e+00 7.807410e+00
      vertex 5.642801e+00 -5.099979e+00 4.684440e+00
      vertex 1.701002e+00 -5.099979e+00 7.807410e+00
    endloop
  endfacet
  facet normal 0.000000e+00 1.000000e+00 0.000000e+00
    outer loop
      vertex 1.701002e+00 -5.099979e+00 7.807410e+00
      vertex 5.642801e+00 -5.099979e+00 4.684440e+00
      vertex 1.701002e+00 -5.099979e+00 4.684440e+00
    endloop
  endfacet
  facet normal -1.000000e+00 -0.000000e+00 -0.000000e+00
    outer loop
      vertex 1.145860e+01 -7.061520e+00 4.684440e+00
      vertex 1.145860e+01 -7.061520e+00 7.807410e+00
      vertex 1.145860e+01 8.238451e+00 4.684440e+00
    endloop
  endfacet
  facet normal -1.000000e+00 0.000000e+00 0.000000e+00
    outer loop
      vertex 1.145860e+01 8.238451e+00 4.684440e+00
      vertex 1.145860e+01 -7.061520e+00 7.807410e+00
      vertex 1.145860e+01 8.238451e+00 7.807410e+00
    endloop
  endfacet
  facet normal 0.000000e+00 -1.000000e+00 0.000000e+00
    outer loop
      vertex 1.145860e+01 -7.061520e+00 7.807410e+00
      vertex 1.145860e+01 -7.061520e+00 4.684440e+00
      vertex 2.525510e+01 -7.061520e+00 4.684440e+00
    endloop
  endfacet
  facet normal 0.000000e+00 -1.000000e+00 0.000000e+00
    outer loop
      vertex 2.525510e+01 -7.061520e+00 7.807410e+00
      vertex 1.145860e+01 -7.061520e+00 7.807410e+00
      vertex 2.525510e+01 -7.061520e+00 4.684440e+00
    endloop
  endfacet
  facet normal 0.000000e+00 0.000000e+00 -1.000000e+00
    outer loop
      vertex 1.374820e+01 6.233351e+00 4.684440e+00
      vertex 1.145860e+01 8.238451e+00 4.684440e+00
      vertex 2.525510e+01 8.238451e+00 4.684440e+00
    endloop
  endfacet
  facet normal 0.000000e+00 0.000000e+00 -1.000000e+00
    outer loop
      vertex 2.294580e+01 6.233351e+00 4.684440e+00
      vertex 1.374820e+01 6.233351e+00 4.684440e+00
      vertex 2.525510e+01 8.238451e+00 4.684440e+00
    endloop
  endfacet
  facet normal 0.000000e+00 0.000000e+00 -1.000000e+00
    outer loop
      vertex 1.145860e+01 -7.061520e+00 4.684440e+00
      vertex 1.145860e+01 8.238451e+00 4.684440e+00
      vertex 1.374820e+01 -5.099979e+00 4.684440e+00
    endloop
  endfacet
  facet normal 0.000000e+00 0.000000e+00 -1.000000e+00
    outer loop
      vertex 1.145860e+01 -7.061520e+00 4.684440e+00
      vertex 1.374820e+01 -5.099979e+00 4.684440e+00
      vertex 2.525510e+01 -7.061520e+00 4.684440e+00
    endloop
  endfacet
  facet normal 0.000000e+00 0.000000e+00 -1.000000e+00
    outer loop
      vertex 2.294580e+01 6.233351e+00 4.684440e+00
      vertex 2.525510e+01 -7.061520e+00 4.684440e+00
      vertex 2.294580e+01 -5.099979e+00 4.684440e+00
    endloop
  endfacet
  facet normal 0.000000e+00 0.000000e+00 -1.000000e+00
    outer loop
      vertex 1.374820e+01 -5.099979e+00 4.684440e+00
      vertex 2.294580e+01 -5.099979e+00 4.684440e+00
      vertex 2.525510e+01 -7.061520e+00 4.684440e+00
    endloop
  endfacet
  facet normal 0.000000e+00 0.000000e+00 -1.000000e+00
    outer loop
      vertex 2.525510e+01 -7.061520e+00 4.684440e+00
      vertex 2.294580e+01 6.233351e+00 4.684440e+00
      vertex 2.525510e+01 8.238451e+00 4.684440e+00
    endloop
  endfacet
  facet normal 0.000000e+00 0.000000e+00 -1.000000e+00
    outer loop
      vertex 1.374820e+01 -5.099979e+00 4.684440e+00
      vertex 1.145860e+01 8.238451e+00 4.684440e+00
      vertex 1.374820e+01 6.233351e+00 4.684440e+00
    endloop
  endfacet
  facet normal 0.000000e+00 1.000000e+00 0.000000e+00
    outer loop
      vertex 1.145860e+01 8.238451e+00 4.684440e+00
      vertex 1.145860e+01 8.238451e+00 7.807410e+00
      vertex 2.525510e+01 8.238451e+00 4.684440e+00
    endloop
  endfacet
  facet normal 0.000000e+00 1.000000e+00 0.000000e+00
    outer loop
      vertex 2.525510e+01 8.238451e+00 4.684440e+00
      vertex 1.145860e+01 8.238451e+00 7.807410e+00
      vertex 2.525510e+01 8.238451e+00 7.807410e+00
    endloop
  endfacet
  facet normal 0.000000e+00 0.000000e+00 1.000000e+00
    outer loop
      vertex 1.374820e+01 -5.099979e+00 7.807410e+00
      vertex 1.145860e+01 -7.061520e+00 7.807410e+00
      vertex 2.525510e+01 -7.061520e+00 7.807410e+00
    endloop
  endfacet
  facet normal 0.000000e+00 0.000000e+00 1.000000e+00
    outer loop
      vertex 2.294580e+01 -5.099979e+00 7.807410e+00
      vertex 1.374820e+01 -5.099979e+00 7.807410e+00
      vertex 2.525510e+01 -7.061520e+00 7.807410e+00
    endloop
  endfacet
  facet normal 0.000000e+00 0.000000e+00 1.000000e+00
    outer loop
      vertex 1.145860e+01 8.238451e+00 7.807410e+00
      vertex 1.145860e+01 -7.061520e+00 7.807410e+00
      vertex 1.374820e+01 -5.099979e+00 7.807410e+00
    endloop
  endfacet
  facet normal 0.000000e+00 0.000000e+00 1.000000e+00
    outer loop
      vertex 2.525510e+01 8.238451e+00 7.807410e+00
      vertex 1.145860e+01 8.238451e+00 7.807410e+00
      vertex 1.374820e+01 6.233351e+00 7.807410e+00
    endloop
  endfacet
  facet normal 0.000000e+00 0.000000e+00 1.000000e+00
    outer loop
      vertex 2.525510e+01 8.238451e+00 7.807410e+00
      vertex 2.294580e+01 6.233351e+00 7.807410e+00
      vertex 2.525510e+01 -7.061520e+00 7.807410e+00
    endloop
  endfacet
  facet normal 0.000000e+00 0.000000e+00 1.000000e+00
    outer loop
      vertex 2.525510e+01 8.238451e+00 7.807410e+00
      vertex 1.374820e+01 6.233351e+00 7.807410e+00
      vertex 2.294580e+01 6.233351e+00 7.807410e+00
    endloop
  endfacet
  facet normal 0.000000e+00 0.000000e+00 1.000000e+00
    outer loop
      vertex 2.294580e+01 6.233351e+00 7.807410e+00
      vertex 2.294580e+01 -5.099979e+00 7.807410e+00
      vertex 2.525510e+01 -7.061520e+00 7.807410e+00
    endloop
  endfacet
  facet normal 0.000000e+00 0.000000e+00 1.000000e+00
    outer loop
      vertex 1.374820e+01 -5.099979e+00 7.807410e+00
      vertex 1.374820e+01 6.233351e+00 7.807410e+00
      vertex 1.145860e+01 8.238451e+00 7.807410e+00
    endloop
  endfacet
  facet normal 1.000000e+00 0.000000e+00 0.000000e+00
    outer loop
      vertex 2.525510e+01 -7.061520e+00 7.807410e+00
      vertex 2.525510e+01 -7.061520e+00 4.684440e+00
      vertex 2.525510e+01 8.238451e+00 4.684440e+00
    endloop
  endfacet
  facet normal 1.000000e+00 0.000000e+00 0.000000e+00
    outer loop
      vertex 2.525510e+01 8.238451e+00 7.807410e+00
      vertex 2.525510e+01 -7.061520e+00 7.807410e+00
      vertex 2.525510e+01 8.238451e+00 4.684440e+00
    endloop
  endfacet
  facet normal 1.000000e+00 0.000000e+00 0.000000e+00
    outer loop
      vertex 1.374820e+01 6.233351e+00 4.684440e+00
      vertex 1.374820e+01 6.233351e+00 7.807410e+00
      vertex 1.374820e+01 -5.099979e+00 7.807410e+00
    endloop
  endfacet
  facet normal 1.000000e+00 0.000000e+00 0.000000e+00
    outer loop
      vertex 1.374820e+01 -5.099979e+00 4.684440e+00
      vertex 1.374820e+01 6.233351e+00 4.684440e+00
      vertex 1.374820e+01 -5.099979e+00 7.807410e+00
    endloop
  endfacet
  facet normal 0.000000e+00 -1.000000e+00 0.000000e+00
    outer loop
      vertex 2.294580e+01 6.233351e+00 4.684440e+00
      vertex 2.294580e+01 6.233351e+00 7.807410e+00
      vertex 1.374820e+01 6.233351e+00 7.807410e+00
    endloop
  endfacet
  facet normal -0.000000e+00 -1.000000e+00 -0.000000e+00
    outer loop
      vertex 1.374820e+01 6.233351e+00 4.684440e+00
      vertex 2.294580e+01 6.233351e+00 4.684440e+00
      vertex 1.374820e+01 6.233351e+00 7.807410e+00
    endloop
  endfacet
  facet normal -1.000000e+00 0.000000e+00 0.000000e+00
    outer loop
      vertex 2.294580e+01 6.233351e+00 7.807410e+00
      vertex 2.294580e+01 6.233351e+00 4.684440e+00
      vertex 2.294580e+01 -5.099979e+00 7.807410e+00
    endloop
  endfacet
  facet normal -1.000000e+00 0.000000e+00 0.000000e+00
    outer loop
      vertex 2.294580e+01 -5.099979e+00 7.807410e+00
      vertex 2.294580e+01 6.233351e+00 4.684440e+00
      vertex 2.294580e+01 -5.099979e+00 4.684440e+00
    endloop
  endfacet
  facet normal 0.000000e+00 1.000000e+00 0.000000e+00
    outer loop
      vertex 2.294580e+01 -5.099979e+00 7.807410e+00
      vertex 2.294580e+01 -5.099979e+00 4.684440e+00
      vertex 1.374820e+01 -5.099979e+00 7.807410e+00
    endloop
  endfacet
  facet normal 0.000000e+00 1.000000e+00 0.000000e+00
    outer loop
      vertex 1.374820e+01 -5.099979e+00 7.807410e+00
      vertex 2.294580e+01 -5.099979e+00 4.684440e+00
      vertex 1.374820e+01 -5.099979e+00 4.684440e+00
    endloop
  endfacet
endsolid Default
