solid Default
  facet normal -1.000000e+00 -0.000000e+00 -0.000000e+00
    outer loop
      vertex -2.759290e+01 -1.161665e+01 0.000000e+00
      vertex -2.759290e+01 -1.161665e+01 4.684440e+00
      vertex -2.759290e+01 1.161665e+01 0.000000e+00
    endloop
  endfacet
  facet normal -1.000000e+00 0.000000e+00 0.000000e+00
    outer loop
      vertex -2.759290e+01 1.161665e+01 0.000000e+00
      vertex -2.759290e+01 -1.161665e+01 4.684440e+00
      vertex -2.759290e+01 1.161665e+01 4.684440e+00
    endloop
  endfacet
  facet normal 0.000000e+00 -1.000000e+00 0.000000e+00
    outer loop
      vertex -2.759290e+01 -1.161665e+01 4.684440e+00
      vertex -2.759290e+01 -1.161665e+01 0.000000e+00
      vertex 2.759290e+01 -1.161665e+01 0.000000e+00
    endloop
  endfacet
  facet normal 0.000000e+00 -1.000000e+00 0.000000e+00
    outer loop
      vertex 2.759290e+01 -1.161665e+01 4.684440e+00
      vertex -2.759290e+01 -1.161665e+01 4.684440e+00
      vertex 2.759290e+01 -1.161665e+01 0.000000e+00
    endloop
  endfacet
  facet normal -0.000000e+00 -0.000000e+00 -1.000000e+00
    outer loop
      vertex -1.147870e+01 3.357750e+00 0.000000e+00
      vertex -2.759290e+01 1.161665e+01 0.000000e+00
      vertex 2.759290e+01 -1.161665e+01 0.000000e+00
    endloop
  endfacet
  facet normal 0.000000e+00 0.000000e+00 -1.000000e+00
    outer loop
      vertex 1.428830e+01 4.050250e+00 0.000000e+00
      vertex -2.759290e+01 1.161665e+01 0.000000e+00
      vertex 2.759290e+01 1.161665e+01 0.000000e+00
    endloop
  endfacet
  facet normal 0.000000e+00 0.000000e+00 -1.000000e+00
    outer loop
      vertex -2.759290e+01 -1.161665e+01 0.000000e+00
      vertex -2.759290e+01 1.161665e+01 0.000000e+00
      vertex -1.775788e+01 9.764500e-01 0.000000e+00
    endloop
  endfacet
  facet normal 0.000000e+00 0.000000e+00 -1.000000e+00
    outer loop
      vertex -2.759290e+01 -1.161665e+01 0.000000e+00
      vertex -1.775788e+01 9.764500e-01 0.000000e+00
      vertex -1.775788e+01 -9.763498e-01 0.000000e+00
    endloop
  endfacet
  facet normal 0.000000e+00 0.000000e+00 -1.000000e+00
    outer loop
      vertex -2.759290e+01 -1.161665e+01 0.000000e+00
      vertex -1.775788e+01 -9.763498e-01 0.000000e+00
      vertex -1.685040e+01 -2.705520e+00 0.000000e+00
    endloop
  endfacet
  facet normal 0.000000e+00 0.000000e+00 -1.000000e+00
    outer loop
      vertex -2.759290e+01 -1.161665e+01 0.000000e+00
      vertex -1.685040e+01 -2.705520e+00 0.000000e+00
      vertex -1.524320e+01 -3.814850e+00 0.000000e+00
    endloop
  endfacet
  facet normal 0.000000e+00 0.000000e+00 -1.000000e+00
    outer loop
      vertex -2.759290e+01 -1.161665e+01 0.000000e+00
      vertex -1.524320e+01 -3.814850e+00 0.000000e+00
      vertex 2.759290e+01 -1.161665e+01 0.000000e+00
    endloop
  endfacet
  facet normal 0.000000e+00 0.000000e+00 -1.000000e+00
    outer loop
      vertex -1.524320e+01 -3.814850e+00 0.000000e+00
      vertex -1.330470e+01 -4.050240e+00 0.000000e+00
      vertex 2.759290e+01 -1.161665e+01 0.000000e+00
    endloop
  endfacet
  facet normal 0.000000e+00 0.000000e+00 -1.000000e+00
    outer loop
      vertex -1.018380e+01 -1.896049e+00 0.000000e+00
      vertex 2.759290e+01 -1.161665e+01 0.000000e+00
      vertex -1.147870e+01 -3.357759e+00 0.000000e+00
    endloop
  endfacet
  facet normal 0.000000e+00 0.000000e+00 -1.000000e+00
    outer loop
      vertex -9.716400e+00 5.054474e-05 0.000000e+00
      vertex 2.759290e+01 -1.161665e+01 0.000000e+00
      vertex -1.018380e+01 -1.896049e+00 0.000000e+00
    endloop
  endfacet
  facet normal 0.000000e+00 0.000000e+00 -1.000000e+00
    outer loop
      vertex 1.428830e+01 -4.050240e+00 0.000000e+00
      vertex 2.759290e+01 -1.161665e+01 0.000000e+00
      vertex 1.234970e+01 -3.814850e+00 0.000000e+00
    endloop
  endfacet
  facet normal 0.000000e+00 0.000000e+00 -1.000000e+00
    outer loop
      vertex -1.524320e+01 3.814851e+00 0.000000e+00
      vertex -2.759290e+01 1.161665e+01 0.000000e+00
      vertex -1.330470e+01 4.050250e+00 0.000000e+00
    endloop
  endfacet
  facet normal 0.000000e+00 0.000000e+00 -1.000000e+00
    outer loop
      vertex -1.685040e+01 2.705550e+00 0.000000e+00
      vertex -2.759290e+01 1.161665e+01 0.000000e+00
      vertex -1.524320e+01 3.814851e+00 0.000000e+00
    endloop
  endfacet
  facet normal -0.000000e+00 -0.000000e+00 -1.000000e+00
    outer loop
      vertex -9.716400e+00 5.054474e-05 0.000000e+00
      vertex -1.018380e+01 1.896050e+00 0.000000e+00
      vertex 2.759290e+01 -1.161665e+01 0.000000e+00
    endloop
  endfacet
  facet normal -0.000000e+00 -0.000000e+00 -1.000000e+00
    outer loop
      vertex -1.330470e+01 4.050250e+00 0.000000e+00
      vertex -2.759290e+01 1.161665e+01 0.000000e+00
      vertex -1.147870e+01 3.357750e+00 0.000000e+00
    endloop
  endfacet
  facet normal -0.000000e+00 -0.000000e+00 -1.000000e+00
    outer loop
      vertex -1.018380e+01 1.896050e+00 0.000000e+00
      vertex -1.147870e+01 3.357750e+00 0.000000e+00
      vertex 2.759290e+01 -1.161665e+01 0.000000e+00
    endloop
  endfacet
  facet normal 0.000000e+00 0.000000e+00 -1.000000e+00
    outer loop
      vertex -1.775788e+01 9.764500e-01 0.000000e+00
      vertex -2.759290e+01 1.161665e+01 0.000000e+00
      vertex -1.685040e+01 2.705550e+00 0.000000e+00
    endloop
  endfacet
  facet normal 0.000000e+00 0.000000e+00 -1.000000e+00
    outer loop
      vertex 9.834999e+00 -9.763498e-01 0.000000e+00
      vertex -2.759290e+01 1.161665e+01 0.000000e+00
      vertex 9.834999e+00 9.764500e-01 0.000000e+00
    endloop
  endfacet
  facet normal 0.000000e+00 0.000000e+00 -1.000000e+00
    outer loop
      vertex 1.074260e+01 -2.705520e+00 0.000000e+00
      vertex -2.759290e+01 1.161665e+01 0.000000e+00
      vertex 9.834999e+00 -9.763498e-01 0.000000e+00
    endloop
  endfacet
  facet normal 0.000000e+00 0.000000e+00 -1.000000e+00
    outer loop
      vertex 1.234970e+01 -3.814850e+00 0.000000e+00
      vertex -2.759290e+01 1.161665e+01 0.000000e+00
      vertex 1.074260e+01 -2.705520e+00 0.000000e+00
    endloop
  endfacet
  facet normal 0.000000e+00 0.000000e+00 -1.000000e+00
    outer loop
      vertex 2.759290e+01 -1.161665e+01 0.000000e+00
      vertex -2.759290e+01 1.161665e+01 0.000000e+00
      vertex 1.234970e+01 -3.814850e+00 0.000000e+00
    endloop
  endfacet
  facet normal 0.000000e+00 0.000000e+00 -1.000000e+00
    outer loop
      vertex 1.611420e+01 -3.357759e+00 0.000000e+00
      vertex 2.759290e+01 -1.161665e+01 0.000000e+00
      vertex 1.428830e+01 -4.050240e+00 0.000000e+00
    endloop
  endfacet
  facet normal 0.000000e+00 0.000000e+00 -1.000000e+00
    outer loop
      vertex 1.787650e+01 5.054474e-05 0.000000e+00
      vertex 2.759290e+01 1.161665e+01 0.000000e+00
      vertex 1.740910e+01 -1.896049e+00 0.000000e+00
    endloop
  endfacet
  facet normal 0.000000e+00 0.000000e+00 -1.000000e+00
    outer loop
      vertex 2.759290e+01 -1.161665e+01 0.000000e+00
      vertex 1.611420e+01 -3.357759e+00 0.000000e+00
      vertex 1.740910e+01 -1.896049e+00 0.000000e+00
    endloop
  endfacet
  facet normal 0.000000e+00 0.000000e+00 -1.000000e+00
    outer loop
      vertex 2.759290e+01 -1.161665e+01 0.000000e+00
      vertex 1.740910e+01 -1.896049e+00 0.000000e+00
      vertex 2.759290e+01 1.161665e+01 0.000000e+00
    endloop
  endfacet
  facet normal 0.000000e+00 0.000000e+00 -1.000000e+00
    outer loop
      vertex 1.428830e+01 4.050250e+00 0.000000e+00
      vertex 2.759290e+01 1.161665e+01 0.000000e+00
      vertex 1.611420e+01 3.357750e+00 0.000000e+00
    endloop
  endfacet
  facet normal 0.000000e+00 0.000000e+00 -1.000000e+00
    outer loop
      vertex 1.787650e+01 5.054474e-05 0.000000e+00
      vertex 1.740910e+01 1.896050e+00 0.000000e+00
      vertex 2.759290e+01 1.161665e+01 0.000000e+00
    endloop
  endfacet
  facet normal 0.000000e+00 0.000000e+00 -1.000000e+00
    outer loop
      vertex 1.740910e+01 1.896050e+00 0.000000e+00
      vertex 1.611420e+01 3.357750e+00 0.000000e+00
      vertex 2.759290e+01 1.161665e+01 0.000000e+00
    endloop
  endfacet
  facet normal 0.000000e+00 0.000000e+00 -1.000000e+00
    outer loop
      vertex 1.234970e+01 3.814851e+00 0.000000e+00
      vertex -2.759290e+01 1.161665e+01 0.000000e+00
      vertex 1.428830e+01 4.050250e+00 0.000000e+00
    endloop
  endfacet
  facet normal 0.000000e+00 0.000000e+00 -1.000000e+00
    outer loop
      vertex 1.074260e+01 2.705550e+00 0.000000e+00
      vertex -2.759290e+01 1.161665e+01 0.000000e+00
      vertex 1.234970e+01 3.814851e+00 0.000000e+00
    endloop
  endfacet
  facet normal 0.000000e+00 0.000000e+00 -1.000000e+00
    outer loop
      vertex 9.834999e+00 9.764500e-01 0.000000e+00
      vertex -2.759290e+01 1.161665e+01 0.000000e+00
      vertex 1.074260e+01 2.705550e+00 0.000000e+00
    endloop
  endfacet
  facet normal 0.000000e+00 0.000000e+00 -1.000000e+00
    outer loop
      vertex -1.147870e+01 -3.357759e+00 0.000000e+00
      vertex 2.759290e+01 -1.161665e+01 0.000000e+00
      vertex -1.330470e+01 -4.050240e+00 0.000000e+00
    endloop
  endfacet
  facet normal 0.000000e+00 1.000000e+00 0.000000e+00
    outer loop
      vertex -2.759290e+01 1.161665e+01 0.000000e+00
      vertex -2.759290e+01 1.161665e+01 4.684440e+00
      vertex 2.759290e+01 1.161665e+01 0.000000e+00
    endloop
  endfacet
  facet normal 0.000000e+00 1.000000e+00 0.000000e+00
    outer loop
      vertex 2.759290e+01 1.161665e+01 0.000000e+00
      vertex -2.759290e+01 1.161665e+01 4.684440e+00
      vertex 2.759290e+01 1.161665e+01 4.684440e+00
    endloop
  endfacet
  facet normal 0.000000e+00 0.000000e+00 1.000000e+00
    outer loop
      vertex -2.235025e+01 -6.516650e+00 4.684440e+00
      vertex -2.759290e+01 -1.161665e+01 4.684440e+00
      vertex 2.759290e+01 -1.161665e+01 4.684440e+00
    endloop
  endfacet
  facet normal 0.000000e+00 0.000000e+00 1.000000e+00
    outer loop
      vertex -5.369999e+00 -6.516650e+00 4.684440e+00
      vertex -2.235025e+01 -6.516650e+00 4.684440e+00
      vertex 2.759290e+01 -1.161665e+01 4.684440e+00
    endloop
  endfacet
  facet normal 0.000000e+00 0.000000e+00 1.000000e+00
    outer loop
      vertex -2.759290e+01 1.161665e+01 4.684440e+00
      vertex -2.759290e+01 -1.161665e+01 4.684440e+00
      vertex -2.235025e+01 -6.516650e+00 4.684440e+00
    endloop
  endfacet
  facet normal 0.000000e+00 0.000000e+00 1.000000e+00
    outer loop
      vertex -2.759290e+01 1.161665e+01 4.684440e+00
      vertex -2.235025e+01 -6.516650e+00 4.684440e+00
      vertex -2.235025e+01 4.816650e+00 4.684440e+00
    endloop
  endfacet
  facet normal 0.000000e+00 0.000000e+00 1.000000e+00
    outer loop
      vertex 2.759290e+01 1.161665e+01 4.684440e+00
      vertex -2.759290e+01 1.161665e+01 4.684440e+00
      vertex -5.369999e+00 4.816650e+00 4.684440e+00
    endloop
  endfacet
  facet normal 0.000000e+00 0.000000e+00 1.000000e+00
    outer loop
      vertex 5.242702e+00 -6.516650e+00 4.684440e+00
      vertex -5.369999e+00 -6.516650e+00 4.684440e+00
      vertex 2.759290e+01 -1.161665e+01 4.684440e+00
    endloop
  endfacet
  facet normal 0.000000e+00 0.000000e+00 1.000000e+00
    outer loop
      vertex 5.242702e+00 -6.516650e+00 4.684440e+00
      vertex 5.242702e+00 4.816650e+00 4.684440e+00
      vertex -5.369999e+00 4.816650e+00 4.684440e+00
    endloop
  endfacet
  facet normal 0.000000e+00 0.000000e+00 1.000000e+00
    outer loop
      vertex 2.759290e+01 1.161665e+01 4.684440e+00
      vertex -5.369999e+00 4.816650e+00 4.684440e+00
      vertex 5.242702e+00 4.816650e+00 4.684440e+00
    endloop
  endfacet
  facet normal 0.000000e+00 0.000000e+00 1.000000e+00
    outer loop
      vertex 2.759290e+01 1.161665e+01 4.684440e+00
      vertex 2.222290e+01 4.816650e+00 4.684440e+00
      vertex 2.759290e+01 -1.161665e+01 4.684440e+00
    endloop
  endfacet
  facet normal 0.000000e+00 0.000000e+00 1.000000e+00
    outer loop
      vertex 2.759290e+01 1.161665e+01 4.684440e+00
      vertex 5.242702e+00 4.816650e+00 4.684440e+00
      vertex 2.222290e+01 4.816650e+00 4.684440e+00
    endloop
  endfacet
  facet normal 0.000000e+00 0.000000e+00 1.000000e+00
    outer loop
      vertex 2.222290e+01 4.816650e+00 4.684440e+00
      vertex 2.222290e+01 -6.516650e+00 4.684440e+00
      vertex 2.759290e+01 -1.161665e+01 4.684440e+00
    endloop
  endfacet
  facet normal 0.000000e+00 0.000000e+00 1.000000e+00
    outer loop
      vertex 2.222290e+01 -6.516650e+00 4.684440e+00
      vertex 5.242702e+00 -6.516650e+00 4.684440e+00
      vertex 2.759290e+01 -1.161665e+01 4.684440e+00
    endloop
  endfacet
  facet normal 0.000000e+00 0.000000e+00 1.000000e+00
    outer loop
      vertex -2.235025e+01 4.816650e+00 4.684440e+00
      vertex -5.369999e+00 4.816650e+00 4.684440e+00
      vertex -2.759290e+01 1.161665e+01 4.684440e+00
    endloop
  endfacet
  facet normal 0.000000e+00 0.000000e+00 1.000000e+00
    outer loop
      vertex -5.369999e+00 4.816650e+00 4.684440e+00
      vertex -5.369999e+00 -6.516650e+00 4.684440e+00
      vertex 5.242702e+00 -6.516650e+00 4.684440e+00
    endloop
  endfacet
  facet normal 1.000000e+00 0.000000e+00 0.000000e+00
    outer loop
      vertex 2.759290e+01 -1.161665e+01 4.684440e+00
      vertex 2.759290e+01 -1.161665e+01 0.000000e+00
      vertex 2.759290e+01 1.161665e+01 0.000000e+00
    endloop
  endfacet
  facet normal 1.000000e+00 0.000000e+00 0.000000e+00
    outer loop
      vertex 2.759290e+01 1.161665e+01 4.684440e+00
      vertex 2.759290e+01 -1.161665e+01 4.684440e+00
      vertex 2.759290e+01 1.161665e+01 0.000000e+00
    endloop
  endfacet
  facet normal 1.000000e+00 0.000000e+00 0.000000e+00
    outer loop
      vertex -1.775788e+01 9.764500e-01 0.000000e+00
      vertex -1.775788e+01 9.764500e-01 5.855560e-01
      vertex -1.775788e+01 -9.763498e-01 5.855560e-01
    endloop
  endfacet
  facet normal 1.000000e+00 0.000000e+00 0.000000e+00
    outer loop
      vertex -1.775788e+01 -9.763498e-01 0.000000e+00
      vertex -1.775788e+01 9.764500e-01 0.000000e+00
      vertex -1.775788e+01 -9.763498e-01 5.855560e-01
    endloop
  endfacet
  facet normal 8.854561e-01 -4.647231e-01 0.000000e+00
    outer loop
      vertex -1.685040e+01 2.705550e+00 0.000000e+00
      vertex -1.685040e+01 2.705550e+00 5.855560e-01
      vertex -1.775788e+01 9.764500e-01 5.855560e-01
    endloop
  endfacet
  facet normal 8.854561e-01 -4.647231e-01 0.000000e+00
    outer loop
      vertex -1.775788e+01 9.764500e-01 0.000000e+00
      vertex -1.685040e+01 2.705550e+00 0.000000e+00
      vertex -1.775788e+01 9.764500e-01 5.855560e-01
    endloop
  endfacet
  facet normal 5.680649e-01 -8.229838e-01 0.000000e+00
    outer loop
      vertex -1.524320e+01 3.814851e+00 0.000000e+00
      vertex -1.524320e+01 3.814851e+00 5.855560e-01
      vertex -1.685040e+01 2.705550e+00 5.855560e-01
    endloop
  endfacet
  facet normal 5.680649e-01 -8.229838e-01 0.000000e+00
    outer loop
      vertex -1.685040e+01 2.705550e+00 0.000000e+00
      vertex -1.524320e+01 3.814851e+00 0.000000e+00
      vertex -1.685040e+01 2.705550e+00 5.855560e-01
    endloop
  endfacet
  facet normal 1.205370e-01 -9.927089e-01 0.000000e+00
    outer loop
      vertex -1.330470e+01 4.050250e+00 0.000000e+00
      vertex -1.330470e+01 4.050250e+00 5.855560e-01
      vertex -1.524320e+01 3.814851e+00 5.855560e-01
    endloop
  endfacet
  facet normal 1.205370e-01 -9.927089e-01 0.000000e+00
    outer loop
      vertex -1.524320e+01 3.814851e+00 0.000000e+00
      vertex -1.330470e+01 4.050250e+00 0.000000e+00
      vertex -1.524320e+01 3.814851e+00 5.855560e-01
    endloop
  endfacet
  facet normal -3.546051e-01 -9.350162e-01 -0.000000e+00
    outer loop
      vertex -1.147870e+01 3.357750e+00 0.000000e+00
      vertex -1.147870e+01 3.357750e+00 5.855560e-01
      vertex -1.330470e+01 4.050250e+00 5.855560e-01
    endloop
  endfacet
  facet normal -3.546051e-01 -9.350162e-01 -0.000000e+00
    outer loop
      vertex -1.330470e+01 4.050250e+00 0.000000e+00
      vertex -1.147870e+01 3.357750e+00 0.000000e+00
      vertex -1.330470e+01 4.050250e+00 5.855560e-01
    endloop
  endfacet
  facet normal -7.485102e-01 -6.631233e-01 0.000000e+00
    outer loop
      vertex -1.018380e+01 1.896050e+00 5.855560e-01
      vertex -1.147870e+01 3.357750e+00 5.855560e-01
      vertex -1.018380e+01 1.896050e+00 0.000000e+00
    endloop
  endfacet
  facet normal -7.485102e-01 -6.631233e-01 0.000000e+00
    outer loop
      vertex -1.018380e+01 1.896050e+00 0.000000e+00
      vertex -1.147870e+01 3.357750e+00 5.855560e-01
      vertex -1.147870e+01 3.357750e+00 0.000000e+00
    endloop
  endfacet
  facet normal -9.709420e-01 -2.393150e-01 0.000000e+00
    outer loop
      vertex -9.716400e+00 5.054474e-05 5.855560e-01
      vertex -1.018380e+01 1.896050e+00 5.855560e-01
      vertex -9.716400e+00 5.054474e-05 0.000000e+00
    endloop
  endfacet
  facet normal -9.709420e-01 -2.393150e-01 0.000000e+00
    outer loop
      vertex -9.716400e+00 5.054474e-05 0.000000e+00
      vertex -1.018380e+01 1.896050e+00 5.855560e-01
      vertex -1.018380e+01 1.896050e+00 0.000000e+00
    endloop
  endfacet
  facet normal -9.709420e-01 2.393150e-01 0.000000e+00
    outer loop
      vertex -9.716400e+00 5.054474e-05 5.855560e-01
      vertex -9.716400e+00 5.054474e-05 0.000000e+00
      vertex -1.018380e+01 -1.896049e+00 5.855560e-01
    endloop
  endfacet
  facet normal -9.709420e-01 2.393150e-01 0.000000e+00
    outer loop
      vertex -1.018380e+01 -1.896049e+00 5.855560e-01
      vertex -9.716400e+00 5.054474e-05 0.000000e+00
      vertex -1.018380e+01 -1.896049e+00 0.000000e+00
    endloop
  endfacet
  facet normal -7.485102e-01 6.631233e-01 0.000000e+00
    outer loop
      vertex -1.018380e+01 -1.896049e+00 5.855560e-01
      vertex -1.018380e+01 -1.896049e+00 0.000000e+00
      vertex -1.147870e+01 -3.357759e+00 5.855560e-01
    endloop
  endfacet
  facet normal -7.485102e-01 6.631233e-01 0.000000e+00
    outer loop
      vertex -1.147870e+01 -3.357759e+00 5.855560e-01
      vertex -1.018380e+01 -1.896049e+00 0.000000e+00
      vertex -1.147870e+01 -3.357759e+00 0.000000e+00
    endloop
  endfacet
  facet normal -3.546051e-01 9.350162e-01 0.000000e+00
    outer loop
      vertex -1.147870e+01 -3.357759e+00 5.855560e-01
      vertex -1.147870e+01 -3.357759e+00 0.000000e+00
      vertex -1.330470e+01 -4.050240e+00 5.855560e-01
    endloop
  endfacet
  facet normal -3.546051e-01 9.350162e-01 0.000000e+00
    outer loop
      vertex -1.330470e+01 -4.050240e+00 5.855560e-01
      vertex -1.147870e+01 -3.357759e+00 0.000000e+00
      vertex -1.330470e+01 -4.050240e+00 0.000000e+00
    endloop
  endfacet
  facet normal 1.205370e-01 9.927089e-01 0.000000e+00
    outer loop
      vertex -1.330470e+01 -4.050240e+00 5.855560e-01
      vertex -1.330470e+01 -4.050240e+00 0.000000e+00
      vertex -1.524320e+01 -3.814850e+00 5.855560e-01
    endloop
  endfacet
  facet normal 1.205370e-01 9.927089e-01 0.000000e+00
    outer loop
      vertex -1.524320e+01 -3.814850e+00 5.855560e-01
      vertex -1.330470e+01 -4.050240e+00 0.000000e+00
      vertex -1.524320e+01 -3.814850e+00 0.000000e+00
    endloop
  endfacet
  facet normal 5.680649e-01 8.229838e-01 0.000000e+00
    outer loop
      vertex -1.524320e+01 -3.814850e+00 5.855560e-01
      vertex -1.524320e+01 -3.814850e+00 0.000000e+00
      vertex -1.685040e+01 -2.705520e+00 5.855560e-01
    endloop
  endfacet
  facet normal 5.680649e-01 8.229838e-01 0.000000e+00
    outer loop
      vertex -1.685040e+01 -2.705520e+00 5.855560e-01
      vertex -1.524320e+01 -3.814850e+00 0.000000e+00
      vertex -1.685040e+01 -2.705520e+00 0.000000e+00
    endloop
  endfacet
  facet normal 8.854561e-01 4.647231e-01 0.000000e+00
    outer loop
      vertex -1.775788e+01 -9.763498e-01 5.855560e-01
      vertex -1.685040e+01 -2.705520e+00 5.855560e-01
      vertex -1.685040e+01 -2.705520e+00 0.000000e+00
    endloop
  endfacet
  facet normal 8.854561e-01 4.647231e-01 0.000000e+00
    outer loop
      vertex -1.775788e+01 -9.763498e-01 0.000000e+00
      vertex -1.775788e+01 -9.763498e-01 5.855560e-01
      vertex -1.685040e+01 -2.705520e+00 0.000000e+00
    endloop
  endfacet
  facet normal 1.000000e+00 0.000000e+00 0.000000e+00
    outer loop
      vertex 9.834999e+00 9.764500e-01 0.000000e+00
      vertex 9.834999e+00 9.764500e-01 5.855560e-01
      vertex 9.834999e+00 -9.763498e-01 5.855560e-01
    endloop
  endfacet
  facet normal 1.000000e+00 0.000000e+00 0.000000e+00
    outer loop
      vertex 9.834999e+00 -9.763498e-01 0.000000e+00
      vertex 9.834999e+00 9.764500e-01 0.000000e+00
      vertex 9.834999e+00 -9.763498e-01 5.855560e-01
    endloop
  endfacet
  facet normal 8.854561e-01 -4.647231e-01 0.000000e+00
    outer loop
      vertex 1.074260e+01 2.705550e+00 0.000000e+00
      vertex 1.074260e+01 2.705550e+00 5.855560e-01
      vertex 9.834999e+00 9.764500e-01 5.855560e-01
    endloop
  endfacet
  facet normal 8.854561e-01 -4.647231e-01 0.000000e+00
    outer loop
      vertex 9.834999e+00 9.764500e-01 0.000000e+00
      vertex 1.074260e+01 2.705550e+00 0.000000e+00
      vertex 9.834999e+00 9.764500e-01 5.855560e-01
    endloop
  endfacet
  facet normal 5.680649e-01 -8.229838e-01 0.000000e+00
    outer loop
      vertex 1.234970e+01 3.814851e+00 0.000000e+00
      vertex 1.234970e+01 3.814851e+00 5.855560e-01
      vertex 1.074260e+01 2.705550e+00 5.855560e-01
    endloop
  endfacet
  facet normal 5.680649e-01 -8.229838e-01 0.000000e+00
    outer loop
      vertex 1.074260e+01 2.705550e+00 0.000000e+00
      vertex 1.234970e+01 3.814851e+00 0.000000e+00
      vertex 1.074260e+01 2.705550e+00 5.855560e-01
    endloop
  endfacet
  facet normal 1.205370e-01 -9.927089e-01 0.000000e+00
    outer loop
      vertex 1.428830e+01 4.050250e+00 0.000000e+00
      vertex 1.428830e+01 4.050250e+00 5.855560e-01
      vertex 1.234970e+01 3.814851e+00 5.855560e-01
    endloop
  endfacet
  facet normal 1.205370e-01 -9.927089e-01 0.000000e+00
    outer loop
      vertex 1.234970e+01 3.814851e+00 0.000000e+00
      vertex 1.428830e+01 4.050250e+00 0.000000e+00
      vertex 1.234970e+01 3.814851e+00 5.855560e-01
    endloop
  endfacet
  facet normal -3.546051e-01 -9.350162e-01 -0.000000e+00
    outer loop
      vertex 1.611420e+01 3.357750e+00 0.000000e+00
      vertex 1.611420e+01 3.357750e+00 5.855560e-01
      vertex 1.428830e+01 4.050250e+00 5.855560e-01
    endloop
  endfacet
  facet normal -3.546051e-01 -9.350162e-01 -0.000000e+00
    outer loop
      vertex 1.428830e+01 4.050250e+00 0.000000e+00
      vertex 1.611420e+01 3.357750e+00 0.000000e+00
      vertex 1.428830e+01 4.050250e+00 5.855560e-01
    endloop
  endfacet
  facet normal -7.485102e-01 -6.631233e-01 0.000000e+00
    outer loop
      vertex 1.740910e+01 1.896050e+00 5.855560e-01
      vertex 1.611420e+01 3.357750e+00 5.855560e-01
      vertex 1.740910e+01 1.896050e+00 0.000000e+00
    endloop
  endfacet
  facet normal -7.485102e-01 -6.631233e-01 0.000000e+00
    outer loop
      vertex 1.740910e+01 1.896050e+00 0.000000e+00
      vertex 1.611420e+01 3.357750e+00 5.855560e-01
      vertex 1.611420e+01 3.357750e+00 0.000000e+00
    endloop
  endfacet
  facet normal -9.709420e-01 -2.393150e-01 0.000000e+00
    outer loop
      vertex 1.787650e+01 5.054474e-05 5.855560e-01
      vertex 1.740910e+01 1.896050e+00 5.855560e-01
      vertex 1.787650e+01 5.054474e-05 0.000000e+00
    endloop
  endfacet
  facet normal -9.709420e-01 -2.393150e-01 0.000000e+00
    outer loop
      vertex 1.787650e+01 5.054474e-05 0.000000e+00
      vertex 1.740910e+01 1.896050e+00 5.855560e-01
      vertex 1.740910e+01 1.896050e+00 0.000000e+00
    endloop
  endfacet
  facet normal -9.709420e-01 2.393150e-01 0.000000e+00
    outer loop
      vertex 1.787650e+01 5.054474e-05 5.855560e-01
      vertex 1.787650e+01 5.054474e-05 0.000000e+00
      vertex 1.740910e+01 -1.896049e+00 5.855560e-01
    endloop
  endfacet
  facet normal -9.709420e-01 2.393150e-01 0.000000e+00
    outer loop
      vertex 1.740910e+01 -1.896049e+00 5.855560e-01
      vertex 1.787650e+01 5.054474e-05 0.000000e+00
      vertex 1.740910e+01 -1.896049e+00 0.000000e+00
    endloop
  endfacet
  facet normal -7.485102e-01 6.631233e-01 0.000000e+00
    outer loop
      vertex 1.740910e+01 -1.896049e+00 5.855560e-01
      vertex 1.740910e+01 -1.896049e+00 0.000000e+00
      vertex 1.611420e+01 -3.357759e+00 5.855560e-01
    endloop
  endfacet
  facet normal -7.485102e-01 6.631233e-01 0.000000e+00
    outer loop
      vertex 1.611420e+01 -3.357759e+00 5.855560e-01
      vertex 1.740910e+01 -1.896049e+00 0.000000e+00
      vertex 1.611420e+01 -3.357759e+00 0.000000e+00
    endloop
  endfacet
  facet normal -3.546051e-01 9.350162e-01 0.000000e+00
    outer loop
      vertex 1.611420e+01 -3.357759e+00 5.855560e-01
      vertex 1.611420e+01 -3.357759e+00 0.000000e+00
      vertex 1.428830e+01 -4.050240e+00 5.855560e-01
    endloop
  endfacet
  facet normal -3.546051e-01 9.350162e-01 0.000000e+00
    outer loop
      vertex 1.428830e+01 -4.050240e+00 5.855560e-01
      vertex 1.611420e+01 -3.357759e+00 0.000000e+00
      vertex 1.428830e+01 -4.050240e+00 0.000000e+00
    endloop
  endfacet
  facet normal 1.205370e-01 9.927089e-01 0.000000e+00
    outer loop
      vertex 1.428830e+01 -4.050240e+00 5.855560e-01
      vertex 1.428830e+01 -4.050240e+00 0.000000e+00
      vertex 1.234970e+01 -3.814850e+00 5.855560e-01
    endloop
  endfacet
  facet normal 1.205370e-01 9.927089e-01 0.000000e+00
    outer loop
      vertex 1.234970e+01 -3.814850e+00 5.855560e-01
      vertex 1.428830e+01 -4.050240e+00 0.000000e+00
      vertex 1.234970e+01 -3.814850e+00 0.000000e+00
    endloop
  endfacet
  facet normal 5.680649e-01 8.229838e-01 0.000000e+00
    outer loop
      vertex 1.234970e+01 -3.814850e+00 5.855560e-01
      vertex 1.234970e+01 -3.814850e+00 0.000000e+00
      vertex 1.074260e+01 -2.705520e+00 5.855560e-01
    endloop
  endfacet
  facet normal 5.680649e-01 8.229838e-01 0.000000e+00
    outer loop
      vertex 1.074260e+01 -2.705520e+00 5.855560e-01
      vertex 1.234970e+01 -3.814850e+00 0.000000e+00
      vertex 1.074260e+01 -2.705520e+00 0.000000e+00
    endloop
  endfacet
  facet normal 8.854561e-01 4.647231e-01 0.000000e+00
    outer loop
      vertex 9.834999e+00 -9.763498e-01 5.855560e-01
      vertex 1.074260e+01 -2.705520e+00 5.855560e-01
      vertex 1.074260e+01 -2.705520e+00 0.000000e+00
    endloop
  endfacet
  facet normal 8.854561e-01 4.647231e-01 0.000000e+00
    outer loop
      vertex 9.834999e+00 -9.763498e-01 0.000000e+00
      vertex 9.834999e+00 -9.763498e-01 5.855560e-01
      vertex 1.074260e+01 -2.705520e+00 0.000000e+00
    endloop
  endfacet
  facet normal 1.000000e+00 0.000000e+00 0.000000e+00
    outer loop
      vertex -2.235025e+01 4.816650e+00 5.855560e-01
      vertex -2.235025e+01 4.816650e+00 4.684440e+00
      vertex -2.235025e+01 -6.516650e+00 4.684440e+00
    endloop
  endfacet
  facet normal 1.000000e+00 0.000000e+00 0.000000e+00
    outer loop
      vertex -2.235025e+01 -6.516650e+00 5.855560e-01
      vertex -2.235025e+01 4.816650e+00 5.855560e-01
      vertex -2.235025e+01 -6.516650e+00 4.684440e+00
    endloop
  endfacet
  facet normal 0.000000e+00 1.000000e+00 0.000000e+00
    outer loop
      vertex -5.369999e+00 -6.516650e+00 4.684440e+00
      vertex -5.369999e+00 -6.516650e+00 5.855560e-01
      vertex -2.235025e+01 -6.516650e+00 4.684440e+00
    endloop
  endfacet
  facet normal 0.000000e+00 1.000000e+00 0.000000e+00
    outer loop
      vertex -2.235025e+01 -6.516650e+00 4.684440e+00
      vertex -5.369999e+00 -6.516650e+00 5.855560e-01
      vertex -2.235025e+01 -6.516650e+00 5.855560e-01
    endloop
  endfacet
  facet normal -1.000000e+00 0.000000e+00 0.000000e+00
    outer loop
      vertex -5.369999e+00 4.816650e+00 4.684440e+00
      vertex -5.369999e+00 4.816650e+00 5.855560e-01
      vertex -5.369999e+00 -6.516650e+00 4.684440e+00
    endloop
  endfacet
  facet normal -1.000000e+00 0.000000e+00 0.000000e+00
    outer loop
      vertex -5.369999e+00 -6.516650e+00 4.684440e+00
      vertex -5.369999e+00 4.816650e+00 5.855560e-01
      vertex -5.369999e+00 -6.516650e+00 5.855560e-01
    endloop
  endfacet
  facet normal 0.000000e+00 -1.000000e+00 0.000000e+00
    outer loop
      vertex -5.369999e+00 4.816650e+00 5.855560e-01
      vertex -5.369999e+00 4.816650e+00 4.684440e+00
      vertex -2.235025e+01 4.816650e+00 4.684440e+00
    endloop
  endfacet
  facet normal -0.000000e+00 -1.000000e+00 -0.000000e+00
    outer loop
      vertex -2.235025e+01 4.816650e+00 5.855560e-01
      vertex -5.369999e+00 4.816650e+00 5.855560e-01
      vertex -2.235025e+01 4.816650e+00 4.684440e+00
    endloop
  endfacet
  facet normal 1.000000e+00 0.000000e+00 0.000000e+00
    outer loop
      vertex 5.242702e+00 4.816650e+00 5.855560e-01
      vertex 5.242702e+00 4.816650e+00 4.684440e+00
      vertex 5.242702e+00 -6.516650e+00 4.684440e+00
    endloop
  endfacet
  facet normal 1.000000e+00 0.000000e+00 0.000000e+00
    outer loop
      vertex 5.242702e+00 -6.516650e+00 5.855560e-01
      vertex 5.242702e+00 4.816650e+00 5.855560e-01
      vertex 5.242702e+00 -6.516650e+00 4.684440e+00
    endloop
  endfacet
  facet normal 0.000000e+00 1.000000e+00 0.000000e+00
    outer loop
      vertex 2.222290e+01 -6.516650e+00 4.684440e+00
      vertex 2.222290e+01 -6.516650e+00 5.855560e-01
      vertex 5.242702e+00 -6.516650e+00 4.684440e+00
    endloop
  endfacet
  facet normal 0.000000e+00 1.000000e+00 0.000000e+00
    outer loop
      vertex 5.242702e+00 -6.516650e+00 4.684440e+00
      vertex 2.222290e+01 -6.516650e+00 5.855560e-01
      vertex 5.242702e+00 -6.516650e+00 5.855560e-01
    endloop
  endfacet
  facet normal -1.000000e+00 0.000000e+00 0.000000e+00
    outer loop
      vertex 2.222290e+01 4.816650e+00 4.684440e+00
      vertex 2.222290e+01 4.816650e+00 5.855560e-01
      vertex 2.222290e+01 -6.516650e+00 4.684440e+00
    endloop
  endfacet
  facet normal -1.000000e+00 0.000000e+00 0.000000e+00
    outer loop
      vertex 2.222290e+01 -6.516650e+00 4.684440e+00
      vertex 2.222290e+01 4.816650e+00 5.855560e-01
      vertex 2.222290e+01 -6.516650e+00 5.855560e-01
    endloop
  endfacet
  facet normal 0.000000e+00 -1.000000e+00 0.000000e+00
    outer loop
      vertex 2.222290e+01 4.816650e+00 5.855560e-01
      vertex 2.222290e+01 4.816650e+00 4.684440e+00
      vertex 5.242702e+00 4.816650e+00 4.684440e+00
    endloop
  endfacet
  facet normal -0.000000e+00 -1.000000e+00 -0.000000e+00
    outer loop
      vertex 5.242702e+00 4.816650e+00 5.855560e-01
      vertex 2.222290e+01 4.816650e+00 5.855560e-01
      vertex 5.242702e+00 4.816650e+00 4.684440e+00
    endloop
  endfacet
  facet normal 0.000000e+00 0.000000e+00 1.000000e+00
    outer loop
      vertex -1.330470e+01 4.050250e+00 5.855560e-01
      vertex -5.369999e+00 4.816650e+00 5.855560e-01
      vertex -2.235025e+01 4.816650e+00 5.855560e-01
    endloop
  endfacet
  facet normal 0.000000e+00 0.000000e+00 1.000000e+00
    outer loop
      vertex -2.235025e+01 -6.516650e+00 5.855560e-01
      vertex -1.775788e+01 9.764500e-01 5.855560e-01
      vertex -2.235025e+01 4.816650e+00 5.855560e-01
    endloop
  endfacet
  facet normal 0.000000e+00 0.000000e+00 1.000000e+00
    outer loop
      vertex -1.685040e+01 2.705550e+00 5.855560e-01
      vertex -1.524320e+01 3.814851e+00 5.855560e-01
      vertex -2.235025e+01 4.816650e+00 5.855560e-01
    endloop
  endfacet
  facet normal 0.000000e+00 0.000000e+00 1.000000e+00
    outer loop
      vertex -1.018380e+01 1.896050e+00 5.855560e-01
      vertex -9.716400e+00 5.054474e-05 5.855560e-01
      vertex -5.369999e+00 -6.516650e+00 5.855560e-01
    endloop
  endfacet
  facet normal 0.000000e+00 0.000000e+00 1.000000e+00
    outer loop
      vertex -1.524320e+01 3.814851e+00 5.855560e-01
      vertex -1.330470e+01 4.050250e+00 5.855560e-01
      vertex -2.235025e+01 4.816650e+00 5.855560e-01
    endloop
  endfacet
  facet normal 0.000000e+00 0.000000e+00 1.000000e+00
    outer loop
      vertex -1.018380e+01 -1.896049e+00 5.855560e-01
      vertex -1.147870e+01 -3.357759e+00 5.855560e-01
      vertex -5.369999e+00 -6.516650e+00 5.855560e-01
    endloop
  endfacet
  facet normal 0.000000e+00 0.000000e+00 1.000000e+00
    outer loop
      vertex -1.018380e+01 1.896050e+00 5.855560e-01
      vertex -5.369999e+00 4.816650e+00 5.855560e-01
      vertex -1.147870e+01 3.357750e+00 5.855560e-01
    endloop
  endfacet
  facet normal 0.000000e+00 0.000000e+00 1.000000e+00
    outer loop
      vertex -5.369999e+00 -6.516650e+00 5.855560e-01
      vertex -5.369999e+00 4.816650e+00 5.855560e-01
      vertex -1.018380e+01 1.896050e+00 5.855560e-01
    endloop
  endfacet
  facet normal 0.000000e+00 0.000000e+00 1.000000e+00
    outer loop
      vertex -5.369999e+00 -6.516650e+00 5.855560e-01
      vertex -9.716400e+00 5.054474e-05 5.855560e-01
      vertex -1.018380e+01 -1.896049e+00 5.855560e-01
    endloop
  endfacet
  facet normal 0.000000e+00 0.000000e+00 1.000000e+00
    outer loop
      vertex -1.330470e+01 -4.050240e+00 5.855560e-01
      vertex -5.369999e+00 -6.516650e+00 5.855560e-01
      vertex -1.147870e+01 -3.357759e+00 5.855560e-01
    endloop
  endfacet
  facet normal 0.000000e+00 0.000000e+00 1.000000e+00
    outer loop
      vertex -2.235025e+01 -6.516650e+00 5.855560e-01
      vertex -5.369999e+00 -6.516650e+00 5.855560e-01
      vertex -1.330470e+01 -4.050240e+00 5.855560e-01
    endloop
  endfacet
  facet normal 0.000000e+00 0.000000e+00 1.000000e+00
    outer loop
      vertex -2.235025e+01 -6.516650e+00 5.855560e-01
      vertex -1.524320e+01 -3.814850e+00 5.855560e-01
      vertex -1.685040e+01 -2.705520e+00 5.855560e-01
    endloop
  endfacet
  facet normal 0.000000e+00 0.000000e+00 1.000000e+00
    outer loop
      vertex -2.235025e+01 -6.516650e+00 5.855560e-01
      vertex -1.775788e+01 -9.763498e-01 5.855560e-01
      vertex -1.775788e+01 9.764500e-01 5.855560e-01
    endloop
  endfacet
  facet normal 0.000000e+00 0.000000e+00 1.000000e+00
    outer loop
      vertex -2.235025e+01 -6.516650e+00 5.855560e-01
      vertex -1.685040e+01 -2.705520e+00 5.855560e-01
      vertex -1.775788e+01 -9.763498e-01 5.855560e-01
    endloop
  endfacet
  facet normal 0.000000e+00 0.000000e+00 1.000000e+00
    outer loop
      vertex -1.330470e+01 -4.050240e+00 5.855560e-01
      vertex -1.524320e+01 -3.814850e+00 5.855560e-01
      vertex -2.235025e+01 -6.516650e+00 5.855560e-01
    endloop
  endfacet
  facet normal 0.000000e+00 0.000000e+00 1.000000e+00
    outer loop
      vertex -1.775788e+01 9.764500e-01 5.855560e-01
      vertex -1.685040e+01 2.705550e+00 5.855560e-01
      vertex -2.235025e+01 4.816650e+00 5.855560e-01
    endloop
  endfacet
  facet normal 0.000000e+00 0.000000e+00 1.000000e+00
    outer loop
      vertex -1.330470e+01 4.050250e+00 5.855560e-01
      vertex -1.147870e+01 3.357750e+00 5.855560e-01
      vertex -5.369999e+00 4.816650e+00 5.855560e-01
    endloop
  endfacet
  facet normal 0.000000e+00 0.000000e+00 1.000000e+00
    outer loop
      vertex 1.428830e+01 4.050250e+00 5.855560e-01
      vertex 2.222290e+01 4.816650e+00 5.855560e-01
      vertex 5.242702e+00 4.816650e+00 5.855560e-01
    endloop
  endfacet
  facet normal 0.000000e+00 0.000000e+00 1.000000e+00
    outer loop
      vertex 5.242702e+00 -6.516650e+00 5.855560e-01
      vertex 9.834999e+00 9.764500e-01 5.855560e-01
      vertex 5.242702e+00 4.816650e+00 5.855560e-01
    endloop
  endfacet
  facet normal 0.000000e+00 0.000000e+00 1.000000e+00
    outer loop
      vertex 1.074260e+01 2.705550e+00 5.855560e-01
      vertex 1.234970e+01 3.814851e+00 5.855560e-01
      vertex 5.242702e+00 4.816650e+00 5.855560e-01
    endloop
  endfacet
  facet normal 0.000000e+00 0.000000e+00 1.000000e+00
    outer loop
      vertex 1.740910e+01 1.896050e+00 5.855560e-01
      vertex 1.787650e+01 5.054474e-05 5.855560e-01
      vertex 2.222290e+01 -6.516650e+00 5.855560e-01
    endloop
  endfacet
  facet normal 0.000000e+00 0.000000e+00 1.000000e+00
    outer loop
      vertex 1.234970e+01 3.814851e+00 5.855560e-01
      vertex 1.428830e+01 4.050250e+00 5.855560e-01
      vertex 5.242702e+00 4.816650e+00 5.855560e-01
    endloop
  endfacet
  facet normal 0.000000e+00 0.000000e+00 1.000000e+00
    outer loop
      vertex 1.740910e+01 -1.896049e+00 5.855560e-01
      vertex 1.611420e+01 -3.357759e+00 5.855560e-01
      vertex 2.222290e+01 -6.516650e+00 5.855560e-01
    endloop
  endfacet
  facet normal 0.000000e+00 0.000000e+00 1.000000e+00
    outer loop
      vertex 1.740910e+01 1.896050e+00 5.855560e-01
      vertex 2.222290e+01 4.816650e+00 5.855560e-01
      vertex 1.611420e+01 3.357750e+00 5.855560e-01
    endloop
  endfacet
  facet normal 0.000000e+00 0.000000e+00 1.000000e+00
    outer loop
      vertex 2.222290e+01 -6.516650e+00 5.855560e-01
      vertex 2.222290e+01 4.816650e+00 5.855560e-01
      vertex 1.740910e+01 1.896050e+00 5.855560e-01
    endloop
  endfacet
  facet normal 0.000000e+00 0.000000e+00 1.000000e+00
    outer loop
      vertex 2.222290e+01 -6.516650e+00 5.855560e-01
      vertex 1.787650e+01 5.054474e-05 5.855560e-01
      vertex 1.740910e+01 -1.896049e+00 5.855560e-01
    endloop
  endfacet
  facet normal 0.000000e+00 0.000000e+00 1.000000e+00
    outer loop
      vertex 1.428830e+01 -4.050240e+00 5.855560e-01
      vertex 2.222290e+01 -6.516650e+00 5.855560e-01
      vertex 1.611420e+01 -3.357759e+00 5.855560e-01
    endloop
  endfacet
  facet normal 0.000000e+00 0.000000e+00 1.000000e+00
    outer loop
      vertex 5.242702e+00 -6.516650e+00 5.855560e-01
      vertex 2.222290e+01 -6.516650e+00 5.855560e-01
      vertex 1.428830e+01 -4.050240e+00 5.855560e-01
    endloop
  endfacet
  facet normal 0.000000e+00 0.000000e+00 1.000000e+00
    outer loop
      vertex 5.242702e+00 -6.516650e+00 5.855560e-01
      vertex 1.234970e+01 -3.814850e+00 5.855560e-01
      vertex 1.074260e+01 -2.705520e+00 5.855560e-01
    endloop
  endfacet
  facet normal 0.000000e+00 0.000000e+00 1.000000e+00
    outer loop
      vertex 5.242702e+00 -6.516650e+00 5.855560e-01
      vertex 9.834999e+00 -9.763498e-01 5.855560e-01
      vertex 9.834999e+00 9.764500e-01 5.855560e-01
    endloop
  endfacet
  facet normal 0.000000e+00 0.000000e+00 1.000000e+00
    outer loop
      vertex 5.242702e+00 -6.516650e+00 5.855560e-01
      vertex 1.074260e+01 -2.705520e+00 5.855560e-01
      vertex 9.834999e+00 -9.763498e-01 5.855560e-01
    endloop
  endfacet
  facet normal 0.000000e+00 0.000000e+00 1.000000e+00
    outer loop
      vertex 1.428830e+01 -4.050240e+00 5.855560e-01
      vertex 1.234970e+01 -3.814850e+00 5.855560e-01
      vertex 5.242702e+00 -6.516650e+00 5.855560e-01
    endloop
  endfacet
  facet normal 0.000000e+00 0.000000e+00 1.000000e+00
    outer loop
      vertex 9.834999e+00 9.764500e-01 5.855560e-01
      vertex 1.074260e+01 2.705550e+00 5.855560e-01
      vertex 5.242702e+00 4.816650e+00 5.855560e-01
    endloop
  endfacet
  facet normal 0.000000e+00 0.000000e+00 1.000000e+00
    outer loop
      vertex 1.428830e+01 4.050250e+00 5.855560e-01
      vertex 1.611420e+01 3.357750e+00 5.855560e-01
      vertex 2.222290e+01 4.816650e+00 5.855560e-01
    endloop
  endfacet
  facet normal -1.000000e+00 -0.000000e+00 -0.000000e+00
    outer loop
      vertex -2.400582e+01 -8.478190e+00 4.684440e+00
      vertex -2.400582e+01 -8.478190e+00 7.807410e+00
      vertex -2.400582e+01 6.821850e+00 4.684440e+00
    endloop
  endfacet
  facet normal -1.000000e+00 0.000000e+00 0.000000e+00
    outer loop
      vertex -2.400582e+01 6.821850e+00 4.684440e+00
      vertex -2.400582e+01 -8.478190e+00 7.807410e+00
      vertex -2.400582e+01 6.821850e+00 7.807410e+00
    endloop
  endfacet
  facet normal 0.000000e+00 -1.000000e+00 0.000000e+00
    outer loop
      vertex -2.400582e+01 -8.478190e+00 7.807410e+00
      vertex -2.400582e+01 -8.478190e+00 4.684440e+00
      vertex -3.311100e+00 -8.478190e+00 4.684440e+00
    endloop
  endfacet
  facet normal 0.000000e+00 -1.000000e+00 0.000000e+00
    outer loop
      vertex -3.311100e+00 -8.478190e+00 7.807410e+00
      vertex -2.400582e+01 -8.478190e+00 7.807410e+00
      vertex -3.311100e+00 -8.478190e+00 4.684440e+00
    endloop
  endfacet
  facet normal 0.000000e+00 0.000000e+00 -1.000000e+00
    outer loop
      vertex -5.369999e+00 -6.516650e+00 4.684440e+00
      vertex -3.311100e+00 -8.478190e+00 4.684440e+00
      vertex -2.235025e+01 -6.516650e+00 4.684440e+00
    endloop
  endfacet
  facet normal 0.000000e+00 0.000000e+00 -1.000000e+00
    outer loop
      vertex -5.369999e+00 4.816650e+00 4.684440e+00
      vertex -2.400582e+01 6.821850e+00 4.684440e+00
      vertex -3.311100e+00 6.821850e+00 4.684440e+00
    endloop
  endfacet
  facet normal 0.000000e+00 0.000000e+00 -1.000000e+00
    outer loop
      vertex -2.400582e+01 -8.478190e+00 4.684440e+00
      vertex -2.400582e+01 6.821850e+00 4.684440e+00
      vertex -2.235025e+01 4.816650e+00 4.684440e+00
    endloop
  endfacet
  facet normal 0.000000e+00 0.000000e+00 -1.000000e+00
    outer loop
      vertex -2.400582e+01 -8.478190e+00 4.684440e+00
      vertex -2.235025e+01 4.816650e+00 4.684440e+00
      vertex -2.235025e+01 -6.516650e+00 4.684440e+00
    endloop
  endfacet
  facet normal 0.000000e+00 0.000000e+00 -1.000000e+00
    outer loop
      vertex -2.400582e+01 -8.478190e+00 4.684440e+00
      vertex -2.235025e+01 -6.516650e+00 4.684440e+00
      vertex -3.311100e+00 -8.478190e+00 4.684440e+00
    endloop
  endfacet
  facet normal 0.000000e+00 0.000000e+00 -1.000000e+00
    outer loop
      vertex -3.311100e+00 -8.478190e+00 4.684440e+00
      vertex -5.369999e+00 -6.516650e+00 4.684440e+00
      vertex -3.311100e+00 6.821850e+00 4.684440e+00
    endloop
  endfacet
  facet normal 0.000000e+00 0.000000e+00 -1.000000e+00
    outer loop
      vertex -5.369999e+00 -6.516650e+00 4.684440e+00
      vertex -5.369999e+00 4.816650e+00 4.684440e+00
      vertex -3.311100e+00 6.821850e+00 4.684440e+00
    endloop
  endfacet
  facet normal -0.000000e+00 -0.000000e+00 -1.000000e+00
    outer loop
      vertex -2.235025e+01 4.816650e+00 4.684440e+00
      vertex -2.400582e+01 6.821850e+00 4.684440e+00
      vertex -5.369999e+00 4.816650e+00 4.684440e+00
    endloop
  endfacet
  facet normal 0.000000e+00 1.000000e+00 0.000000e+00
    outer loop
      vertex -2.400582e+01 6.821850e+00 4.684440e+00
      vertex -2.400582e+01 6.821850e+00 7.807410e+00
      vertex -3.311100e+00 6.821850e+00 4.684440e+00
    endloop
  endfacet
  facet normal 0.000000e+00 1.000000e+00 0.000000e+00
    outer loop
      vertex -3.311100e+00 6.821850e+00 4.684440e+00
      vertex -2.400582e+01 6.821850e+00 7.807410e+00
      vertex -3.311100e+00 6.821850e+00 7.807410e+00
    endloop
  endfacet
  facet normal 0.000000e+00 0.000000e+00 1.000000e+00
    outer loop
      vertex -2.235025e+01 -6.516650e+00 7.807410e+00
      vertex -2.400582e+01 -8.478190e+00 7.807410e+00
      vertex -3.311100e+00 -8.478190e+00 7.807410e+00
    endloop
  endfacet
  facet normal 0.000000e+00 0.000000e+00 1.000000e+00
    outer loop
      vertex -2.400582e+01 6.821850e+00 7.807410e+00
      vertex -2.400582e+01 -8.478190e+00 7.807410e+00
      vertex -2.235025e+01 -6.516650e+00 7.807410e+00
    endloop
  endfacet
  facet normal 0.000000e+00 0.000000e+00 1.000000e+00
    outer loop
      vertex -2.235025e+01 4.816650e+00 7.807410e+00
      vertex -5.369999e+00 4.816650e+00 7.807410e+00
      vertex -2.400582e+01 6.821850e+00 7.807410e+00
    endloop
  endfacet
  facet normal 0.000000e+00 0.000000e+00 1.000000e+00
    outer loop
      vertex -2.400582e+01 6.821850e+00 7.807410e+00
      vertex -2.235025e+01 -6.516650e+00 7.807410e+00
      vertex -2.235025e+01 4.816650e+00 7.807410e+00
    endloop
  endfacet
  facet normal 0.000000e+00 0.000000e+00 1.000000e+00
    outer loop
      vertex -3.311100e+00 6.821850e+00 7.807410e+00
      vertex -5.369999e+00 4.816650e+00 7.807410e+00
      vertex -3.311100e+00 -8.478190e+00 7.807410e+00
    endloop
  endfacet
  facet normal 0.000000e+00 0.000000e+00 1.000000e+00
    outer loop
      vertex -3.311100e+00 6.821850e+00 7.807410e+00
      vertex -2.400582e+01 6.821850e+00 7.807410e+00
      vertex -5.369999e+00 4.816650e+00 7.807410e+00
    endloop
  endfacet
  facet normal 0.000000e+00 0.000000e+00 1.000000e+00
    outer loop
      vertex -5.369999e+00 4.816650e+00 7.807410e+00
      vertex -5.369999e+00 -6.516650e+00 7.807410e+00
      vertex -3.311100e+00 -8.478190e+00 7.807410e+00
    endloop
  endfacet
  facet normal 0.000000e+00 0.000000e+00 1.000000e+00
    outer loop
      vertex -5.369999e+00 -6.516650e+00 7.807410e+00
      vertex -2.235025e+01 -6.516650e+00 7.807410e+00
      vertex -3.311100e+00 -8.478190e+00 7.807410e+00
    endloop
  endfacet
  facet normal 1.000000e+00 0.000000e+00 0.000000e+00
    outer loop
      vertex -3.311100e+00 -8.478190e+00 7.807410e+00
      vertex -3.311100e+00 -8.478190e+00 4.684440e+00
      vertex -3.311100e+00 6.821850e+00 4.684440e+00
    endloop
  endfacet
  facet normal 1.000000e+00 0.000000e+00 0.000000e+00
    outer loop
      vertex -3.311100e+00 6.821850e+00 7.807410e+00
      vertex -3.311100e+00 -8.478190e+00 7.807410e+00
      vertex -3.311100e+00 6.821850e+00 4.684440e+00
    endloop
  endfacet
  facet normal 1.000000e+00 0.000000e+00 0.000000e+00
    outer loop
      vertex -2.235025e+01 4.816650e+00 4.684440e+00
      vertex -2.235025e+01 4.816650e+00 7.807410e+00
      vertex -2.235025e+01 -6.516650e+00 7.807410e+00
    endloop
  endfacet
  facet normal 1.000000e+00 0.000000e+00 0.000000e+00
    outer loop
      vertex -2.235025e+01 -6.516650e+00 4.684440e+00
      vertex -2.235025e+01 4.816650e+00 4.684440e+00
      vertex -2.235025e+01 -6.516650e+00 7.807410e+00
    endloop
  endfacet
  facet normal 0.000000e+00 -1.000000e+00 0.000000e+00
    outer loop
      vertex -5.369999e+00 4.816650e+00 4.684440e+00
      vertex -5.369999e+00 4.816650e+00 7.807410e+00
      vertex -2.235025e+01 4.816650e+00 7.807410e+00
    endloop
  endfacet
  facet normal -0.000000e+00 -1.000000e+00 -0.000000e+00
    outer loop
      vertex -2.235025e+01 4.816650e+00 4.684440e+00
      vertex -5.369999e+00 4.816650e+00 4.684440e+00
      vertex -2.235025e+01 4.816650e+00 7.807410e+00
    endloop
  endfacet
  facet normal -1.000000e+00 0.000000e+00 0.000000e+00
    outer loop
      vertex -5.369999e+00 4.816650e+00 7.807410e+00
      vertex -5.369999e+00 4.816650e+00 4.684440e+00
      vertex -5.369999e+00 -6.516650e+00 7.807410e+00
    endloop
  endfacet
  facet normal -1.000000e+00 0.000000e+00 0.000000e+00
    outer loop
      vertex -5.369999e+00 -6.516650e+00 7.807410e+00
      vertex -5.369999e+00 4.816650e+00 4.684440e+00
      vertex -5.369999e+00 -6.516650e+00 4.684440e+00
    endloop
  endfacet
  facet normal 0.000000e+00 1.000000e+00 0.000000e+00
    outer loop
      vertex -5.369999e+00 -6.516650e+00 7.807410e+00
      vertex -5.369999e+00 -6.516650e+00 4.684440e+00
      vertex -2.235025e+01 -6.516650e+00 7.807410e+00
    endloop
  endfacet
  facet normal 0.000000e+00 1.000000e+00 0.000000e+00
    outer loop
      vertex -2.235025e+01 -6.516650e+00 7.807410e+00
      vertex -5.369999e+00 -6.516650e+00 4.684440e+00
      vertex -2.235025e+01 -6.516650e+00 4.684440e+00
    endloop
  endfacet
  facet normal -1.000000e+00 -0.000000e+00 -0.000000e+00
    outer loop
      vertex 3.587101e+00 -8.478190e+00 4.684440e+00
      vertex 3.587101e+00 -8.478190e+00 7.807410e+00
      vertex 3.587101e+00 6.821850e+00 4.684440e+00
    endloop
  endfacet
  facet normal -1.000000e+00 0.000000e+00 0.000000e+00
    outer loop
      vertex 3.587101e+00 6.821850e+00 4.684440e+00
      vertex 3.587101e+00 -8.478190e+00 7.807410e+00
      vertex 3.587101e+00 6.821850e+00 7.807410e+00
    endloop
  endfacet
  facet normal 0.000000e+00 -1.000000e+00 0.000000e+00
    outer loop
      vertex 3.587101e+00 -8.478190e+00 7.807410e+00
      vertex 3.587101e+00 -8.478190e+00 4.684440e+00
      vertex 2.428180e+01 -8.478190e+00 4.684440e+00
    endloop
  endfacet
  facet normal 0.000000e+00 -1.000000e+00 0.000000e+00
    outer loop
      vertex 2.428180e+01 -8.478190e+00 7.807410e+00
      vertex 3.587101e+00 -8.478190e+00 7.807410e+00
      vertex 2.428180e+01 -8.478190e+00 4.684440e+00
    endloop
  endfacet
  facet normal 0.000000e+00 0.000000e+00 -1.000000e+00
    outer loop
      vertex 2.222290e+01 -6.516650e+00 4.684440e+00
      vertex 2.428180e+01 -8.478190e+00 4.684440e+00
      vertex 5.242702e+00 -6.516650e+00 4.684440e+00
    endloop
  endfacet
  facet normal 0.000000e+00 0.000000e+00 -1.000000e+00
    outer loop
      vertex 2.222290e+01 4.816650e+00 4.684440e+00
      vertex 3.587101e+00 6.821850e+00 4.684440e+00
      vertex 2.428180e+01 6.821850e+00 4.684440e+00
    endloop
  endfacet
  facet normal 0.000000e+00 0.000000e+00 -1.000000e+00
    outer loop
      vertex 3.587101e+00 -8.478190e+00 4.684440e+00
      vertex 3.587101e+00 6.821850e+00 4.684440e+00
      vertex 5.242702e+00 4.816650e+00 4.684440e+00
    endloop
  endfacet
  facet normal 0.000000e+00 0.000000e+00 -1.000000e+00
    outer loop
      vertex 3.587101e+00 -8.478190e+00 4.684440e+00
      vertex 5.242702e+00 4.816650e+00 4.684440e+00
      vertex 5.242702e+00 -6.516650e+00 4.684440e+00
    endloop
  endfacet
  facet normal 0.000000e+00 0.000000e+00 -1.000000e+00
    outer loop
      vertex 3.587101e+00 -8.478190e+00 4.684440e+00
      vertex 5.242702e+00 -6.516650e+00 4.684440e+00
      vertex 2.428180e+01 -8.478190e+00 4.684440e+00
    endloop
  endfacet
  facet normal 0.000000e+00 0.000000e+00 -1.000000e+00
    outer loop
      vertex 2.428180e+01 -8.478190e+00 4.684440e+00
      vertex 2.222290e+01 -6.516650e+00 4.684440e+00
      vertex 2.428180e+01 6.821850e+00 4.684440e+00
    endloop
  endfacet
  facet normal 0.000000e+00 0.000000e+00 -1.000000e+00
    outer loop
      vertex 2.222290e+01 -6.516650e+00 4.684440e+00
      vertex 2.222290e+01 4.816650e+00 4.684440e+00
      vertex 2.428180e+01 6.821850e+00 4.684440e+00
    endloop
  endfacet
  facet normal -0.000000e+00 -0.000000e+00 -1.000000e+00
    outer loop
      vertex 5.242702e+00 4.816650e+00 4.684440e+00
      vertex 3.587101e+00 6.821850e+00 4.684440e+00
      vertex 2.222290e+01 4.816650e+00 4.684440e+00
    endloop
  endfacet
  facet normal 0.000000e+00 1.000000e+00 0.000000e+00
    outer loop
      vertex 3.587101e+00 6.821850e+00 4.684440e+00
      vertex 3.587101e+00 6.821850e+00 7.807410e+00
      vertex 2.428180e+01 6.821850e+00 4.684440e+00
    endloop
  endfacet
  facet normal 0.000000e+00 1.000000e+00 0.000000e+00
    outer loop
      vertex 2.428180e+01 6.821850e+00 4.684440e+00
      vertex 3.587101e+00 6.821850e+00 7.807410e+00
      vertex 2.428180e+01 6.821850e+00 7.807410e+00
    endloop
  endfacet
  facet normal 0.000000e+00 0.000000e+00 1.000000e+00
    outer loop
      vertex 5.242702e+00 -6.516650e+00 7.807410e+00
      vertex 3.587101e+00 -8.478190e+00 7.807410e+00
      vertex 2.428180e+01 -8.478190e+00 7.807410e+00
    endloop
  endfacet
  facet normal 0.000000e+00 0.000000e+00 1.000000e+00
    outer loop
      vertex 3.587101e+00 6.821850e+00 7.807410e+00
      vertex 3.587101e+00 -8.478190e+00 7.807410e+00
      vertex 5.242702e+00 -6.516650e+00 7.807410e+00
    endloop
  endfacet
  facet normal 0.000000e+00 0.000000e+00 1.000000e+00
    outer loop
      vertex 5.242702e+00 4.816650e+00 7.807410e+00
      vertex 2.222290e+01 4.816650e+00 7.807410e+00
      vertex 3.587101e+00 6.821850e+00 7.807410e+00
    endloop
  endfacet
  facet normal 0.000000e+00 0.000000e+00 1.000000e+00
    outer loop
      vertex 3.587101e+00 6.821850e+00 7.807410e+00
      vertex 5.242702e+00 -6.516650e+00 7.807410e+00
      vertex 5.242702e+00 4.816650e+00 7.807410e+00
    endloop
  endfacet
  facet normal 0.000000e+00 0.000000e+00 1.000000e+00
    outer loop
      vertex 2.428180e+01 6.821850e+00 7.807410e+00
      vertex 2.222290e+01 4.816650e+00 7.807410e+00
      vertex 2.428180e+01 -8.478190e+00 7.807410e+00
    endloop
  endfacet
  facet normal 0.000000e+00 0.000000e+00 1.000000e+00
    outer loop
      vertex 2.428180e+01 6.821850e+00 7.807410e+00
      vertex 3.587101e+00 6.821850e+00 7.807410e+00
      vertex 2.222290e+01 4.816650e+00 7.807410e+00
    endloop
  endfacet
  facet normal 0.000000e+00 0.000000e+00 1.000000e+00
    outer loop
      vertex 2.222290e+01 4.816650e+00 7.807410e+00
      vertex 2.222290e+01 -6.516650e+00 7.807410e+00
      vertex 2.428180e+01 -8.478190e+00 7.807410e+00
    endloop
  endfacet
  facet normal 0.000000e+00 0.000000e+00 1.000000e+00
    outer loop
      vertex 2.222290e+01 -6.516650e+00 7.807410e+00
      vertex 5.242702e+00 -6.516650e+00 7.807410e+00
      vertex 2.428180e+01 -8.478190e+00 7.807410e+00
    endloop
  endfacet
  facet normal 1.000000e+00 0.000000e+00 0.000000e+00
    outer loop
      vertex 2.428180e+01 -8.478190e+00 7.807410e+00
      vertex 2.428180e+01 -8.478190e+00 4.684440e+00
      vertex 2.428180e+01 6.821850e+00 4.684440e+00
    endloop
  endfacet
  facet normal 1.000000e+00 0.000000e+00 0.000000e+00
    outer loop
      vertex 2.428180e+01 6.821850e+00 7.807410e+00
      vertex 2.428180e+01 -8.478190e+00 7.807410e+00
      vertex 2.428180e+01 6.821850e+00 4.684440e+00
    endloop
  endfacet
  facet normal 1.000000e+00 0.000000e+00 0.000000e+00
    outer loop
      vertex 5.242702e+00 4.816650e+00 4.684440e+00
      vertex 5.242702e+00 4.816650e+00 7.807410e+00
      vertex 5.242702e+00 -6.516650e+00 7.807410e+00
    endloop
  endfacet
  facet normal 1.000000e+00 0.000000e+00 0.000000e+00
    outer loop
      vertex 5.242702e+00 -6.516650e+00 4.684440e+00
      vertex 5.242702e+00 4.816650e+00 4.684440e+00
      vertex 5.242702e+00 -6.516650e+00 7.807410e+00
    endloop
  endfacet
  facet normal 0.000000e+00 -1.000000e+00 0.000000e+00
    outer loop
      vertex 2.222290e+01 4.816650e+00 4.684440e+00
      vertex 2.222290e+01 4.816650e+00 7.807410e+00
      vertex 5.242702e+00 4.816650e+00 7.807410e+00
    endloop
  endfacet
  facet normal -0.000000e+00 -1.000000e+00 -0.000000e+00
    outer loop
      vertex 5.242702e+00 4.816650e+00 4.684440e+00
      vertex 2.222290e+01 4.816650e+00 4.684440e+00
      vertex 5.242702e+00 4.816650e+00 7.807410e+00
    endloop
  endfacet
  facet normal -1.000000e+00 0.000000e+00 0.000000e+00
    outer loop
      vertex 2.222290e+01 4.816650e+00 7.807410e+00
      vertex 2.222290e+01 4.816650e+00 4.684440e+00
      vertex 2.222290e+01 -6.516650e+00 7.807410e+00
    endloop
  endfacet
  facet normal -1.000000e+00 0.000000e+00 0.000000e+00
    outer loop
      vertex 2.222290e+01 -6.516650e+00 7.807410e+00
      vertex 2.222290e+01 4.816650e+00 4.684440e+00
      vertex 2.222290e+01 -6.516650e+00 4.684440e+00
    endloop
  endfacet
  facet normal 0.000000e+00 1.000000e+00 0.000000e+00
    outer loop
      vertex 2.222290e+01 -6.516650e+00 7.807410e+00
      vertex 2.222290e+01 -6.516650e+00 4.684440e+00
      vertex 5.242702e+00 -6.516650e+00 7.807410e+00
    endloop
  endfacet
  facet normal 0.000000e+00 1.000000e+00 0.000000e+00
    outer loop
      vertex 5.242702e+00 -6.516650e+00 7.807410e+00
      vertex 2.222290e+01 -6.516650e+00 4.684440e+00
      vertex 5.242702e+00 -6.516650e+00 4.684440e+00
    endloop
  endfacet
endsolid Default
