solid Default
  facet normal -1.000000e+00 -0.000000e+00 -0.000000e+00
    outer loop
      vertex -2.126715e+01 -2.126715e+01 0.000000e+00
      vertex -2.126715e+01 -2.126715e+01 3.035710e+00
      vertex -2.126715e+01 2.126715e+01 0.000000e+00
    endloop
  endfacet
  facet normal -1.000000e+00 0.000000e+00 0.000000e+00
    outer loop
      vertex -2.126715e+01 2.126715e+01 0.000000e+00
      vertex -2.126715e+01 -2.126715e+01 3.035710e+00
      vertex -2.126715e+01 2.126715e+01 3.035710e+00
    endloop
  endfacet
  facet normal 0.000000e+00 -1.000000e+00 0.000000e+00
    outer loop
      vertex -2.126715e+01 -2.126715e+01 3.035710e+00
      vertex -2.126715e+01 -2.126715e+01 0.000000e+00
      vertex 2.126715e+01 -2.126715e+01 0.000000e+00
    endloop
  endfacet
  facet normal 0.000000e+00 -1.000000e+00 0.000000e+00
    outer loop
      vertex 2.126715e+01 -2.126715e+01 3.035710e+00
      vertex -2.126715e+01 -2.126715e+01 3.035710e+00
      vertex 2.126715e+01 -2.126715e+01 0.000000e+00
    endloop
  endfacet
  facet normal 0.000000e+00 0.000000e+00 -1.000000e+00
    outer loop
      vertex 1.006115e+01 8.615648e+00 0.000000e+00
      vertex 2.126715e+01 -2.126715e+01 0.000000e+00
      vertex 1.006115e+01 -1.753180e+01 0.000000e+00
    endloop
  endfacet
  facet normal 0.000000e+00 0.000000e+00 -1.000000e+00
    outer loop
      vertex 8.615648e+00 1.006115e+01 0.000000e+00
      vertex -2.126715e+01 2.126715e+01 0.000000e+00
      vertex 8.615648e+00 2.126715e+01 0.000000e+00
    endloop
  endfacet
  facet normal 0.000000e+00 0.000000e+00 -1.000000e+00
    outer loop
      vertex -2.126715e+01 -2.126715e+01 0.000000e+00
      vertex -2.126715e+01 2.126715e+01 0.000000e+00
      vertex -1.753180e+01 1.006115e+01 0.000000e+00
    endloop
  endfacet
  facet normal 0.000000e+00 0.000000e+00 -1.000000e+00
    outer loop
      vertex -2.126715e+01 -2.126715e+01 0.000000e+00
      vertex -1.753180e+01 1.006115e+01 0.000000e+00
      vertex -1.753180e+01 -1.753180e+01 0.000000e+00
    endloop
  endfacet
  facet normal 0.000000e+00 0.000000e+00 -1.000000e+00
    outer loop
      vertex -2.126715e+01 -2.126715e+01 0.000000e+00
      vertex -1.753180e+01 -1.753180e+01 0.000000e+00
      vertex 2.126715e+01 -2.126715e+01 0.000000e+00
    endloop
  endfacet
  facet normal 0.000000e+00 0.000000e+00 -1.000000e+00
    outer loop
      vertex -1.753180e+01 -1.753180e+01 0.000000e+00
      vertex 1.006115e+01 -1.753180e+01 0.000000e+00
      vertex 2.126715e+01 -2.126715e+01 0.000000e+00
    endloop
  endfacet
  facet normal 0.000000e+00 0.000000e+00 -1.000000e+00
    outer loop
      vertex 2.126715e+01 8.615648e+00 0.000000e+00
      vertex 2.126715e+01 -2.126715e+01 0.000000e+00
      vertex 1.006115e+01 8.615648e+00 0.000000e+00
    endloop
  endfacet
  facet normal -0.000000e+00 -0.000000e+00 -1.000000e+00
    outer loop
      vertex -1.753180e+01 1.006115e+01 0.000000e+00
      vertex -2.126715e+01 2.126715e+01 0.000000e+00
      vertex 8.615648e+00 1.006115e+01 0.000000e+00
    endloop
  endfacet
  facet normal 0.000000e+00 1.000000e+00 0.000000e+00
    outer loop
      vertex -2.126715e+01 2.126715e+01 0.000000e+00
      vertex -2.126715e+01 2.126715e+01 3.035710e+00
      vertex 8.615648e+00 2.126715e+01 0.000000e+00
    endloop
  endfacet
  facet normal 0.000000e+00 1.000000e+00 0.000000e+00
    outer loop
      vertex 8.615648e+00 2.126715e+01 0.000000e+00
      vertex -2.126715e+01 2.126715e+01 3.035710e+00
      vertex 8.615648e+00 2.126715e+01 3.035710e+00
    endloop
  endfacet
  facet normal 0.000000e+00 0.000000e+00 1.000000e+00
    outer loop
      vertex -3.866051e+00 -1.058605e+01 3.035710e+00
      vertex -2.126715e+01 -2.126715e+01 3.035710e+00
      vertex 2.126715e+01 -2.126715e+01 3.035710e+00
    endloop
  endfacet
  facet normal 0.000000e+00 0.000000e+00 1.000000e+00
    outer loop
      vertex 8.615648e+00 8.615648e+00 3.035710e+00
      vertex -2.126715e+01 2.126715e+01 3.035710e+00
      vertex 2.126715e+01 -2.126715e+01 3.035710e+00
    endloop
  endfacet
  facet normal 0.000000e+00 0.000000e+00 1.000000e+00
    outer loop
      vertex 2.126715e+01 8.615648e+00 3.035710e+00
      vertex 8.615648e+00 8.615648e+00 3.035710e+00
      vertex 2.126715e+01 -2.126715e+01 3.035710e+00
    endloop
  endfacet
  facet normal 0.000000e+00 0.000000e+00 1.000000e+00
    outer loop
      vertex -2.126715e+01 2.126715e+01 3.035710e+00
      vertex -2.126715e+01 -2.126715e+01 3.035710e+00
      vertex -1.124515e+01 -6.325751e+00 3.035710e+00
    endloop
  endfacet
  facet normal 0.000000e+00 0.000000e+00 1.000000e+00
    outer loop
      vertex -3.098452e+00 -1.002835e+01 3.035710e+00
      vertex -3.866051e+00 -1.058605e+01 3.035710e+00
      vertex 2.126715e+01 -2.126715e+01 3.035710e+00
    endloop
  endfacet
  facet normal 0.000000e+00 0.000000e+00 1.000000e+00
    outer loop
      vertex -2.126715e+01 2.126715e+01 3.035710e+00
      vertex -1.124515e+01 -6.325751e+00 3.035710e+00
      vertex -1.123675e+01 -6.246551e+00 3.035710e+00
    endloop
  endfacet
  facet normal 0.000000e+00 0.000000e+00 1.000000e+00
    outer loop
      vertex -3.034050e+00 -9.981551e+00 3.035710e+00
      vertex -3.098452e+00 -1.002835e+01 3.035710e+00
      vertex 2.126715e+01 -2.126715e+01 3.035710e+00
    endloop
  endfacet
  facet normal 0.000000e+00 0.000000e+00 1.000000e+00
    outer loop
      vertex -2.126715e+01 2.126715e+01 3.035710e+00
      vertex -1.123675e+01 -6.246551e+00 3.035710e+00
      vertex -1.113765e+01 -5.302951e+00 3.035710e+00
    endloop
  endfacet
  facet normal 0.000000e+00 0.000000e+00 1.000000e+00
    outer loop
      vertex -2.126715e+01 2.126715e+01 3.035710e+00
      vertex -1.113765e+01 -5.302951e+00 3.035710e+00
      vertex -1.111305e+01 -5.227251e+00 3.035710e+00
    endloop
  endfacet
  facet normal 0.000000e+00 0.000000e+00 1.000000e+00
    outer loop
      vertex -2.126715e+01 2.126715e+01 3.035710e+00
      vertex -1.111305e+01 -5.227251e+00 3.035710e+00
      vertex -1.081985e+01 -4.324850e+00 3.035710e+00
    endloop
  endfacet
  facet normal 0.000000e+00 0.000000e+00 1.000000e+00
    outer loop
      vertex -2.399151e+00 -9.276451e+00 3.035710e+00
      vertex -3.034050e+00 -9.981551e+00 3.035710e+00
      vertex 2.126715e+01 -2.126715e+01 3.035710e+00
    endloop
  endfacet
  facet normal 0.000000e+00 0.000000e+00 1.000000e+00
    outer loop
      vertex -2.126715e+01 2.126715e+01 3.035710e+00
      vertex -1.081985e+01 -4.324850e+00 3.035710e+00
      vertex -1.078005e+01 -4.255951e+00 3.035710e+00
    endloop
  endfacet
  facet normal 0.000000e+00 0.000000e+00 1.000000e+00
    outer loop
      vertex -2.126715e+01 2.126715e+01 3.035710e+00
      vertex -1.078005e+01 -4.255951e+00 3.035710e+00
      vertex -1.030565e+01 -3.434252e+00 3.035710e+00
    endloop
  endfacet
  facet normal 0.000000e+00 0.000000e+00 1.000000e+00
    outer loop
      vertex -1.871450e+00 -8.395551e+00 3.035710e+00
      vertex -2.345850e+00 -9.217251e+00 3.035710e+00
      vertex 2.126715e+01 -2.126715e+01 3.035710e+00
    endloop
  endfacet
  facet normal 0.000000e+00 0.000000e+00 1.000000e+00
    outer loop
      vertex -2.126715e+01 2.126715e+01 3.035710e+00
      vertex -1.030565e+01 -3.434252e+00 3.035710e+00
      vertex -1.025235e+01 -3.375051e+00 3.035710e+00
    endloop
  endfacet
  facet normal 0.000000e+00 0.000000e+00 1.000000e+00
    outer loop
      vertex -2.126715e+01 2.126715e+01 3.035710e+00
      vertex -1.025235e+01 -3.375051e+00 3.035710e+00
      vertex -9.617451e+00 -2.669950e+00 3.035710e+00
    endloop
  endfacet
  facet normal 0.000000e+00 0.000000e+00 1.000000e+00
    outer loop
      vertex -2.126715e+01 2.126715e+01 3.035710e+00
      vertex -9.617451e+00 -2.669950e+00 3.035710e+00
      vertex -9.553051e+00 -2.623152e+00 3.035710e+00
    endloop
  endfacet
  facet normal 0.000000e+00 0.000000e+00 1.000000e+00
    outer loop
      vertex -2.126715e+01 2.126715e+01 3.035710e+00
      vertex -9.553051e+00 -2.623152e+00 3.035710e+00
      vertex -8.785451e+00 -2.065451e+00 3.035710e+00
    endloop
  endfacet
  facet normal 0.000000e+00 0.000000e+00 1.000000e+00
    outer loop
      vertex -2.126715e+01 2.126715e+01 3.035710e+00
      vertex -8.785451e+00 -2.065451e+00 3.035710e+00
      vertex -8.712750e+00 -2.033051e+00 3.035710e+00
    endloop
  endfacet
  facet normal 0.000000e+00 0.000000e+00 1.000000e+00
    outer loop
      vertex -2.126715e+01 2.126715e+01 3.035710e+00
      vertex -8.712750e+00 -2.033051e+00 3.035710e+00
      vertex -7.845951e+00 -1.647150e+00 3.035710e+00
    endloop
  endfacet
  facet normal 0.000000e+00 0.000000e+00 1.000000e+00
    outer loop
      vertex -1.414650e+00 -6.404951e+00 3.035710e+00
      vertex -1.513851e+00 -7.348551e+00 3.035710e+00
      vertex 2.126715e+01 -2.126715e+01 3.035710e+00
    endloop
  endfacet
  facet normal 0.000000e+00 0.000000e+00 1.000000e+00
    outer loop
      vertex -2.126715e+01 2.126715e+01 3.035710e+00
      vertex -7.845951e+00 -1.647150e+00 3.035710e+00
      vertex -7.768051e+00 -1.630550e+00 3.035710e+00
    endloop
  endfacet
  facet normal 0.000000e+00 0.000000e+00 1.000000e+00
    outer loop
      vertex -2.126715e+01 2.126715e+01 3.035710e+00
      vertex -7.768051e+00 -1.630550e+00 3.035710e+00
      vertex -6.839951e+00 -1.433352e+00 3.035710e+00
    endloop
  endfacet
  facet normal 0.000000e+00 0.000000e+00 1.000000e+00
    outer loop
      vertex -1.807051e+00 -4.400551e+00 3.035710e+00
      vertex -1.513851e+00 -5.302951e+00 3.035710e+00
      vertex 2.126715e+01 -2.126715e+01 3.035710e+00
    endloop
  endfacet
  facet normal 0.000000e+00 0.000000e+00 1.000000e+00
    outer loop
      vertex -2.126715e+01 2.126715e+01 3.035710e+00
      vertex -6.839951e+00 -1.433352e+00 3.035710e+00
      vertex -5.811551e+00 -1.433352e+00 3.035710e+00
    endloop
  endfacet
  facet normal 0.000000e+00 0.000000e+00 1.000000e+00
    outer loop
      vertex -1.831652e+00 -4.324850e+00 3.035710e+00
      vertex -1.807051e+00 -4.400551e+00 3.035710e+00
      vertex 2.126715e+01 -2.126715e+01 3.035710e+00
    endloop
  endfacet
  facet normal 0.000000e+00 0.000000e+00 1.000000e+00
    outer loop
      vertex -2.126715e+01 2.126715e+01 3.035710e+00
      vertex -5.811551e+00 -1.433352e+00 3.035710e+00
      vertex -5.733651e+00 -1.449850e+00 3.035710e+00
    endloop
  endfacet
  facet normal 0.000000e+00 0.000000e+00 1.000000e+00
    outer loop
      vertex -1.505550e+00 -5.382151e+00 3.035710e+00
      vertex -1.406351e+00 -6.325751e+00 3.035710e+00
      vertex 2.126715e+01 -2.126715e+01 3.035710e+00
    endloop
  endfacet
  facet normal 0.000000e+00 0.000000e+00 1.000000e+00
    outer loop
      vertex -2.126715e+01 2.126715e+01 3.035710e+00
      vertex -5.733651e+00 -1.449850e+00 3.035710e+00
      vertex -4.805552e+00 -1.647150e+00 3.035710e+00
    endloop
  endfacet
  facet normal 0.000000e+00 0.000000e+00 1.000000e+00
    outer loop
      vertex -2.126715e+01 2.126715e+01 3.035710e+00
      vertex -4.805552e+00 -1.647150e+00 3.035710e+00
      vertex -4.732851e+00 -1.679550e+00 3.035710e+00
    endloop
  endfacet
  facet normal 0.000000e+00 0.000000e+00 1.000000e+00
    outer loop
      vertex -2.126715e+01 2.126715e+01 3.035710e+00
      vertex -4.732851e+00 -1.679550e+00 3.035710e+00
      vertex -3.866051e+00 -2.065451e+00 3.035710e+00
    endloop
  endfacet
  facet normal 0.000000e+00 0.000000e+00 1.000000e+00
    outer loop
      vertex -2.126715e+01 2.126715e+01 3.035710e+00
      vertex -3.866051e+00 -2.065451e+00 3.035710e+00
      vertex -3.801651e+00 -2.112251e+00 3.035710e+00
    endloop
  endfacet
  facet normal 0.000000e+00 0.000000e+00 1.000000e+00
    outer loop
      vertex -2.126715e+01 2.126715e+01 3.035710e+00
      vertex -3.034050e+00 -2.669950e+00 3.035710e+00
      vertex 2.126715e+01 -2.126715e+01 3.035710e+00
    endloop
  endfacet
  facet normal 0.000000e+00 0.000000e+00 1.000000e+00
    outer loop
      vertex -2.126715e+01 2.126715e+01 3.035710e+00
      vertex -3.801651e+00 -2.112251e+00 3.035710e+00
      vertex -3.034050e+00 -2.669950e+00 3.035710e+00
    endloop
  endfacet
  facet normal 0.000000e+00 0.000000e+00 1.000000e+00
    outer loop
      vertex -3.034050e+00 -2.669950e+00 3.035710e+00
      vertex -2.980751e+00 -2.729052e+00 3.035710e+00
      vertex 2.126715e+01 -2.126715e+01 3.035710e+00
    endloop
  endfacet
  facet normal 0.000000e+00 0.000000e+00 1.000000e+00
    outer loop
      vertex -2.345850e+00 -3.434252e+00 3.035710e+00
      vertex -2.306051e+00 -3.503151e+00 3.035710e+00
      vertex 2.126715e+01 -2.126715e+01 3.035710e+00
    endloop
  endfacet
  facet normal 0.000000e+00 0.000000e+00 1.000000e+00
    outer loop
      vertex -1.513851e+00 -5.302951e+00 3.035710e+00
      vertex -1.505550e+00 -5.382151e+00 3.035710e+00
      vertex 2.126715e+01 -2.126715e+01 3.035710e+00
    endloop
  endfacet
  facet normal 0.000000e+00 0.000000e+00 1.000000e+00
    outer loop
      vertex -1.406351e+00 -6.325751e+00 3.035710e+00
      vertex -1.414650e+00 -6.404951e+00 3.035710e+00
      vertex 2.126715e+01 -2.126715e+01 3.035710e+00
    endloop
  endfacet
  facet normal 0.000000e+00 0.000000e+00 1.000000e+00
    outer loop
      vertex -1.513851e+00 -7.348551e+00 3.035710e+00
      vertex -1.538450e+00 -7.424251e+00 3.035710e+00
      vertex 2.126715e+01 -2.126715e+01 3.035710e+00
    endloop
  endfacet
  facet normal 0.000000e+00 0.000000e+00 1.000000e+00
    outer loop
      vertex -1.831652e+00 -8.326651e+00 3.035710e+00
      vertex -1.871450e+00 -8.395551e+00 3.035710e+00
      vertex 2.126715e+01 -2.126715e+01 3.035710e+00
    endloop
  endfacet
  facet normal 0.000000e+00 0.000000e+00 1.000000e+00
    outer loop
      vertex -2.345850e+00 -9.217251e+00 3.035710e+00
      vertex -2.399151e+00 -9.276451e+00 3.035710e+00
      vertex 2.126715e+01 -2.126715e+01 3.035710e+00
    endloop
  endfacet
  facet normal 0.000000e+00 0.000000e+00 1.000000e+00
    outer loop
      vertex -3.938751e+00 -1.061845e+01 3.035710e+00
      vertex -2.126715e+01 -2.126715e+01 3.035710e+00
      vertex -3.866051e+00 -1.058605e+01 3.035710e+00
    endloop
  endfacet
  facet normal 0.000000e+00 0.000000e+00 1.000000e+00
    outer loop
      vertex -4.805552e+00 -1.100435e+01 3.035710e+00
      vertex -2.126715e+01 -2.126715e+01 3.035710e+00
      vertex -3.938751e+00 -1.061845e+01 3.035710e+00
    endloop
  endfacet
  facet normal 0.000000e+00 0.000000e+00 1.000000e+00
    outer loop
      vertex -4.883451e+00 -1.102085e+01 3.035710e+00
      vertex -2.126715e+01 -2.126715e+01 3.035710e+00
      vertex -4.805552e+00 -1.100435e+01 3.035710e+00
    endloop
  endfacet
  facet normal 0.000000e+00 0.000000e+00 1.000000e+00
    outer loop
      vertex -5.811551e+00 -1.121815e+01 3.035710e+00
      vertex -2.126715e+01 -2.126715e+01 3.035710e+00
      vertex -4.883451e+00 -1.102085e+01 3.035710e+00
    endloop
  endfacet
  facet normal 0.000000e+00 0.000000e+00 1.000000e+00
    outer loop
      vertex -6.839951e+00 -1.121815e+01 3.035710e+00
      vertex -2.126715e+01 -2.126715e+01 3.035710e+00
      vertex -5.811551e+00 -1.121815e+01 3.035710e+00
    endloop
  endfacet
  facet normal 0.000000e+00 0.000000e+00 1.000000e+00
    outer loop
      vertex -6.917850e+00 -1.120165e+01 3.035710e+00
      vertex -2.126715e+01 -2.126715e+01 3.035710e+00
      vertex -6.839951e+00 -1.121815e+01 3.035710e+00
    endloop
  endfacet
  facet normal 0.000000e+00 0.000000e+00 1.000000e+00
    outer loop
      vertex -7.845951e+00 -1.100435e+01 3.035710e+00
      vertex -2.126715e+01 -2.126715e+01 3.035710e+00
      vertex -6.917850e+00 -1.120165e+01 3.035710e+00
    endloop
  endfacet
  facet normal 0.000000e+00 0.000000e+00 1.000000e+00
    outer loop
      vertex -7.918651e+00 -1.097195e+01 3.035710e+00
      vertex -2.126715e+01 -2.126715e+01 3.035710e+00
      vertex -7.845951e+00 -1.100435e+01 3.035710e+00
    endloop
  endfacet
  facet normal 0.000000e+00 0.000000e+00 1.000000e+00
    outer loop
      vertex -8.785451e+00 -1.058605e+01 3.035710e+00
      vertex -2.126715e+01 -2.126715e+01 3.035710e+00
      vertex -7.918651e+00 -1.097195e+01 3.035710e+00
    endloop
  endfacet
  facet normal 0.000000e+00 0.000000e+00 1.000000e+00
    outer loop
      vertex -8.849851e+00 -1.053925e+01 3.035710e+00
      vertex -2.126715e+01 -2.126715e+01 3.035710e+00
      vertex -8.785451e+00 -1.058605e+01 3.035710e+00
    endloop
  endfacet
  facet normal 0.000000e+00 0.000000e+00 1.000000e+00
    outer loop
      vertex -9.617451e+00 -9.981551e+00 3.035710e+00
      vertex -2.126715e+01 -2.126715e+01 3.035710e+00
      vertex -8.849851e+00 -1.053925e+01 3.035710e+00
    endloop
  endfacet
  facet normal 0.000000e+00 0.000000e+00 1.000000e+00
    outer loop
      vertex -9.670751e+00 -9.922451e+00 3.035710e+00
      vertex -2.126715e+01 -2.126715e+01 3.035710e+00
      vertex -9.617451e+00 -9.981551e+00 3.035710e+00
    endloop
  endfacet
  facet normal 0.000000e+00 0.000000e+00 1.000000e+00
    outer loop
      vertex -1.030565e+01 -9.217251e+00 3.035710e+00
      vertex -2.126715e+01 -2.126715e+01 3.035710e+00
      vertex -9.670751e+00 -9.922451e+00 3.035710e+00
    endloop
  endfacet
  facet normal 0.000000e+00 0.000000e+00 1.000000e+00
    outer loop
      vertex -1.034535e+01 -9.148351e+00 3.035710e+00
      vertex -2.126715e+01 -2.126715e+01 3.035710e+00
      vertex -1.030565e+01 -9.217251e+00 3.035710e+00
    endloop
  endfacet
  facet normal 0.000000e+00 0.000000e+00 1.000000e+00
    outer loop
      vertex -1.081985e+01 -8.326651e+00 3.035710e+00
      vertex -2.126715e+01 -2.126715e+01 3.035710e+00
      vertex -1.034535e+01 -9.148351e+00 3.035710e+00
    endloop
  endfacet
  facet normal 0.000000e+00 0.000000e+00 1.000000e+00
    outer loop
      vertex -1.084445e+01 -8.250951e+00 3.035710e+00
      vertex -2.126715e+01 -2.126715e+01 3.035710e+00
      vertex -1.081985e+01 -8.326651e+00 3.035710e+00
    endloop
  endfacet
  facet normal 0.000000e+00 0.000000e+00 1.000000e+00
    outer loop
      vertex -1.113765e+01 -7.348551e+00 3.035710e+00
      vertex -2.126715e+01 -2.126715e+01 3.035710e+00
      vertex -1.084445e+01 -8.250951e+00 3.035710e+00
    endloop
  endfacet
  facet normal 0.000000e+00 0.000000e+00 1.000000e+00
    outer loop
      vertex -1.124515e+01 -6.325751e+00 3.035710e+00
      vertex -2.126715e+01 -2.126715e+01 3.035710e+00
      vertex -1.113765e+01 -7.348551e+00 3.035710e+00
    endloop
  endfacet
  facet normal 0.000000e+00 0.000000e+00 9.999999e-01
    outer loop
      vertex -1.124515e+01 -6.325751e+00 3.035710e+00
      vertex -1.113765e+01 -7.348551e+00 3.035710e+00
      vertex -1.114595e+01 -7.269351e+00 3.035710e+00
    endloop
  endfacet
  facet normal 0.000000e+00 0.000000e+00 1.000000e+00
    outer loop
      vertex 8.615648e+00 8.615648e+00 3.035710e+00
      vertex 8.615648e+00 2.126715e+01 3.035710e+00
      vertex -2.126715e+01 2.126715e+01 3.035710e+00
    endloop
  endfacet
  facet normal 0.000000e+00 0.000000e+00 1.000000e+00
    outer loop
      vertex -2.980751e+00 -2.729052e+00 3.035710e+00
      vertex -2.345850e+00 -3.434252e+00 3.035710e+00
      vertex 2.126715e+01 -2.126715e+01 3.035710e+00
    endloop
  endfacet
  facet normal 0.000000e+00 0.000000e+00 1.000000e+00
    outer loop
      vertex -2.306051e+00 -3.503151e+00 3.035710e+00
      vertex -1.831652e+00 -4.324850e+00 3.035710e+00
      vertex 2.126715e+01 -2.126715e+01 3.035710e+00
    endloop
  endfacet
  facet normal 0.000000e+00 0.000000e+00 1.000000e+00
    outer loop
      vertex -1.538450e+00 -7.424251e+00 3.035710e+00
      vertex -1.831652e+00 -8.326651e+00 3.035710e+00
      vertex 2.126715e+01 -2.126715e+01 3.035710e+00
    endloop
  endfacet
  facet normal 1.000000e+00 0.000000e+00 0.000000e+00
    outer loop
      vertex 2.126715e+01 -2.126715e+01 3.035710e+00
      vertex 2.126715e+01 -2.126715e+01 0.000000e+00
      vertex 2.126715e+01 8.615648e+00 0.000000e+00
    endloop
  endfacet
  facet normal 1.000000e+00 0.000000e+00 0.000000e+00
    outer loop
      vertex 2.126715e+01 8.615648e+00 3.035710e+00
      vertex 2.126715e+01 -2.126715e+01 3.035710e+00
      vertex 2.126715e+01 8.615648e+00 0.000000e+00
    endloop
  endfacet
  facet normal 0.000000e+00 1.000000e+00 0.000000e+00
    outer loop
      vertex 8.615648e+00 8.615648e+00 1.517860e+00
      vertex 8.615648e+00 8.615648e+00 3.035710e+00
      vertex 1.006115e+01 8.615648e+00 1.517860e+00
    endloop
  endfacet
  facet normal 0.000000e+00 1.000000e+00 0.000000e+00
    outer loop
      vertex 1.006115e+01 8.615648e+00 1.517860e+00
      vertex 8.615648e+00 8.615648e+00 3.035710e+00
      vertex 2.126715e+01 8.615648e+00 3.035710e+00
    endloop
  endfacet
  facet normal 0.000000e+00 1.000000e+00 0.000000e+00
    outer loop
      vertex 1.006115e+01 8.615648e+00 1.517860e+00
      vertex 2.126715e+01 8.615648e+00 3.035710e+00
      vertex 2.126715e+01 8.615648e+00 0.000000e+00
    endloop
  endfacet
  facet normal 0.000000e+00 1.000000e+00 0.000000e+00
    outer loop
      vertex 1.006115e+01 8.615648e+00 1.517860e+00
      vertex 2.126715e+01 8.615648e+00 0.000000e+00
      vertex 1.006115e+01 8.615648e+00 0.000000e+00
    endloop
  endfacet
  facet normal -1.000000e+00 0.000000e+00 0.000000e+00
    outer loop
      vertex 1.006115e+01 8.615648e+00 1.517860e+00
      vertex 1.006115e+01 8.615648e+00 0.000000e+00
      vertex 1.006115e+01 -1.753180e+01 1.517860e+00
    endloop
  endfacet
  facet normal -1.000000e+00 0.000000e+00 0.000000e+00
    outer loop
      vertex 1.006115e+01 -1.753180e+01 1.517860e+00
      vertex 1.006115e+01 8.615648e+00 0.000000e+00
      vertex 1.006115e+01 -1.753180e+01 0.000000e+00
    endloop
  endfacet
  facet normal 0.000000e+00 1.000000e+00 0.000000e+00
    outer loop
      vertex 1.006115e+01 -1.753180e+01 1.517860e+00
      vertex 1.006115e+01 -1.753180e+01 0.000000e+00
      vertex -1.753180e+01 -1.753180e+01 1.517860e+00
    endloop
  endfacet
  facet normal 0.000000e+00 1.000000e+00 0.000000e+00
    outer loop
      vertex -1.753180e+01 -1.753180e+01 1.517860e+00
      vertex 1.006115e+01 -1.753180e+01 0.000000e+00
      vertex -1.753180e+01 -1.753180e+01 0.000000e+00
    endloop
  endfacet
  facet normal 1.000000e+00 0.000000e+00 0.000000e+00
    outer loop
      vertex -1.753180e+01 1.006115e+01 0.000000e+00
      vertex -1.753180e+01 1.006115e+01 1.517860e+00
      vertex -1.753180e+01 -1.753180e+01 1.517860e+00
    endloop
  endfacet
  facet normal 1.000000e+00 0.000000e+00 0.000000e+00
    outer loop
      vertex -1.753180e+01 -1.753180e+01 0.000000e+00
      vertex -1.753180e+01 1.006115e+01 0.000000e+00
      vertex -1.753180e+01 -1.753180e+01 1.517860e+00
    endloop
  endfacet
  facet normal 0.000000e+00 -1.000000e+00 0.000000e+00
    outer loop
      vertex 8.615648e+00 1.006115e+01 0.000000e+00
      vertex 8.615648e+00 1.006115e+01 1.517860e+00
      vertex -1.753180e+01 1.006115e+01 1.517860e+00
    endloop
  endfacet
  facet normal -0.000000e+00 -1.000000e+00 -0.000000e+00
    outer loop
      vertex -1.753180e+01 1.006115e+01 0.000000e+00
      vertex 8.615648e+00 1.006115e+01 0.000000e+00
      vertex -1.753180e+01 1.006115e+01 1.517860e+00
    endloop
  endfacet
  facet normal 1.000000e+00 0.000000e+00 0.000000e+00
    outer loop
      vertex 8.615648e+00 8.615648e+00 3.035710e+00
      vertex 8.615648e+00 8.615648e+00 1.517860e+00
      vertex 8.615648e+00 1.006115e+01 1.517860e+00
    endloop
  endfacet
  facet normal 1.000000e+00 0.000000e+00 0.000000e+00
    outer loop
      vertex 8.615648e+00 2.126715e+01 0.000000e+00
      vertex 8.615648e+00 8.615648e+00 3.035710e+00
      vertex 8.615648e+00 1.006115e+01 1.517860e+00
    endloop
  endfacet
  facet normal 1.000000e+00 0.000000e+00 0.000000e+00
    outer loop
      vertex 8.615648e+00 1.006115e+01 0.000000e+00
      vertex 8.615648e+00 2.126715e+01 0.000000e+00
      vertex 8.615648e+00 1.006115e+01 1.517860e+00
    endloop
  endfacet
  facet normal 1.000000e+00 0.000000e+00 0.000000e+00
    outer loop
      vertex 8.615648e+00 2.126715e+01 0.000000e+00
      vertex 8.615648e+00 2.126715e+01 3.035710e+00
      vertex 8.615648e+00 8.615648e+00 3.035710e+00
    endloop
  endfacet
  facet normal -9.936555e-01 1.044371e-01 4.173352e-02
    outer loop
      vertex -1.124515e+01 -6.325751e+00 3.035710e+00
      vertex -1.089445e+01 -6.325751e+00 1.138390e+01
      vertex -1.123675e+01 -6.246551e+00 3.035710e+00
    endloop
  endfacet
  facet normal -9.936555e-01 1.044371e-01 4.173352e-02
    outer loop
      vertex -1.123675e+01 -6.246551e+00 3.035710e+00
      vertex -1.089445e+01 -6.325751e+00 1.138390e+01
      vertex -1.079465e+01 -5.375851e+00 1.138390e+01
    endloop
  endfacet
  facet normal -9.936554e-01 -1.044380e-01 4.173351e-02
    outer loop
      vertex -1.089445e+01 -6.325751e+00 1.138390e+01
      vertex -1.124515e+01 -6.325751e+00 3.035710e+00
      vertex -1.114595e+01 -7.269351e+00 3.035710e+00
    endloop
  endfacet
  facet normal -9.936555e-01 -1.044371e-01 4.173352e-02
    outer loop
      vertex -1.114595e+01 -7.269351e+00 3.035710e+00
      vertex -1.113765e+01 -7.348551e+00 3.035710e+00
      vertex -1.089445e+01 -6.325751e+00 1.138390e+01
    endloop
  endfacet
  facet normal -9.936555e-01 -1.044371e-01 4.173352e-02
    outer loop
      vertex -1.089445e+01 -6.325751e+00 1.138390e+01
      vertex -1.113765e+01 -7.348551e+00 3.035710e+00
      vertex -1.079465e+01 -7.275651e+00 1.138390e+01
    endloop
  endfacet
  facet normal -9.502282e-01 -3.087471e-01 4.173351e-02
    outer loop
      vertex -1.079465e+01 -7.275651e+00 1.138390e+01
      vertex -1.113765e+01 -7.348551e+00 3.035710e+00
      vertex -1.084445e+01 -8.250951e+00 3.035710e+00
    endloop
  endfacet
  facet normal -9.502279e-01 -3.087480e-01 4.173350e-02
    outer loop
      vertex -1.084445e+01 -8.250951e+00 3.035710e+00
      vertex -1.081985e+01 -8.326651e+00 3.035710e+00
      vertex -1.079465e+01 -7.275651e+00 1.138390e+01
    endloop
  endfacet
  facet normal -9.502279e-01 -3.087480e-01 4.173350e-02
    outer loop
      vertex -1.079465e+01 -7.275651e+00 1.138390e+01
      vertex -1.081985e+01 -8.326651e+00 3.035710e+00
      vertex -1.049955e+01 -8.184051e+00 1.138390e+01
    endloop
  endfacet
  facet normal -8.652707e-01 -4.995648e-01 4.173348e-02
    outer loop
      vertex -1.049955e+01 -8.184051e+00 1.138390e+01
      vertex -1.081985e+01 -8.326651e+00 3.035710e+00
      vertex -1.034535e+01 -9.148351e+00 3.035710e+00
    endloop
  endfacet
  facet normal -8.652707e-01 -4.995648e-01 4.173348e-02
    outer loop
      vertex -1.049955e+01 -8.184051e+00 1.138390e+01
      vertex -1.034535e+01 -9.148351e+00 3.035710e+00
      vertex -1.002195e+01 -9.011151e+00 1.138390e+01
    endloop
  endfacet
  facet normal -8.652707e-01 -4.995648e-01 4.173348e-02
    outer loop
      vertex -1.002195e+01 -9.011151e+00 1.138390e+01
      vertex -1.034535e+01 -9.148351e+00 3.035710e+00
      vertex -1.030565e+01 -9.217251e+00 3.035710e+00
    endloop
  endfacet
  facet normal -7.424980e-01 -6.685470e-01 4.173350e-02
    outer loop
      vertex -1.002195e+01 -9.011151e+00 1.138390e+01
      vertex -1.030565e+01 -9.217251e+00 3.035710e+00
      vertex -9.670751e+00 -9.922451e+00 3.035710e+00
    endloop
  endfacet
  facet normal -7.424970e-01 -6.685480e-01 4.173360e-02
    outer loop
      vertex -1.002195e+01 -9.011151e+00 1.138390e+01
      vertex -9.670751e+00 -9.922451e+00 3.035710e+00
      vertex -9.382851e+00 -9.720951e+00 1.138390e+01
    endloop
  endfacet
  facet normal -7.424970e-01 -6.685480e-01 4.173360e-02
    outer loop
      vertex -9.382851e+00 -9.720951e+00 1.138390e+01
      vertex -9.670751e+00 -9.922451e+00 3.035710e+00
      vertex -9.617451e+00 -9.981551e+00 3.035710e+00
    endloop
  endfacet
  facet normal -5.872731e-01 -8.083122e-01 4.173361e-02
    outer loop
      vertex -9.382851e+00 -9.720951e+00 1.138390e+01
      vertex -9.617451e+00 -9.981551e+00 3.035710e+00
      vertex -8.849851e+00 -1.053925e+01 3.035710e+00
    endloop
  endfacet
  facet normal -5.872738e-01 -8.083117e-01 4.173348e-02
    outer loop
      vertex -8.610151e+00 -1.028235e+01 1.138390e+01
      vertex -9.382851e+00 -9.720951e+00 1.138390e+01
      vertex -8.849851e+00 -1.053925e+01 3.035710e+00
    endloop
  endfacet
  facet normal -5.872738e-01 -8.083117e-01 4.173348e-02
    outer loop
      vertex -8.785451e+00 -1.058605e+01 3.035710e+00
      vertex -8.610151e+00 -1.028235e+01 1.138390e+01
      vertex -8.849851e+00 -1.053925e+01 3.035710e+00
    endloop
  endfacet
  facet normal -4.063831e-01 -9.127492e-01 4.173351e-02
    outer loop
      vertex -8.610151e+00 -1.028235e+01 1.138390e+01
      vertex -8.785451e+00 -1.058605e+01 3.035710e+00
      vertex -7.918651e+00 -1.097195e+01 3.035710e+00
    endloop
  endfacet
  facet normal -4.063811e-01 -9.127501e-01 4.173360e-02
    outer loop
      vertex -7.737551e+00 -1.067085e+01 1.138390e+01
      vertex -8.610151e+00 -1.028235e+01 1.138390e+01
      vertex -7.918651e+00 -1.097195e+01 3.035710e+00
    endloop
  endfacet
  facet normal -4.063811e-01 -9.127501e-01 4.173360e-02
    outer loop
      vertex -7.845951e+00 -1.100435e+01 3.035710e+00
      vertex -7.737551e+00 -1.067085e+01 1.138390e+01
      vertex -7.918651e+00 -1.097195e+01 3.035710e+00
    endloop
  endfacet
  facet normal -2.077311e-01 -9.772953e-01 4.173362e-02
    outer loop
      vertex -7.737551e+00 -1.067085e+01 1.138390e+01
      vertex -7.845951e+00 -1.100435e+01 3.035710e+00
      vertex -6.917850e+00 -1.120165e+01 3.035710e+00
    endloop
  endfacet
  facet normal -2.077311e-01 -9.772953e-01 4.173362e-02
    outer loop
      vertex -6.803350e+00 -1.086945e+01 1.138390e+01
      vertex -7.737551e+00 -1.067085e+01 1.138390e+01
      vertex -6.917850e+00 -1.120165e+01 3.035710e+00
    endloop
  endfacet
  facet normal -2.077311e-01 -9.772953e-01 4.173362e-02
    outer loop
      vertex -6.839951e+00 -1.121815e+01 3.035710e+00
      vertex -6.803350e+00 -1.086945e+01 1.138390e+01
      vertex -6.917850e+00 -1.120165e+01 3.035710e+00
    endloop
  endfacet
  facet normal 0.000000e+00 -9.991288e-01 4.173359e-02
    outer loop
      vertex -6.803350e+00 -1.086945e+01 1.138390e+01
      vertex -6.839951e+00 -1.121815e+01 3.035710e+00
      vertex -5.811551e+00 -1.121815e+01 3.035710e+00
    endloop
  endfacet
  facet normal 0.000000e+00 -9.991288e-01 4.173359e-02
    outer loop
      vertex -5.848151e+00 -1.086945e+01 1.138390e+01
      vertex -6.803350e+00 -1.086945e+01 1.138390e+01
      vertex -5.811551e+00 -1.121815e+01 3.035710e+00
    endloop
  endfacet
  facet normal 2.077311e-01 -9.772953e-01 4.173362e-02
    outer loop
      vertex -4.883451e+00 -1.102085e+01 3.035710e+00
      vertex -5.848151e+00 -1.086945e+01 1.138390e+01
      vertex -5.811551e+00 -1.121815e+01 3.035710e+00
    endloop
  endfacet
  facet normal 2.077311e-01 -9.772953e-01 4.173362e-02
    outer loop
      vertex -4.913950e+00 -1.067085e+01 1.138390e+01
      vertex -5.848151e+00 -1.086945e+01 1.138390e+01
      vertex -4.883451e+00 -1.102085e+01 3.035710e+00
    endloop
  endfacet
  facet normal 2.077311e-01 -9.772953e-01 4.173362e-02
    outer loop
      vertex -4.805552e+00 -1.100435e+01 3.035710e+00
      vertex -4.913950e+00 -1.067085e+01 1.138390e+01
      vertex -4.883451e+00 -1.102085e+01 3.035710e+00
    endloop
  endfacet
  facet normal 4.063831e-01 -9.127492e-01 4.173361e-02
    outer loop
      vertex -3.938751e+00 -1.061845e+01 3.035710e+00
      vertex -4.913950e+00 -1.067085e+01 1.138390e+01
      vertex -4.805552e+00 -1.100435e+01 3.035710e+00
    endloop
  endfacet
  facet normal 4.063811e-01 -9.127501e-01 4.173350e-02
    outer loop
      vertex -4.041351e+00 -1.028235e+01 1.138390e+01
      vertex -4.913950e+00 -1.067085e+01 1.138390e+01
      vertex -3.938751e+00 -1.061845e+01 3.035710e+00
    endloop
  endfacet
  facet normal 4.063811e-01 -9.127501e-01 4.173350e-02
    outer loop
      vertex -3.866051e+00 -1.058605e+01 3.035710e+00
      vertex -4.041351e+00 -1.028235e+01 1.138390e+01
      vertex -3.938751e+00 -1.061845e+01 3.035710e+00
    endloop
  endfacet
  facet normal 5.872731e-01 -8.083122e-01 4.173351e-02
    outer loop
      vertex -3.098452e+00 -1.002835e+01 3.035710e+00
      vertex -4.041351e+00 -1.028235e+01 1.138390e+01
      vertex -3.866051e+00 -1.058605e+01 3.035710e+00
    endloop
  endfacet
  facet normal 5.872738e-01 -8.083117e-01 4.173359e-02
    outer loop
      vertex -3.268650e+00 -9.720951e+00 1.138390e+01
      vertex -4.041351e+00 -1.028235e+01 1.138390e+01
      vertex -3.098452e+00 -1.002835e+01 3.035710e+00
    endloop
  endfacet
  facet normal 5.872738e-01 -8.083117e-01 4.173359e-02
    outer loop
      vertex -3.034050e+00 -9.981551e+00 3.035710e+00
      vertex -3.268650e+00 -9.720951e+00 1.138390e+01
      vertex -3.098452e+00 -1.002835e+01 3.035710e+00
    endloop
  endfacet
  facet normal 7.424980e-01 -6.685470e-01 4.173360e-02
    outer loop
      vertex -2.399151e+00 -9.276451e+00 3.035710e+00
      vertex -3.268650e+00 -9.720951e+00 1.138390e+01
      vertex -3.034050e+00 -9.981551e+00 3.035710e+00
    endloop
  endfacet
  facet normal 7.424970e-01 -6.685480e-01 4.173350e-02
    outer loop
      vertex -2.629551e+00 -9.011151e+00 1.138390e+01
      vertex -3.268650e+00 -9.720951e+00 1.138390e+01
      vertex -2.399151e+00 -9.276451e+00 3.035710e+00
    endloop
  endfacet
  facet normal 7.424970e-01 -6.685480e-01 4.173350e-02
    outer loop
      vertex -2.345850e+00 -9.217251e+00 3.035710e+00
      vertex -2.629551e+00 -9.011151e+00 1.138390e+01
      vertex -2.399151e+00 -9.276451e+00 3.035710e+00
    endloop
  endfacet
  facet normal 8.652707e-01 -4.995648e-01 4.173348e-02
    outer loop
      vertex -1.871450e+00 -8.395551e+00 3.035710e+00
      vertex -2.629551e+00 -9.011151e+00 1.138390e+01
      vertex -2.345850e+00 -9.217251e+00 3.035710e+00
    endloop
  endfacet
  facet normal 8.652707e-01 -4.995648e-01 4.173348e-02
    outer loop
      vertex -2.151951e+00 -8.184051e+00 1.138390e+01
      vertex -2.629551e+00 -9.011151e+00 1.138390e+01
      vertex -1.871450e+00 -8.395551e+00 3.035710e+00
    endloop
  endfacet
  facet normal 8.652707e-01 -4.995648e-01 4.173348e-02
    outer loop
      vertex -1.831652e+00 -8.326651e+00 3.035710e+00
      vertex -2.151951e+00 -8.184051e+00 1.138390e+01
      vertex -1.871450e+00 -8.395551e+00 3.035710e+00
    endloop
  endfacet
  facet normal 9.502282e-01 -3.087471e-01 4.173351e-02
    outer loop
      vertex -1.538450e+00 -7.424251e+00 3.035710e+00
      vertex -2.151951e+00 -8.184051e+00 1.138390e+01
      vertex -1.831652e+00 -8.326651e+00 3.035710e+00
    endloop
  endfacet
  facet normal 9.502279e-01 -3.087480e-01 4.173350e-02
    outer loop
      vertex -1.856852e+00 -7.275651e+00 1.138390e+01
      vertex -2.151951e+00 -8.184051e+00 1.138390e+01
      vertex -1.538450e+00 -7.424251e+00 3.035710e+00
    endloop
  endfacet
  facet normal 9.502279e-01 -3.087480e-01 4.173350e-02
    outer loop
      vertex -1.513851e+00 -7.348551e+00 3.035710e+00
      vertex -1.856852e+00 -7.275651e+00 1.138390e+01
      vertex -1.538450e+00 -7.424251e+00 3.035710e+00
    endloop
  endfacet
  facet normal 9.936554e-01 -1.044380e-01 4.173351e-02
    outer loop
      vertex -1.414650e+00 -6.404951e+00 3.035710e+00
      vertex -1.856852e+00 -7.275651e+00 1.138390e+01
      vertex -1.513851e+00 -7.348551e+00 3.035710e+00
    endloop
  endfacet
  facet normal 9.936555e-01 -1.044371e-01 4.173352e-02
    outer loop
      vertex -1.756950e+00 -6.325751e+00 1.138390e+01
      vertex -1.856852e+00 -7.275651e+00 1.138390e+01
      vertex -1.414650e+00 -6.404951e+00 3.035710e+00
    endloop
  endfacet
  facet normal 9.936555e-01 -1.044371e-01 4.173352e-02
    outer loop
      vertex -1.406351e+00 -6.325751e+00 3.035710e+00
      vertex -1.756950e+00 -6.325751e+00 1.138390e+01
      vertex -1.414650e+00 -6.404951e+00 3.035710e+00
    endloop
  endfacet
  facet normal 9.936554e-01 1.044380e-01 4.173351e-02
    outer loop
      vertex -1.505550e+00 -5.382151e+00 3.035710e+00
      vertex -1.756950e+00 -6.325751e+00 1.138390e+01
      vertex -1.406351e+00 -6.325751e+00 3.035710e+00
    endloop
  endfacet
  facet normal 9.936555e-01 1.044371e-01 4.173352e-02
    outer loop
      vertex -1.513851e+00 -5.302951e+00 3.035710e+00
      vertex -1.856852e+00 -5.375851e+00 1.138390e+01
      vertex -1.756950e+00 -6.325751e+00 1.138390e+01
    endloop
  endfacet
  facet normal 9.936555e-01 1.044371e-01 4.173352e-02
    outer loop
      vertex -1.505550e+00 -5.382151e+00 3.035710e+00
      vertex -1.513851e+00 -5.302951e+00 3.035710e+00
      vertex -1.756950e+00 -6.325751e+00 1.138390e+01
    endloop
  endfacet
  facet normal 9.502282e-01 3.087471e-01 4.173351e-02
    outer loop
      vertex -1.807051e+00 -4.400551e+00 3.035710e+00
      vertex -1.856852e+00 -5.375851e+00 1.138390e+01
      vertex -1.513851e+00 -5.302951e+00 3.035710e+00
    endloop
  endfacet
  facet normal 9.502279e-01 3.087480e-01 4.173350e-02
    outer loop
      vertex -1.831652e+00 -4.324850e+00 3.035710e+00
      vertex -2.151951e+00 -4.467451e+00 1.138390e+01
      vertex -1.856852e+00 -5.375851e+00 1.138390e+01
    endloop
  endfacet
  facet normal 9.502279e-01 3.087480e-01 4.173350e-02
    outer loop
      vertex -1.807051e+00 -4.400551e+00 3.035710e+00
      vertex -1.831652e+00 -4.324850e+00 3.035710e+00
      vertex -1.856852e+00 -5.375851e+00 1.138390e+01
    endloop
  endfacet
  facet normal 8.652707e-01 4.995648e-01 4.173348e-02
    outer loop
      vertex -1.831652e+00 -4.324850e+00 3.035710e+00
      vertex -2.306051e+00 -3.503151e+00 3.035710e+00
      vertex -2.151951e+00 -4.467451e+00 1.138390e+01
    endloop
  endfacet
  facet normal 8.652707e-01 4.995648e-01 4.173348e-02
    outer loop
      vertex -2.345850e+00 -3.434252e+00 3.035710e+00
      vertex -2.629551e+00 -3.640251e+00 1.138390e+01
      vertex -2.151951e+00 -4.467451e+00 1.138390e+01
    endloop
  endfacet
  facet normal 8.652707e-01 4.995648e-01 4.173348e-02
    outer loop
      vertex -2.306051e+00 -3.503151e+00 3.035710e+00
      vertex -2.345850e+00 -3.434252e+00 3.035710e+00
      vertex -2.151951e+00 -4.467451e+00 1.138390e+01
    endloop
  endfacet
  facet normal 7.424980e-01 6.685470e-01 4.173350e-02
    outer loop
      vertex -2.345850e+00 -3.434252e+00 3.035710e+00
      vertex -2.980751e+00 -2.729052e+00 3.035710e+00
      vertex -2.629551e+00 -3.640251e+00 1.138390e+01
    endloop
  endfacet
  facet normal 7.424970e-01 6.685480e-01 4.173360e-02
    outer loop
      vertex -3.034050e+00 -2.669950e+00 3.035710e+00
      vertex -3.268650e+00 -2.930552e+00 1.138390e+01
      vertex -2.629551e+00 -3.640251e+00 1.138390e+01
    endloop
  endfacet
  facet normal 7.424970e-01 6.685480e-01 4.173360e-02
    outer loop
      vertex -2.980751e+00 -2.729052e+00 3.035710e+00
      vertex -3.034050e+00 -2.669950e+00 3.035710e+00
      vertex -2.629551e+00 -3.640251e+00 1.138390e+01
    endloop
  endfacet
  facet normal 5.872731e-01 8.083122e-01 4.173361e-02
    outer loop
      vertex -3.034050e+00 -2.669950e+00 3.035710e+00
      vertex -3.801651e+00 -2.112251e+00 3.035710e+00
      vertex -3.268650e+00 -2.930552e+00 1.138390e+01
    endloop
  endfacet
  facet normal 5.872738e-01 8.083117e-01 4.173348e-02
    outer loop
      vertex -4.041351e+00 -2.369051e+00 1.138390e+01
      vertex -3.268650e+00 -2.930552e+00 1.138390e+01
      vertex -3.866051e+00 -2.065451e+00 3.035710e+00
    endloop
  endfacet
  facet normal 5.872738e-01 8.083117e-01 4.173348e-02
    outer loop
      vertex -3.866051e+00 -2.065451e+00 3.035710e+00
      vertex -3.268650e+00 -2.930552e+00 1.138390e+01
      vertex -3.801651e+00 -2.112251e+00 3.035710e+00
    endloop
  endfacet
  facet normal 4.063831e-01 9.127492e-01 4.173351e-02
    outer loop
      vertex -3.866051e+00 -2.065451e+00 3.035710e+00
      vertex -4.732851e+00 -1.679550e+00 3.035710e+00
      vertex -4.041351e+00 -2.369051e+00 1.138390e+01
    endloop
  endfacet
  facet normal 4.063811e-01 9.127501e-01 4.173360e-02
    outer loop
      vertex -4.913950e+00 -1.980650e+00 1.138390e+01
      vertex -4.041351e+00 -2.369051e+00 1.138390e+01
      vertex -4.805552e+00 -1.647150e+00 3.035710e+00
    endloop
  endfacet
  facet normal 4.063811e-01 9.127501e-01 4.173360e-02
    outer loop
      vertex -4.805552e+00 -1.647150e+00 3.035710e+00
      vertex -4.041351e+00 -2.369051e+00 1.138390e+01
      vertex -4.732851e+00 -1.679550e+00 3.035710e+00
    endloop
  endfacet
  facet normal 2.077311e-01 9.772953e-01 4.173362e-02
    outer loop
      vertex -4.805552e+00 -1.647150e+00 3.035710e+00
      vertex -5.733651e+00 -1.449850e+00 3.035710e+00
      vertex -4.913950e+00 -1.980650e+00 1.138390e+01
    endloop
  endfacet
  facet normal 2.077311e-01 9.772953e-01 4.173362e-02
    outer loop
      vertex -5.848151e+00 -1.782051e+00 1.138390e+01
      vertex -4.913950e+00 -1.980650e+00 1.138390e+01
      vertex -5.811551e+00 -1.433352e+00 3.035710e+00
    endloop
  endfacet
  facet normal 2.077311e-01 9.772953e-01 4.173362e-02
    outer loop
      vertex -5.811551e+00 -1.433352e+00 3.035710e+00
      vertex -4.913950e+00 -1.980650e+00 1.138390e+01
      vertex -5.733651e+00 -1.449850e+00 3.035710e+00
    endloop
  endfacet
  facet normal 0.000000e+00 9.991288e-01 4.173359e-02
    outer loop
      vertex -6.839951e+00 -1.433352e+00 3.035710e+00
      vertex -6.803350e+00 -1.782051e+00 1.138390e+01
      vertex -5.811551e+00 -1.433352e+00 3.035710e+00
    endloop
  endfacet
  facet normal 0.000000e+00 9.991288e-01 4.173359e-02
    outer loop
      vertex -5.811551e+00 -1.433352e+00 3.035710e+00
      vertex -6.803350e+00 -1.782051e+00 1.138390e+01
      vertex -5.848151e+00 -1.782051e+00 1.138390e+01
    endloop
  endfacet
  facet normal -2.077311e-01 9.772953e-01 4.173362e-02
    outer loop
      vertex -6.839951e+00 -1.433352e+00 3.035710e+00
      vertex -7.768051e+00 -1.630550e+00 3.035710e+00
      vertex -6.803350e+00 -1.782051e+00 1.138390e+01
    endloop
  endfacet
  facet normal -2.077311e-01 9.772953e-01 4.173362e-02
    outer loop
      vertex -7.845951e+00 -1.647150e+00 3.035710e+00
      vertex -7.737551e+00 -1.980650e+00 1.138390e+01
      vertex -7.768051e+00 -1.630550e+00 3.035710e+00
    endloop
  endfacet
  facet normal -2.077311e-01 9.772953e-01 4.173362e-02
    outer loop
      vertex -7.768051e+00 -1.630550e+00 3.035710e+00
      vertex -7.737551e+00 -1.980650e+00 1.138390e+01
      vertex -6.803350e+00 -1.782051e+00 1.138390e+01
    endloop
  endfacet
  facet normal -4.063831e-01 9.127492e-01 4.173361e-02
    outer loop
      vertex -7.845951e+00 -1.647150e+00 3.035710e+00
      vertex -8.712750e+00 -2.033051e+00 3.035710e+00
      vertex -7.737551e+00 -1.980650e+00 1.138390e+01
    endloop
  endfacet
  facet normal -4.063811e-01 9.127501e-01 4.173350e-02
    outer loop
      vertex -8.785451e+00 -2.065451e+00 3.035710e+00
      vertex -8.610151e+00 -2.369051e+00 1.138390e+01
      vertex -8.712750e+00 -2.033051e+00 3.035710e+00
    endloop
  endfacet
  facet normal -4.063811e-01 9.127501e-01 4.173350e-02
    outer loop
      vertex -8.712750e+00 -2.033051e+00 3.035710e+00
      vertex -8.610151e+00 -2.369051e+00 1.138390e+01
      vertex -7.737551e+00 -1.980650e+00 1.138390e+01
    endloop
  endfacet
  facet normal -5.872731e-01 8.083122e-01 4.173351e-02
    outer loop
      vertex -8.785451e+00 -2.065451e+00 3.035710e+00
      vertex -9.553051e+00 -2.623152e+00 3.035710e+00
      vertex -8.610151e+00 -2.369051e+00 1.138390e+01
    endloop
  endfacet
  facet normal -5.872738e-01 8.083117e-01 4.173359e-02
    outer loop
      vertex -9.617451e+00 -2.669950e+00 3.035710e+00
      vertex -9.382851e+00 -2.930552e+00 1.138390e+01
      vertex -9.553051e+00 -2.623152e+00 3.035710e+00
    endloop
  endfacet
  facet normal -5.872738e-01 8.083117e-01 4.173359e-02
    outer loop
      vertex -9.553051e+00 -2.623152e+00 3.035710e+00
      vertex -9.382851e+00 -2.930552e+00 1.138390e+01
      vertex -8.610151e+00 -2.369051e+00 1.138390e+01
    endloop
  endfacet
  facet normal -7.424980e-01 6.685470e-01 4.173360e-02
    outer loop
      vertex -9.617451e+00 -2.669950e+00 3.035710e+00
      vertex -1.025235e+01 -3.375051e+00 3.035710e+00
      vertex -9.382851e+00 -2.930552e+00 1.138390e+01
    endloop
  endfacet
  facet normal -7.424970e-01 6.685480e-01 4.173350e-02
    outer loop
      vertex -1.030565e+01 -3.434252e+00 3.035710e+00
      vertex -1.002195e+01 -3.640251e+00 1.138390e+01
      vertex -1.025235e+01 -3.375051e+00 3.035710e+00
    endloop
  endfacet
  facet normal -7.424970e-01 6.685480e-01 4.173350e-02
    outer loop
      vertex -1.025235e+01 -3.375051e+00 3.035710e+00
      vertex -1.002195e+01 -3.640251e+00 1.138390e+01
      vertex -9.382851e+00 -2.930552e+00 1.138390e+01
    endloop
  endfacet
  facet normal -8.652707e-01 4.995648e-01 4.173348e-02
    outer loop
      vertex -1.030565e+01 -3.434252e+00 3.035710e+00
      vertex -1.078005e+01 -4.255951e+00 3.035710e+00
      vertex -1.002195e+01 -3.640251e+00 1.138390e+01
    endloop
  endfacet
  facet normal -8.652707e-01 4.995648e-01 4.173348e-02
    outer loop
      vertex -1.081985e+01 -4.324850e+00 3.035710e+00
      vertex -1.049955e+01 -4.467451e+00 1.138390e+01
      vertex -1.078005e+01 -4.255951e+00 3.035710e+00
    endloop
  endfacet
  facet normal -8.652707e-01 4.995648e-01 4.173348e-02
    outer loop
      vertex -1.078005e+01 -4.255951e+00 3.035710e+00
      vertex -1.049955e+01 -4.467451e+00 1.138390e+01
      vertex -1.002195e+01 -3.640251e+00 1.138390e+01
    endloop
  endfacet
  facet normal -9.502282e-01 3.087471e-01 4.173351e-02
    outer loop
      vertex -1.081985e+01 -4.324850e+00 3.035710e+00
      vertex -1.111305e+01 -5.227251e+00 3.035710e+00
      vertex -1.049955e+01 -4.467451e+00 1.138390e+01
    endloop
  endfacet
  facet normal -9.502279e-01 3.087480e-01 4.173350e-02
    outer loop
      vertex -1.113765e+01 -5.302951e+00 3.035710e+00
      vertex -1.079465e+01 -5.375851e+00 1.138390e+01
      vertex -1.111305e+01 -5.227251e+00 3.035710e+00
    endloop
  endfacet
  facet normal -9.502279e-01 3.087480e-01 4.173350e-02
    outer loop
      vertex -1.111305e+01 -5.227251e+00 3.035710e+00
      vertex -1.079465e+01 -5.375851e+00 1.138390e+01
      vertex -1.049955e+01 -4.467451e+00 1.138390e+01
    endloop
  endfacet
  facet normal -9.936554e-01 1.044380e-01 4.173351e-02
    outer loop
      vertex -1.113765e+01 -5.302951e+00 3.035710e+00
      vertex -1.123675e+01 -6.246551e+00 3.035710e+00
      vertex -1.079465e+01 -5.375851e+00 1.138390e+01
    endloop
  endfacet
  facet normal 0.000000e+00 0.000000e+00 -1.000000e+00
    outer loop
      vertex 8.615648e+00 1.006115e+01 1.517860e+00
      vertex 8.615648e+00 8.615648e+00 1.517860e+00
      vertex -1.753180e+01 1.006115e+01 1.517860e+00
    endloop
  endfacet
  facet normal 0.000000e+00 0.000000e+00 -1.000000e+00
    outer loop
      vertex 1.006115e+01 -1.753180e+01 1.517860e+00
      vertex 8.615648e+00 8.615648e+00 1.517860e+00
      vertex 1.006115e+01 8.615648e+00 1.517860e+00
    endloop
  endfacet
  facet normal 0.000000e+00 0.000000e+00 -1.000000e+00
    outer loop
      vertex -1.753180e+01 1.006115e+01 1.517860e+00
      vertex 8.615648e+00 8.615648e+00 1.517860e+00
      vertex 1.006115e+01 -1.753180e+01 1.517860e+00
    endloop
  endfacet
  facet normal 0.000000e+00 0.000000e+00 -1.000000e+00
    outer loop
      vertex -1.753180e+01 1.006115e+01 1.517860e+00
      vertex 1.006115e+01 -1.753180e+01 1.517860e+00
      vertex -1.753180e+01 -1.753180e+01 1.517860e+00
    endloop
  endfacet
  facet normal 0.000000e+00 0.000000e+00 1.000000e+00
    outer loop
      vertex -1.079465e+01 -5.375851e+00 1.138390e+01
      vertex -1.089445e+01 -6.325751e+00 1.138390e+01
      vertex -1.079465e+01 -7.275651e+00 1.138390e+01
    endloop
  endfacet
  facet normal 0.000000e+00 0.000000e+00 1.000000e+00
    outer loop
      vertex -1.002195e+01 -9.011151e+00 1.138390e+01
      vertex -1.079465e+01 -5.375851e+00 1.138390e+01
      vertex -1.049955e+01 -8.184051e+00 1.138390e+01
    endloop
  endfacet
  facet normal 0.000000e+00 0.000000e+00 1.000000e+00
    outer loop
      vertex -1.049955e+01 -8.184051e+00 1.138390e+01
      vertex -1.079465e+01 -5.375851e+00 1.138390e+01
      vertex -1.079465e+01 -7.275651e+00 1.138390e+01
    endloop
  endfacet
  facet normal 0.000000e+00 0.000000e+00 1.000000e+00
    outer loop
      vertex -9.382851e+00 -9.720951e+00 1.138390e+01
      vertex -1.079465e+01 -5.375851e+00 1.138390e+01
      vertex -1.002195e+01 -9.011151e+00 1.138390e+01
    endloop
  endfacet
  facet normal 0.000000e+00 0.000000e+00 1.000000e+00
    outer loop
      vertex -8.610151e+00 -1.028235e+01 1.138390e+01
      vertex -1.079465e+01 -5.375851e+00 1.138390e+01
      vertex -9.382851e+00 -9.720951e+00 1.138390e+01
    endloop
  endfacet
  facet normal 0.000000e+00 0.000000e+00 1.000000e+00
    outer loop
      vertex -7.737551e+00 -1.067085e+01 1.138390e+01
      vertex -1.079465e+01 -5.375851e+00 1.138390e+01
      vertex -8.610151e+00 -1.028235e+01 1.138390e+01
    endloop
  endfacet
  facet normal 0.000000e+00 0.000000e+00 1.000000e+00
    outer loop
      vertex -6.803350e+00 -1.086945e+01 1.138390e+01
      vertex -1.079465e+01 -5.375851e+00 1.138390e+01
      vertex -7.737551e+00 -1.067085e+01 1.138390e+01
    endloop
  endfacet
  facet normal 0.000000e+00 0.000000e+00 1.000000e+00
    outer loop
      vertex -5.848151e+00 -1.086945e+01 1.138390e+01
      vertex -1.079465e+01 -5.375851e+00 1.138390e+01
      vertex -6.803350e+00 -1.086945e+01 1.138390e+01
    endloop
  endfacet
  facet normal 0.000000e+00 0.000000e+00 1.000000e+00
    outer loop
      vertex -4.913950e+00 -1.067085e+01 1.138390e+01
      vertex -1.079465e+01 -5.375851e+00 1.138390e+01
      vertex -5.848151e+00 -1.086945e+01 1.138390e+01
    endloop
  endfacet
  facet normal 0.000000e+00 0.000000e+00 1.000000e+00
    outer loop
      vertex -4.041351e+00 -1.028235e+01 1.138390e+01
      vertex -1.079465e+01 -5.375851e+00 1.138390e+01
      vertex -4.913950e+00 -1.067085e+01 1.138390e+01
    endloop
  endfacet
  facet normal 0.000000e+00 0.000000e+00 1.000000e+00
    outer loop
      vertex -3.268650e+00 -9.720951e+00 1.138390e+01
      vertex -1.079465e+01 -5.375851e+00 1.138390e+01
      vertex -4.041351e+00 -1.028235e+01 1.138390e+01
    endloop
  endfacet
  facet normal 0.000000e+00 0.000000e+00 1.000000e+00
    outer loop
      vertex -2.629551e+00 -9.011151e+00 1.138390e+01
      vertex -1.079465e+01 -5.375851e+00 1.138390e+01
      vertex -3.268650e+00 -9.720951e+00 1.138390e+01
    endloop
  endfacet
  facet normal 0.000000e+00 0.000000e+00 1.000000e+00
    outer loop
      vertex -2.151951e+00 -8.184051e+00 1.138390e+01
      vertex -1.079465e+01 -5.375851e+00 1.138390e+01
      vertex -2.629551e+00 -9.011151e+00 1.138390e+01
    endloop
  endfacet
  facet normal 0.000000e+00 0.000000e+00 1.000000e+00
    outer loop
      vertex -1.856852e+00 -7.275651e+00 1.138390e+01
      vertex -1.079465e+01 -5.375851e+00 1.138390e+01
      vertex -2.151951e+00 -8.184051e+00 1.138390e+01
    endloop
  endfacet
  facet normal 0.000000e+00 0.000000e+00 1.000000e+00
    outer loop
      vertex -1.756950e+00 -6.325751e+00 1.138390e+01
      vertex -1.079465e+01 -5.375851e+00 1.138390e+01
      vertex -1.856852e+00 -7.275651e+00 1.138390e+01
    endloop
  endfacet
  facet normal 0.000000e+00 0.000000e+00 1.000000e+00
    outer loop
      vertex -1.856852e+00 -5.375851e+00 1.138390e+01
      vertex -1.079465e+01 -5.375851e+00 1.138390e+01
      vertex -1.756950e+00 -6.325751e+00 1.138390e+01
    endloop
  endfacet
  facet normal 0.000000e+00 0.000000e+00 1.000000e+00
    outer loop
      vertex -2.151951e+00 -4.467451e+00 1.138390e+01
      vertex -1.079465e+01 -5.375851e+00 1.138390e+01
      vertex -1.856852e+00 -5.375851e+00 1.138390e+01
    endloop
  endfacet
  facet normal 0.000000e+00 0.000000e+00 1.000000e+00
    outer loop
      vertex -2.629551e+00 -3.640251e+00 1.138390e+01
      vertex -1.079465e+01 -5.375851e+00 1.138390e+01
      vertex -2.151951e+00 -4.467451e+00 1.138390e+01
    endloop
  endfacet
  facet normal 0.000000e+00 0.000000e+00 1.000000e+00
    outer loop
      vertex -3.268650e+00 -2.930552e+00 1.138390e+01
      vertex -1.079465e+01 -5.375851e+00 1.138390e+01
      vertex -2.629551e+00 -3.640251e+00 1.138390e+01
    endloop
  endfacet
  facet normal 0.000000e+00 0.000000e+00 1.000000e+00
    outer loop
      vertex -4.041351e+00 -2.369051e+00 1.138390e+01
      vertex -1.079465e+01 -5.375851e+00 1.138390e+01
      vertex -3.268650e+00 -2.930552e+00 1.138390e+01
    endloop
  endfacet
  facet normal 0.000000e+00 0.000000e+00 1.000000e+00
    outer loop
      vertex -4.913950e+00 -1.980650e+00 1.138390e+01
      vertex -1.079465e+01 -5.375851e+00 1.138390e+01
      vertex -4.041351e+00 -2.369051e+00 1.138390e+01
    endloop
  endfacet
  facet normal 0.000000e+00 0.000000e+00 1.000000e+00
    outer loop
      vertex -5.848151e+00 -1.782051e+00 1.138390e+01
      vertex -1.079465e+01 -5.375851e+00 1.138390e+01
      vertex -4.913950e+00 -1.980650e+00 1.138390e+01
    endloop
  endfacet
  facet normal 0.000000e+00 0.000000e+00 1.000000e+00
    outer loop
      vertex -6.803350e+00 -1.782051e+00 1.138390e+01
      vertex -1.079465e+01 -5.375851e+00 1.138390e+01
      vertex -5.848151e+00 -1.782051e+00 1.138390e+01
    endloop
  endfacet
  facet normal 0.000000e+00 0.000000e+00 1.000000e+00
    outer loop
      vertex -7.737551e+00 -1.980650e+00 1.138390e+01
      vertex -1.079465e+01 -5.375851e+00 1.138390e+01
      vertex -6.803350e+00 -1.782051e+00 1.138390e+01
    endloop
  endfacet
  facet normal 0.000000e+00 0.000000e+00 1.000000e+00
    outer loop
      vertex -8.610151e+00 -2.369051e+00 1.138390e+01
      vertex -1.079465e+01 -5.375851e+00 1.138390e+01
      vertex -7.737551e+00 -1.980650e+00 1.138390e+01
    endloop
  endfacet
  facet normal 0.000000e+00 0.000000e+00 1.000000e+00
    outer loop
      vertex -9.382851e+00 -2.930552e+00 1.138390e+01
      vertex -1.079465e+01 -5.375851e+00 1.138390e+01
      vertex -8.610151e+00 -2.369051e+00 1.138390e+01
    endloop
  endfacet
  facet normal 0.000000e+00 0.000000e+00 1.000000e+00
    outer loop
      vertex -1.002195e+01 -3.640251e+00 1.138390e+01
      vertex -1.079465e+01 -5.375851e+00 1.138390e+01
      vertex -9.382851e+00 -2.930552e+00 1.138390e+01
    endloop
  endfacet
  facet normal 0.000000e+00 0.000000e+00 1.000000e+00
    outer loop
      vertex -1.049955e+01 -4.467451e+00 1.138390e+01
      vertex -1.079465e+01 -5.375851e+00 1.138390e+01
      vertex -1.002195e+01 -3.640251e+00 1.138390e+01
    endloop
  endfacet
endsolid Default
