solid Default
  facet normal -1.000000e+00 -0.000000e+00 -0.000000e+00
    outer loop
      vertex -2.533800e+01 -9.750000e+00 0.000000e+00
      vertex -2.533800e+01 -9.750000e+00 3.644440e+00
      vertex -2.533800e+01 9.750000e+00 0.000000e+00
    endloop
  endfacet
  facet normal -1.000000e+00 0.000000e+00 0.000000e+00
    outer loop
      vertex -2.533800e+01 9.750000e+00 0.000000e+00
      vertex -2.533800e+01 -9.750000e+00 3.644440e+00
      vertex -2.533800e+01 9.750000e+00 3.644440e+00
    endloop
  endfacet
  facet normal 0.000000e+00 -1.000000e+00 0.000000e+00
    outer loop
      vertex -2.533800e+01 -9.750000e+00 3.644440e+00
      vertex -2.533800e+01 -9.750000e+00 0.000000e+00
      vertex 2.533800e+01 -9.750000e+00 0.000000e+00
    endloop
  endfacet
  facet normal 0.000000e+00 -1.000000e+00 0.000000e+00
    outer loop
      vertex 2.533800e+01 -9.750000e+00 3.644440e+00
      vertex -2.533800e+01 -9.750000e+00 3.644440e+00
      vertex 2.533800e+01 -9.750000e+00 0.000000e+00
    endloop
  endfacet
  facet normal -0.000000e+00 -0.000000e+00 -1.000000e+00
    outer loop
      vertex -2.533800e+01 -9.750000e+00 0.000000e+00
      vertex -2.533800e+01 9.750000e+00 0.000000e+00
      vertex 2.533800e+01 -9.750000e+00 0.000000e+00
    endloop
  endfacet
  facet normal 0.000000e+00 0.000000e+00 -1.000000e+00
    outer loop
      vertex 2.533800e+01 -9.750000e+00 0.000000e+00
      vertex -2.533800e+01 9.750000e+00 0.000000e+00
      vertex 2.533800e+01 9.750000e+00 0.000000e+00
    endloop
  endfacet
  facet normal 0.000000e+00 1.000000e+00 0.000000e+00
    outer loop
      vertex -2.533800e+01 9.750000e+00 0.000000e+00
      vertex -2.533800e+01 9.750000e+00 3.644440e+00
      vertex 2.533800e+01 9.750000e+00 0.000000e+00
    endloop
  endfacet
  facet normal 0.000000e+00 1.000000e+00 0.000000e+00
    outer loop
      vertex 2.533800e+01 9.750000e+00 0.000000e+00
      vertex -2.533800e+01 9.750000e+00 3.644440e+00
      vertex 2.533800e+01 9.750000e+00 3.644440e+00
    endloop
  endfacet
  facet normal 0.000000e+00 0.000000e+00 1.000000e+00
    outer loop
      vertex -2.533800e+01 9.750000e+00 3.644440e+00
      vertex -2.533800e+01 -9.750000e+00 3.644440e+00
      vertex 2.533800e+01 -9.750000e+00 3.644440e+00
    endloop
  endfacet
  facet normal 0.000000e+00 0.000000e+00 1.000000e+00
    outer loop
      vertex 2.533800e+01 9.750000e+00 3.644440e+00
      vertex -2.533800e+01 9.750000e+00 3.644440e+00
      vertex 2.533800e+01 -9.750000e+00 3.644440e+00
    endloop
  endfacet
  facet normal 1.000000e+00 0.000000e+00 0.000000e+00
    outer loop
      vertex 2.533800e+01 -9.750000e+00 3.644440e+00
      vertex 2.533800e+01 -9.750000e+00 0.000000e+00
      vertex 2.533800e+01 9.750000e+00 0.000000e+00
    endloop
  endfacet
  facet normal 1.000000e+00 0.000000e+00 0.000000e+00
    outer loop
      vertex 2.533800e+01 9.750000e+00 3.644440e+00
      vertex 2.533800e+01 -9.750000e+00 3.644440e+00
      vertex 2.533800e+01 9.750000e+00 0.000000e+00
    endloop
  endfacet
  facet normal -1.000000e+00 -0.000000e+00 -0.000000e+00
    outer loop
      vertex -2.204406e+01 -7.057690e+00 3.644440e+00
      vertex -2.204406e+01 -7.057690e+00 6.074070e+00
      vertex -2.204406e+01 6.067300e+00 3.644440e+00
    endloop
  endfacet
  facet normal -1.000000e+00 0.000000e+00 0.000000e+00
    outer loop
      vertex -2.204406e+01 6.067300e+00 3.644440e+00
      vertex -2.204406e+01 -7.057690e+00 6.074070e+00
      vertex -2.204406e+01 6.067300e+00 6.074070e+00
    endloop
  endfacet
  facet normal 0.000000e+00 -1.000000e+00 0.000000e+00
    outer loop
      vertex -2.204406e+01 -7.057690e+00 6.074070e+00
      vertex -2.204406e+01 -7.057690e+00 3.644440e+00
      vertex -3.040600e+00 -7.057690e+00 3.644440e+00
    endloop
  endfacet
  facet normal 0.000000e+00 -1.000000e+00 0.000000e+00
    outer loop
      vertex -3.040600e+00 -7.057690e+00 6.074070e+00
      vertex -2.204406e+01 -7.057690e+00 6.074070e+00
      vertex -3.040600e+00 -7.057690e+00 3.644440e+00
    endloop
  endfacet
  facet normal -0.000000e+00 -0.000000e+00 -1.000000e+00
    outer loop
      vertex -2.204406e+01 -7.057690e+00 3.644440e+00
      vertex -2.204406e+01 6.067300e+00 3.644440e+00
      vertex -3.040600e+00 -7.057690e+00 3.644440e+00
    endloop
  endfacet
  facet normal 0.000000e+00 0.000000e+00 -1.000000e+00
    outer loop
      vertex -3.040600e+00 -7.057690e+00 3.644440e+00
      vertex -2.204406e+01 6.067300e+00 3.644440e+00
      vertex -3.040600e+00 6.067300e+00 3.644440e+00
    endloop
  endfacet
  facet normal 0.000000e+00 1.000000e+00 0.000000e+00
    outer loop
      vertex -2.204406e+01 6.067300e+00 3.644440e+00
      vertex -2.204406e+01 6.067300e+00 6.074070e+00
      vertex -3.040600e+00 6.067300e+00 3.644440e+00
    endloop
  endfacet
  facet normal 0.000000e+00 1.000000e+00 0.000000e+00
    outer loop
      vertex -3.040600e+00 6.067300e+00 3.644440e+00
      vertex -2.204406e+01 6.067300e+00 6.074070e+00
      vertex -3.040600e+00 6.067300e+00 6.074070e+00
    endloop
  endfacet
  facet normal 0.000000e+00 0.000000e+00 1.000000e+00
    outer loop
      vertex -2.204406e+01 6.067300e+00 6.074070e+00
      vertex -2.204406e+01 -7.057690e+00 6.074070e+00
      vertex -3.040600e+00 -7.057690e+00 6.074070e+00
    endloop
  endfacet
  facet normal 0.000000e+00 0.000000e+00 1.000000e+00
    outer loop
      vertex -3.040600e+00 6.067300e+00 6.074070e+00
      vertex -2.204406e+01 6.067300e+00 6.074070e+00
      vertex -3.040600e+00 -7.057690e+00 6.074070e+00
    endloop
  endfacet
  facet normal 1.000000e+00 0.000000e+00 0.000000e+00
    outer loop
      vertex -3.040600e+00 -7.057690e+00 6.074070e+00
      vertex -3.040600e+00 -7.057690e+00 3.644440e+00
      vertex -3.040600e+00 6.067300e+00 3.644440e+00
    endloop
  endfacet
  facet normal 1.000000e+00 0.000000e+00 0.000000e+00
    outer loop
      vertex -3.040600e+00 6.067300e+00 6.074070e+00
      vertex -3.040600e+00 -7.057690e+00 6.074070e+00
      vertex -3.040600e+00 6.067300e+00 3.644440e+00
    endloop
  endfacet
  facet normal -1.000000e+00 -0.000000e+00 -0.000000e+00
    outer loop
      vertex 3.293901e+00 -7.057690e+00 3.644440e+00
      vertex 3.293901e+00 -7.057690e+00 6.074070e+00
      vertex 3.293901e+00 6.067300e+00 3.644440e+00
    endloop
  endfacet
  facet normal -1.000000e+00 0.000000e+00 0.000000e+00
    outer loop
      vertex 3.293901e+00 6.067300e+00 3.644440e+00
      vertex 3.293901e+00 -7.057690e+00 6.074070e+00
      vertex 3.293901e+00 6.067300e+00 6.074070e+00
    endloop
  endfacet
  facet normal 0.000000e+00 -1.000000e+00 0.000000e+00
    outer loop
      vertex 3.293901e+00 -7.057690e+00 6.074070e+00
      vertex 3.293901e+00 -7.057690e+00 3.644440e+00
      vertex 2.229740e+01 -7.057690e+00 3.644440e+00
    endloop
  endfacet
  facet normal 0.000000e+00 -1.000000e+00 0.000000e+00
    outer loop
      vertex 2.229740e+01 -7.057690e+00 6.074070e+00
      vertex 3.293901e+00 -7.057690e+00 6.074070e+00
      vertex 2.229740e+01 -7.057690e+00 3.644440e+00
    endloop
  endfacet
  facet normal -0.000000e+00 -0.000000e+00 -1.000000e+00
    outer loop
      vertex 3.293901e+00 -7.057690e+00 3.644440e+00
      vertex 3.293901e+00 6.067300e+00 3.644440e+00
      vertex 2.229740e+01 -7.057690e+00 3.644440e+00
    endloop
  endfacet
  facet normal 0.000000e+00 0.000000e+00 -1.000000e+00
    outer loop
      vertex 2.229740e+01 -7.057690e+00 3.644440e+00
      vertex 3.293901e+00 6.067300e+00 3.644440e+00
      vertex 2.229740e+01 6.067300e+00 3.644440e+00
    endloop
  endfacet
  facet normal 0.000000e+00 1.000000e+00 0.000000e+00
    outer loop
      vertex 3.293901e+00 6.067300e+00 3.644440e+00
      vertex 3.293901e+00 6.067300e+00 6.074070e+00
      vertex 2.229740e+01 6.067300e+00 3.644440e+00
    endloop
  endfacet
  facet normal 0.000000e+00 1.000000e+00 0.000000e+00
    outer loop
      vertex 2.229740e+01 6.067300e+00 3.644440e+00
      vertex 3.293901e+00 6.067300e+00 6.074070e+00
      vertex 2.229740e+01 6.067300e+00 6.074070e+00
    endloop
  endfacet
  facet normal 0.000000e+00 0.000000e+00 1.000000e+00
    outer loop
      vertex 3.293901e+00 6.067300e+00 6.074070e+00
      vertex 3.293901e+00 -7.057690e+00 6.074070e+00
      vertex 2.229740e+01 -7.057690e+00 6.074070e+00
    endloop
  endfacet
  facet normal 0.000000e+00 0.000000e+00 1.000000e+00
    outer loop
      vertex 2.229740e+01 6.067300e+00 6.074070e+00
      vertex 3.293901e+00 6.067300e+00 6.074070e+00
      vertex 2.229740e+01 -7.057690e+00 6.074070e+00
    endloop
  endfacet
  facet normal 1.000000e+00 0.000000e+00 0.000000e+00
    outer loop
      vertex 2.229740e+01 -7.057690e+00 6.074070e+00
      vertex 2.229740e+01 -7.057690e+00 3.644440e+00
      vertex 2.229740e+01 6.067300e+00 3.644440e+00
    endloop
  endfacet
  facet normal 1.000000e+00 0.000000e+00 0.000000e+00
    outer loop
      vertex 2.229740e+01 6.067300e+00 6.074070e+00
      vertex 2.229740e+01 -7.057690e+00 6.074070e+00
      vertex 2.229740e+01 6.067300e+00 3.644440e+00
    endloop
  endfacet
endsolid Default
