solid Default
  facet normal -1.000000e+00 -0.000000e+00 -0.000000e+00
    outer loop
      vertex -2.533995e+01 -2.607500e+01 0.000000e+00
      vertex -2.533995e+01 -2.607500e+01 1.050000e+01
      vertex -2.533995e+01 2.607500e+01 0.000000e+00
    endloop
  endfacet
  facet normal -1.000000e+00 0.000000e+00 0.000000e+00
    outer loop
      vertex -2.533995e+01 1.820000e+01 5.250000e+00
      vertex -2.533995e+01 -2.607500e+01 1.050000e+01
      vertex -2.533995e+01 1.820000e+01 1.050000e+01
    endloop
  endfacet
  facet normal -1.000000e+00 0.000000e+00 0.000000e+00
    outer loop
      vertex -2.533995e+01 2.607500e+01 0.000000e+00
      vertex -2.533995e+01 -2.607500e+01 1.050000e+01
      vertex -2.533995e+01 1.820000e+01 5.250000e+00
    endloop
  endfacet
  facet normal -1.000000e+00 0.000000e+00 0.000000e+00
    outer loop
      vertex -2.533995e+01 2.607500e+01 5.250000e+00
      vertex -2.533995e+01 2.607500e+01 0.000000e+00
      vertex -2.533995e+01 1.820000e+01 5.250000e+00
    endloop
  endfacet
  facet normal 0.000000e+00 -1.000000e+00 0.000000e+00
    outer loop
      vertex -2.533995e+01 -2.607500e+01 1.050000e+01
      vertex -2.533995e+01 -2.607500e+01 0.000000e+00
      vertex 2.533995e+01 -2.607500e+01 0.000000e+00
    endloop
  endfacet
  facet normal 0.000000e+00 -1.000000e+00 0.000000e+00
    outer loop
      vertex 2.533995e+01 -2.607500e+01 1.050000e+01
      vertex -2.533995e+01 -2.607500e+01 1.050000e+01
      vertex 2.533995e+01 -2.607500e+01 0.000000e+00
    endloop
  endfacet
  facet normal 0.000000e+00 0.000000e+00 -1.000000e+00
    outer loop
      vertex 2.027195e+01 -1.424500e+01 0.000000e+00
      vertex 2.533995e+01 -2.607500e+01 0.000000e+00
      vertex -2.027196e+01 -1.424500e+01 0.000000e+00
    endloop
  endfacet
  facet normal 0.000000e+00 0.000000e+00 -1.000000e+00
    outer loop
      vertex 2.027195e+01 1.820000e+01 0.000000e+00
      vertex -2.533995e+01 2.607500e+01 0.000000e+00
      vertex 2.533995e+01 2.607500e+01 0.000000e+00
    endloop
  endfacet
  facet normal 0.000000e+00 0.000000e+00 -1.000000e+00
    outer loop
      vertex -2.533995e+01 -2.607500e+01 0.000000e+00
      vertex -2.533995e+01 2.607500e+01 0.000000e+00
      vertex -2.027196e+01 1.820000e+01 0.000000e+00
    endloop
  endfacet
  facet normal 0.000000e+00 0.000000e+00 -1.000000e+00
    outer loop
      vertex -2.533995e+01 -2.607500e+01 0.000000e+00
      vertex -2.027196e+01 1.820000e+01 0.000000e+00
      vertex -2.027196e+01 -1.424500e+01 0.000000e+00
    endloop
  endfacet
  facet normal 0.000000e+00 0.000000e+00 -1.000000e+00
    outer loop
      vertex -2.533995e+01 -2.607500e+01 0.000000e+00
      vertex -2.027196e+01 -1.424500e+01 0.000000e+00
      vertex 2.533995e+01 -2.607500e+01 0.000000e+00
    endloop
  endfacet
  facet normal 0.000000e+00 0.000000e+00 -1.000000e+00
    outer loop
      vertex 2.533995e+01 -2.607500e+01 0.000000e+00
      vertex 2.027195e+01 -1.424500e+01 0.000000e+00
      vertex 2.533995e+01 2.607500e+01 0.000000e+00
    endloop
  endfacet
  facet normal 0.000000e+00 0.000000e+00 -1.000000e+00
    outer loop
      vertex 2.027195e+01 -1.424500e+01 0.000000e+00
      vertex 2.027195e+01 1.820000e+01 0.000000e+00
      vertex 2.533995e+01 2.607500e+01 0.000000e+00
    endloop
  endfacet
  facet normal -0.000000e+00 -0.000000e+00 -1.000000e+00
    outer loop
      vertex -2.027196e+01 1.820000e+01 0.000000e+00
      vertex -2.533995e+01 2.607500e+01 0.000000e+00
      vertex 2.027195e+01 1.820000e+01 0.000000e+00
    endloop
  endfacet
  facet normal 0.000000e+00 1.000000e+00 0.000000e+00
    outer loop
      vertex -2.533995e+01 2.607500e+01 0.000000e+00
      vertex -2.533995e+01 2.607500e+01 5.250000e+00
      vertex 2.533995e+01 2.607500e+01 0.000000e+00
    endloop
  endfacet
  facet normal 0.000000e+00 1.000000e+00 0.000000e+00
    outer loop
      vertex 2.533995e+01 2.607500e+01 0.000000e+00
      vertex -2.533995e+01 2.607500e+01 5.250000e+00
      vertex 2.533995e+01 2.607500e+01 5.250000e+00
    endloop
  endfacet
  facet normal 0.000000e+00 0.000000e+00 1.000000e+00
    outer loop
      vertex 2.533995e+01 2.607500e+01 5.250000e+00
      vertex -2.027196e+01 1.820000e+01 5.250000e+00
      vertex 2.027195e+01 1.820000e+01 5.250000e+00
    endloop
  endfacet
  facet normal 0.000000e+00 0.000000e+00 1.000000e+00
    outer loop
      vertex 2.533995e+01 1.820000e+01 5.250000e+00
      vertex 2.533995e+01 2.607500e+01 5.250000e+00
      vertex 2.027195e+01 1.820000e+01 5.250000e+00
    endloop
  endfacet
  facet normal 0.000000e+00 0.000000e+00 1.000000e+00
    outer loop
      vertex 2.533995e+01 2.607500e+01 5.250000e+00
      vertex -2.533995e+01 2.607500e+01 5.250000e+00
      vertex -2.027196e+01 1.820000e+01 5.250000e+00
    endloop
  endfacet
  facet normal 0.000000e+00 0.000000e+00 1.000000e+00
    outer loop
      vertex -2.533995e+01 2.607500e+01 5.250000e+00
      vertex -2.533995e+01 1.820000e+01 5.250000e+00
      vertex -2.027196e+01 1.820000e+01 5.250000e+00
    endloop
  endfacet
  facet normal 0.000000e+00 1.000000e+00 0.000000e+00
    outer loop
      vertex -2.533995e+01 1.820000e+01 5.250000e+00
      vertex -2.533995e+01 1.820000e+01 1.050000e+01
      vertex -2.027196e+01 1.820000e+01 5.250000e+00
    endloop
  endfacet
  facet normal 0.000000e+00 1.000000e+00 0.000000e+00
    outer loop
      vertex -2.027196e+01 1.820000e+01 5.250000e+00
      vertex -2.533995e+01 1.820000e+01 1.050000e+01
      vertex 2.533995e+01 1.820000e+01 1.050000e+01
    endloop
  endfacet
  facet normal 0.000000e+00 1.000000e+00 0.000000e+00
    outer loop
      vertex 2.027195e+01 1.820000e+01 5.250000e+00
      vertex 2.533995e+01 1.820000e+01 1.050000e+01
      vertex 2.533995e+01 1.820000e+01 5.250000e+00
    endloop
  endfacet
  facet normal 0.000000e+00 1.000000e+00 0.000000e+00
    outer loop
      vertex -2.027196e+01 1.820000e+01 5.250000e+00
      vertex 2.533995e+01 1.820000e+01 1.050000e+01
      vertex 2.027195e+01 1.820000e+01 5.250000e+00
    endloop
  endfacet
  facet normal 0.000000e+00 0.000000e+00 1.000000e+00
    outer loop
      vertex -2.027196e+01 -1.424500e+01 1.050000e+01
      vertex -2.533995e+01 -2.607500e+01 1.050000e+01
      vertex 2.533995e+01 -2.607500e+01 1.050000e+01
    endloop
  endfacet
  facet normal 0.000000e+00 0.000000e+00 1.000000e+00
    outer loop
      vertex -2.533995e+01 1.820000e+01 1.050000e+01
      vertex -2.533995e+01 -2.607500e+01 1.050000e+01
      vertex -2.027196e+01 -1.424500e+01 1.050000e+01
    endloop
  endfacet
  facet normal 0.000000e+00 0.000000e+00 1.000000e+00
    outer loop
      vertex -2.027196e+01 1.032500e+01 1.050000e+01
      vertex 2.027195e+01 1.032500e+01 1.050000e+01
      vertex -2.533995e+01 1.820000e+01 1.050000e+01
    endloop
  endfacet
  facet normal 0.000000e+00 0.000000e+00 1.000000e+00
    outer loop
      vertex -2.533995e+01 1.820000e+01 1.050000e+01
      vertex -2.027196e+01 -1.424500e+01 1.050000e+01
      vertex -2.027196e+01 1.032500e+01 1.050000e+01
    endloop
  endfacet
  facet normal 0.000000e+00 0.000000e+00 1.000000e+00
    outer loop
      vertex 2.533995e+01 1.820000e+01 1.050000e+01
      vertex 2.027195e+01 1.032500e+01 1.050000e+01
      vertex 2.533995e+01 -2.607500e+01 1.050000e+01
    endloop
  endfacet
  facet normal 0.000000e+00 0.000000e+00 1.000000e+00
    outer loop
      vertex 2.533995e+01 1.820000e+01 1.050000e+01
      vertex -2.533995e+01 1.820000e+01 1.050000e+01
      vertex 2.027195e+01 1.032500e+01 1.050000e+01
    endloop
  endfacet
  facet normal 0.000000e+00 0.000000e+00 1.000000e+00
    outer loop
      vertex 2.027195e+01 1.032500e+01 1.050000e+01
      vertex 2.027195e+01 -1.424500e+01 1.050000e+01
      vertex 2.533995e+01 -2.607500e+01 1.050000e+01
    endloop
  endfacet
  facet normal 0.000000e+00 0.000000e+00 1.000000e+00
    outer loop
      vertex 2.027195e+01 -1.424500e+01 1.050000e+01
      vertex -2.027196e+01 -1.424500e+01 1.050000e+01
      vertex 2.533995e+01 -2.607500e+01 1.050000e+01
    endloop
  endfacet
  facet normal 1.000000e+00 0.000000e+00 0.000000e+00
    outer loop
      vertex 2.533995e+01 -2.607500e+01 1.050000e+01
      vertex 2.533995e+01 -2.607500e+01 0.000000e+00
      vertex 2.533995e+01 2.607500e+01 0.000000e+00
    endloop
  endfacet
  facet normal 1.000000e+00 0.000000e+00 0.000000e+00
    outer loop
      vertex 2.533995e+01 1.820000e+01 5.250000e+00
      vertex 2.533995e+01 -2.607500e+01 1.050000e+01
      vertex 2.533995e+01 2.607500e+01 0.000000e+00
    endloop
  endfacet
  facet normal 1.000000e+00 0.000000e+00 0.000000e+00
    outer loop
      vertex 2.533995e+01 2.607500e+01 5.250000e+00
      vertex 2.533995e+01 1.820000e+01 5.250000e+00
      vertex 2.533995e+01 2.607500e+01 0.000000e+00
    endloop
  endfacet
  facet normal 1.000000e+00 0.000000e+00 0.000000e+00
    outer loop
      vertex 2.533995e+01 1.820000e+01 5.250000e+00
      vertex 2.533995e+01 1.820000e+01 1.050000e+01
      vertex 2.533995e+01 -2.607500e+01 1.050000e+01
    endloop
  endfacet
  facet normal 1.000000e+00 0.000000e+00 0.000000e+00
    outer loop
      vertex -2.027196e+01 -1.424500e+01 1.050000e+01
      vertex -2.027196e+01 1.820000e+01 0.000000e+00
      vertex -2.027196e+01 1.032500e+01 5.250000e+00
    endloop
  endfacet
  facet normal 1.000000e+00 0.000000e+00 0.000000e+00
    outer loop
      vertex -2.027196e+01 1.032500e+01 5.250000e+00
      vertex -2.027196e+01 1.820000e+01 0.000000e+00
      vertex -2.027196e+01 1.820000e+01 5.250000e+00
    endloop
  endfacet
  facet normal 1.000000e+00 0.000000e+00 0.000000e+00
    outer loop
      vertex -2.027196e+01 -1.424500e+01 1.050000e+01
      vertex -2.027196e+01 1.032500e+01 5.250000e+00
      vertex -2.027196e+01 1.032500e+01 1.050000e+01
    endloop
  endfacet
  facet normal 1.000000e+00 0.000000e+00 0.000000e+00
    outer loop
      vertex -2.027196e+01 -1.424500e+01 0.000000e+00
      vertex -2.027196e+01 1.820000e+01 0.000000e+00
      vertex -2.027196e+01 -1.424500e+01 1.050000e+01
    endloop
  endfacet
  facet normal 0.000000e+00 -1.000000e+00 0.000000e+00
    outer loop
      vertex 2.027195e+01 1.820000e+01 0.000000e+00
      vertex 2.027195e+01 1.820000e+01 5.250000e+00
      vertex -2.027196e+01 1.820000e+01 5.250000e+00
    endloop
  endfacet
  facet normal -0.000000e+00 -1.000000e+00 -0.000000e+00
    outer loop
      vertex -2.027196e+01 1.820000e+01 0.000000e+00
      vertex 2.027195e+01 1.820000e+01 0.000000e+00
      vertex -2.027196e+01 1.820000e+01 5.250000e+00
    endloop
  endfacet
  facet normal -1.000000e+00 0.000000e+00 0.000000e+00
    outer loop
      vertex 2.027195e+01 1.032500e+01 1.050000e+01
      vertex 2.027195e+01 1.032500e+01 5.250000e+00
      vertex 2.027195e+01 -1.424500e+01 1.050000e+01
    endloop
  endfacet
  facet normal -1.000000e+00 0.000000e+00 0.000000e+00
    outer loop
      vertex 2.027195e+01 1.820000e+01 0.000000e+00
      vertex 2.027195e+01 1.032500e+01 5.250000e+00
      vertex 2.027195e+01 1.820000e+01 5.250000e+00
    endloop
  endfacet
  facet normal -1.000000e+00 0.000000e+00 0.000000e+00
    outer loop
      vertex 2.027195e+01 -1.424500e+01 1.050000e+01
      vertex 2.027195e+01 1.032500e+01 5.250000e+00
      vertex 2.027195e+01 1.820000e+01 0.000000e+00
    endloop
  endfacet
  facet normal -1.000000e+00 0.000000e+00 0.000000e+00
    outer loop
      vertex 2.027195e+01 -1.424500e+01 1.050000e+01
      vertex 2.027195e+01 1.820000e+01 0.000000e+00
      vertex 2.027195e+01 -1.424500e+01 0.000000e+00
    endloop
  endfacet
  facet normal 0.000000e+00 1.000000e+00 0.000000e+00
    outer loop
      vertex 2.027195e+01 -1.424500e+01 1.050000e+01
      vertex 2.027195e+01 -1.424500e+01 0.000000e+00
      vertex -2.027196e+01 -1.424500e+01 1.050000e+01
    endloop
  endfacet
  facet normal 0.000000e+00 1.000000e+00 0.000000e+00
    outer loop
      vertex -2.027196e+01 -1.424500e+01 1.050000e+01
      vertex 2.027195e+01 -1.424500e+01 0.000000e+00
      vertex -2.027196e+01 -1.424500e+01 0.000000e+00
    endloop
  endfacet
  facet normal -0.000000e+00 -0.000000e+00 -1.000000e+00
    outer loop
      vertex -2.027196e+01 1.032500e+01 5.250000e+00
      vertex -2.027196e+01 1.820000e+01 5.250000e+00
      vertex 2.027195e+01 1.032500e+01 5.250000e+00
    endloop
  endfacet
  facet normal 0.000000e+00 0.000000e+00 -1.000000e+00
    outer loop
      vertex 2.027195e+01 1.032500e+01 5.250000e+00
      vertex -2.027196e+01 1.820000e+01 5.250000e+00
      vertex 2.027195e+01 1.820000e+01 5.250000e+00
    endloop
  endfacet
  facet normal 0.000000e+00 -1.000000e+00 0.000000e+00
    outer loop
      vertex 2.027195e+01 1.032500e+01 5.250000e+00
      vertex 2.027195e+01 1.032500e+01 1.050000e+01
      vertex -2.027196e+01 1.032500e+01 1.050000e+01
    endloop
  endfacet
  facet normal -0.000000e+00 -1.000000e+00 -0.000000e+00
    outer loop
      vertex -2.027196e+01 1.032500e+01 5.250000e+00
      vertex 2.027195e+01 1.032500e+01 5.250000e+00
      vertex -2.027196e+01 1.032500e+01 1.050000e+01
    endloop
  endfacet
endsolid Default
